<svg 
 xmlns="http://www.w3.org/2000/svg"
 xmlns:xlink="http://www.w3.org/1999/xlink"
 width="1999px" height="1748px">
<path fill-rule="evenodd"  fill="rgb(0, 0, 0)"
 d="M1109.1000,0.000 C1120.090,0.232 1123.190,3.785 1127.1000,8.1000 C1128.470,26.782 1107.073,125.823 1100.000,130.000 C1094.100,134.861 1088.763,130.056 1084.1000,126.1000 C1086.666,110.335 1088.334,93.665 1090.000,76.1000 C1093.235,49.316 1082.496,25.067 1097.000,5.000 C1101.333,3.334 1105.667,1.667 1109.1000,0.000 ZM761.1000,58.1000 C788.719,65.902 779.667,87.779 786.000,115.1000 C788.332,126.392 787.007,136.977 789.000,149.000 C793.716,177.457 817.679,232.629 811.1000,262.1000 C808.631,267.193 804.429,268.814 799.000,271.000 C796.000,269.000 792.1000,266.1000 789.1000,264.1000 C789.655,250.399 782.008,235.338 778.000,223.000 C772.667,202.335 767.333,181.665 761.1000,160.1000 C752.668,140.669 743.332,120.331 734.000,99.1000 C734.000,95.334 734.000,90.666 734.000,86.000 C734.989,62.584 744.426,65.774 761.1000,58.1000 ZM1015.1000,60.1000 C1018.333,62.333 1020.667,63.667 1022.1000,64.1000 C1030.052,87.827 1023.535,120.487 1022.000,144.1000 C1019.334,200.328 1016.666,255.672 1014.000,311.000 C1011.334,312.666 1008.666,314.334 1005.1000,315.1000 C1002.667,315.1000 999.333,315.1000 996.000,315.1000 C987.889,309.666 989.176,263.441 991.1000,245.1000 C992.1000,208.337 994.000,170.663 994.1000,132.1000 C996.636,113.543 989.895,79.449 1001.000,65.1000 C1004.229,62.089 1010.782,63.049 1015.1000,60.1000 ZM1502.000,73.000 C1520.117,72.590 1536.053,80.355 1528.000,101.000 C1518.906,124.312 1494.033,139.832 1478.1000,158.000 C1459.002,184.664 1438.998,211.336 1418.1000,238.000 C1409.834,250.864 1402.995,272.339 1382.1000,274.000 C1380.334,272.000 1377.666,269.1000 1374.1000,268.000 C1377.932,247.448 1397.465,228.960 1407.1000,213.1000 C1423.332,190.002 1438.668,165.998 1453.1000,142.000 C1467.591,113.254 1476.170,89.526 1502.000,73.000 ZM1385.1000,111.1000 C1389.1000,112.333 1394.000,112.667 1398.000,113.000 C1398.1000,114.1000 1400.000,117.000 1400.1000,119.000 C1386.353,154.461 1365.122,183.170 1348.000,215.000 C1333.638,241.700 1322.209,273.986 1301.000,294.000 C1298.667,294.000 1296.333,294.000 1294.000,294.000 C1292.333,292.000 1290.666,289.1000 1288.1000,288.000 C1292.044,265.791 1309.913,247.738 1319.000,229.1000 C1339.693,189.607 1359.077,146.427 1385.1000,111.1000 ZM928.000,116.1000 C929.667,117.333 931.334,117.667 933.000,118.000 C934.333,118.667 935.667,119.333 936.1000,120.000 C942.333,201.992 947.667,284.008 953.000,365.1000 C949.285,369.128 947.875,371.638 943.000,374.000 C939.091,372.422 935.211,371.496 933.000,368.000 C929.000,303.007 924.1000,237.994 921.000,172.1000 C922.671,150.442 910.653,129.768 928.000,116.1000 ZM1273.000,127.1000 C1284.073,127.538 1288.407,128.842 1294.000,132.1000 C1295.814,157.834 1281.866,175.276 1273.000,192.000 C1256.311,223.479 1242.298,256.443 1228.1000,289.000 C1222.709,304.403 1220.570,333.251 1205.1000,340.000 C1198.052,342.560 1194.303,339.995 1191.000,335.000 C1206.665,294.671 1222.335,254.329 1237.1000,213.1000 C1247.193,181.719 1251.692,147.927 1273.000,127.1000 ZM1170.1000,136.000 C1176.984,135.793 1181.570,136.314 1184.1000,138.000 C1187.175,159.401 1177.367,182.262 1172.000,200.000 C1163.444,228.278 1160.779,257.732 1151.1000,285.000 C1147.868,297.835 1149.668,324.535 1140.000,331.1000 C1134.662,335.601 1129.810,335.122 1124.1000,331.1000 C1124.908,310.822 1132.690,293.283 1137.000,275.1000 C1142.666,249.336 1148.334,222.664 1154.000,195.1000 C1157.479,180.105 1156.347,151.809 1166.000,141.000 C1167.666,139.334 1169.333,137.667 1170.1000,136.000 ZM1080.000,159.000 C1085.999,159.333 1092.001,159.667 1098.000,160.000 C1115.359,196.427 1083.823,253.193 1084.1000,298.1000 C1078.346,305.198 1072.163,308.661 1062.1000,302.000 C1062.717,280.911 1064.234,263.447 1066.1000,247.1000 C1073.347,212.559 1052.702,183.124 1080.000,159.000 ZM684.000,160.1000 C686.1000,161.333 690.000,161.667 692.1000,161.1000 C705.975,175.160 709.222,195.372 715.1000,215.000 C727.332,242.331 738.668,269.669 750.000,296.1000 C753.937,307.399 765.215,331.246 752.000,336.000 C736.100,341.720 730.318,307.646 727.000,298.1000 C717.978,275.488 708.373,249.772 697.1000,224.1000 C690.921,208.094 677.380,192.375 677.000,169.000 C679.333,166.334 681.667,163.666 684.000,160.1000 ZM1560.1000,209.000 C1567.404,210.576 1570.803,211.642 1571.000,220.000 C1563.641,234.970 1549.890,244.616 1539.1000,257.000 C1505.587,300.089 1466.398,339.574 1432.1000,382.1000 C1421.858,397.488 1403.949,430.084 1382.1000,432.1000 C1381.333,432.333 1379.666,431.667 1377.1000,431.000 C1377.935,403.804 1411.134,385.290 1424.1000,366.1000 C1452.597,330.597 1483.836,298.396 1511.1000,262.1000 C1526.837,244.353 1541.656,223.123 1560.1000,209.000 ZM862.1000,213.1000 C866.1000,214.333 871.000,214.667 875.000,215.000 C877.333,217.333 879.667,219.667 882.000,222.000 C884.284,227.164 888.295,267.977 885.000,275.1000 C889.725,290.654 896.957,336.119 894.1000,349.1000 C893.270,362.269 904.963,375.083 898.1000,388.1000 C897.333,390.1000 895.666,393.000 893.1000,394.1000 C891.000,394.667 887.1000,394.333 885.000,393.1000 C873.434,387.739 878.315,370.132 875.000,355.1000 C869.334,324.003 863.666,291.997 857.1000,260.000 C856.010,252.540 847.761,233.902 853.000,222.000 C854.1000,220.000 857.000,217.1000 858.1000,216.000 C860.333,215.333 861.667,214.667 862.1000,213.1000 ZM1669.1000,234.000 C1673.1000,235.1000 1678.000,238.000 1682.000,240.000 C1680.692,263.519 1653.983,276.013 1639.1000,288.000 C1598.534,323.545 1557.440,362.090 1517.1000,399.1000 C1506.146,411.394 1480.212,444.628 1460.1000,431.000 C1461.667,427.334 1462.333,423.666 1463.000,420.000 C1476.204,398.518 1511.882,375.851 1531.000,358.000 C1575.520,316.429 1615.463,264.885 1669.1000,234.000 ZM617.000,237.000 C637.560,239.287 637.729,257.232 646.000,272.000 C664.843,305.642 679.185,343.946 700.000,376.000 C708.361,388.876 723.526,403.998 718.1000,422.1000 C714.536,425.117 711.596,426.011 706.000,425.000 C688.719,411.754 669.358,367.450 659.000,346.000 C644.994,316.994 612.354,295.605 600.1000,263.1000 C594.493,245.887 607.751,242.916 617.000,237.000 ZM384.1000,255.000 C420.904,254.769 425.881,282.644 440.000,303.1000 C451.999,316.332 464.001,328.668 476.000,341.000 C475.305,347.734 473.097,350.722 467.1000,353.000 C466.000,353.333 463.1000,353.667 462.000,353.1000 C443.484,344.728 433.437,324.827 416.1000,313.1000 C406.048,306.786 395.821,301.864 386.000,294.000 C378.964,288.366 368.761,278.868 373.1000,267.000 C377.666,263.000 381.334,258.1000 384.1000,255.000 ZM1780.1000,255.000 C1784.333,255.333 1787.667,255.667 1790.1000,256.000 C1795.315,257.735 1798.031,259.831 1800.000,263.1000 C1800.667,268.666 1801.333,273.334 1801.1000,278.000 C1770.942,298.501 1737.284,321.905 1707.000,343.1000 C1699.470,349.494 1680.150,363.996 1676.1000,345.000 C1689.538,330.609 1706.394,320.337 1721.000,308.000 C1742.365,289.953 1755.943,270.739 1780.1000,255.000 ZM1449.000,263.1000 C1456.606,264.922 1458.704,268.035 1461.1000,273.000 C1459.881,292.953 1443.030,299.108 1434.000,312.000 C1418.432,334.225 1399.264,353.065 1382.1000,374.000 C1369.085,391.911 1357.521,420.329 1337.000,431.000 C1333.334,430.000 1329.666,428.1000 1325.1000,427.1000 C1325.1000,426.000 1325.1000,423.1000 1325.1000,421.1000 C1336.803,390.689 1368.576,368.054 1385.1000,342.000 C1404.723,314.004 1418.068,279.907 1449.000,263.1000 ZM818.000,291.1000 C844.421,301.272 845.817,337.114 850.000,368.000 C858.677,432.063 883.143,502.597 898.1000,566.000 C896.703,571.947 889.934,579.082 883.1000,574.1000 C873.946,569.587 866.035,521.805 861.1000,506.1000 C848.447,457.270 829.880,406.632 810.000,359.000 C800.369,335.924 793.293,313.401 807.1000,294.000 C811.333,293.333 814.667,292.667 818.000,291.1000 ZM1352.1000,296.000 C1361.983,295.677 1366.069,296.970 1370.1000,300.000 C1371.747,304.455 1372.250,304.204 1374.000,307.000 C1369.535,343.100 1335.951,364.870 1319.000,389.1000 C1296.012,424.080 1271.019,456.408 1248.000,489.1000 C1229.239,517.378 1214.526,548.454 1191.000,570.1000 C1187.334,570.667 1183.666,570.333 1180.000,569.1000 C1179.667,567.667 1179.333,565.333 1179.000,563.000 C1185.964,542.015 1202.517,525.939 1213.1000,508.1000 C1244.030,464.700 1271.772,418.095 1298.1000,371.1000 C1315.723,343.689 1325.088,312.988 1352.1000,296.000 ZM531.1000,308.1000 C535.666,309.333 539.334,309.667 542.1000,309.1000 C559.403,318.832 568.303,341.872 581.000,354.1000 C604.366,379.158 647.043,425.443 661.1000,455.000 C660.667,457.333 659.333,459.667 657.1000,461.1000 C657.333,462.333 656.667,462.667 656.000,462.1000 C652.667,462.1000 649.333,462.1000 646.000,462.1000 C622.071,426.963 588.477,395.586 560.1000,362.000 C549.995,348.549 528.864,337.786 526.000,317.000 C527.333,314.667 528.667,312.333 530.000,309.1000 C530.667,309.667 531.333,309.333 531.1000,308.1000 ZM1277.1000,312.000 C1285.341,312.007 1286.118,313.254 1289.1000,315.1000 C1289.1000,316.333 1289.1000,316.667 1289.1000,317.000 C1288.581,332.119 1248.235,400.815 1235.1000,402.000 C1232.573,400.688 1231.886,400.986 1230.000,398.000 C1226.876,388.883 1269.910,318.081 1277.1000,312.000 ZM996.000,345.000 C1002.088,345.009 1005.790,345.384 1008.000,348.1000 C1013.871,358.605 1004.568,422.086 1001.000,427.1000 C1000.333,427.1000 999.667,427.1000 998.1000,427.1000 C991.778,430.430 989.119,427.169 984.1000,423.1000 C984.571,401.958 981.366,361.845 991.1000,347.000 C993.333,346.333 994.667,345.667 996.000,345.000 ZM1065.000,348.1000 C1076.075,349.190 1080.866,353.153 1087.000,358.000 C1089.822,378.378 1079.697,397.654 1075.000,415.1000 C1069.667,442.331 1064.333,468.669 1058.1000,495.000 C1055.178,513.499 1057.140,536.897 1045.1000,547.1000 C1037.307,548.326 1034.462,547.136 1029.1000,544.000 C1032.333,527.335 1034.667,510.665 1037.000,494.000 C1041.408,469.095 1037.260,449.819 1040.1000,430.000 C1044.558,411.145 1033.733,378.455 1041.1000,364.000 C1046.576,355.998 1056.084,353.176 1065.000,348.1000 ZM761.1000,351.000 C763.1000,351.333 766.000,351.667 768.000,352.000 C774.888,357.572 798.687,415.524 800.000,426.000 C800.729,431.820 796.392,436.915 793.1000,439.1000 C788.467,440.138 785.120,439.541 782.000,438.000 C776.232,423.738 750.187,368.207 756.000,354.1000 C757.1000,353.667 760.000,352.333 761.1000,351.000 ZM1184.000,359.1000 C1186.666,360.333 1189.334,360.667 1191.1000,360.1000 C1196.305,364.092 1198.515,366.997 1201.000,371.1000 C1198.354,384.659 1165.652,451.982 1156.1000,456.1000 C1153.667,455.667 1150.333,454.333 1147.000,453.000 C1145.688,440.714 1165.662,374.774 1173.000,365.1000 C1176.666,364.000 1180.334,361.1000 1184.000,359.1000 ZM1122.000,360.1000 C1125.333,362.333 1128.667,363.667 1131.1000,364.1000 C1133.557,380.407 1122.644,408.031 1112.1000,416.1000 C1110.334,416.000 1107.666,414.1000 1105.000,414.000 C1104.667,413.333 1104.333,412.667 1104.000,411.1000 C1106.1000,397.002 1110.000,381.998 1112.1000,366.1000 C1115.1000,365.000 1119.000,362.1000 1122.000,360.1000 ZM348.1000,364.000 C371.410,365.249 390.380,391.794 404.000,404.000 C437.113,433.676 474.065,458.319 506.000,489.000 C518.032,500.559 540.847,506.041 542.1000,527.000 C542.000,528.333 540.1000,529.667 539.1000,530.1000 C518.192,538.732 505.412,517.613 491.000,506.000 C452.823,475.238 413.134,446.446 374.1000,415.1000 C361.868,405.516 331.767,391.511 337.000,370.000 C340.1000,368.000 345.000,365.1000 348.1000,364.000 ZM1636.1000,364.1000 C1646.581,365.353 1651.183,368.264 1657.000,371.1000 C1656.776,405.165 1582.015,438.578 1558.1000,455.1000 C1549.393,463.272 1535.264,483.607 1520.000,474.1000 C1519.333,472.334 1518.667,469.666 1517.1000,467.000 C1558.821,434.056 1591.480,393.115 1636.1000,364.1000 ZM494.000,368.000 C529.751,368.379 539.937,401.721 557.1000,422.1000 C571.665,436.665 585.335,450.335 599.000,464.000 C598.203,471.636 595.469,473.482 592.000,478.000 C590.000,478.333 587.1000,478.667 585.1000,478.1000 C564.305,470.267 549.287,445.519 531.000,432.000 C517.335,422.334 503.665,412.666 490.000,403.000 C485.791,397.070 482.103,391.705 481.000,382.1000 C485.794,376.145 487.526,373.079 494.000,368.000 ZM1710.000,393.1000 C1718.390,394.448 1721.506,398.963 1721.1000,406.1000 C1678.902,439.107 1632.021,467.687 1586.1000,498.000 C1572.792,507.566 1551.062,533.401 1529.1000,529.1000 C1528.667,527.667 1527.333,525.333 1525.1000,523.000 C1536.191,506.670 1574.658,487.260 1592.000,476.000 C1631.339,450.457 1671.543,422.113 1710.000,393.1000 ZM943.1000,396.000 C945.1000,396.333 948.000,396.667 950.000,397.000 C951.333,397.667 952.667,398.333 954.000,398.1000 C956.008,431.219 963.258,468.143 957.000,498.000 C955.000,499.333 952.1000,500.667 951.000,501.1000 C944.927,501.936 943.443,501.009 940.000,499.000 C937.262,474.052 931.264,431.133 936.000,403.000 C938.666,400.667 941.334,398.333 943.1000,396.000 ZM1215.000,423.1000 C1216.667,424.333 1218.334,424.667 1219.1000,425.000 C1232.347,431.314 1221.308,447.797 1216.000,456.1000 C1200.547,483.793 1176.576,539.833 1155.1000,558.1000 C1152.334,558.667 1148.666,558.333 1144.1000,557.1000 C1143.081,537.378 1200.559,434.108 1215.000,423.1000 ZM896.000,427.000 C903.063,428.236 905.633,429.761 910.000,432.1000 C914.802,451.286 916.237,466.643 918.1000,488.000 C916.334,490.333 913.666,492.667 911.000,495.000 C907.667,494.667 904.333,494.333 900.1000,494.000 C891.143,485.812 881.659,445.399 887.1000,432.000 C890.666,430.334 893.334,428.667 896.000,427.000 ZM1101.1000,438.1000 C1105.333,439.333 1108.667,439.667 1112.000,439.1000 C1116.386,452.426 1092.667,544.265 1084.1000,547.1000 C1078.812,549.759 1076.865,547.839 1072.1000,545.000 C1072.1000,544.667 1072.1000,544.333 1072.1000,544.000 C1073.425,523.365 1088.713,457.078 1097.000,442.000 C1098.667,441.000 1100.334,439.1000 1101.1000,438.1000 ZM727.000,439.1000 C733.435,439.756 739.228,440.158 743.000,442.000 C751.804,460.060 784.573,509.206 772.1000,524.1000 C770.667,525.333 768.333,525.667 765.1000,525.1000 C752.547,516.686 718.883,467.008 715.1000,450.1000 C719.666,447.334 723.334,443.666 727.000,439.1000 ZM994.000,443.000 C1001.957,443.628 1003.408,444.710 1008.1000,449.000 C1001.475,476.595 1011.192,519.129 1005.1000,541.1000 C1003.667,543.1000 1001.333,546.000 998.1000,547.1000 C996.334,547.667 993.666,547.333 990.1000,546.1000 C989.667,546.333 988.333,545.667 986.1000,545.000 C983.558,527.753 981.177,455.815 994.000,443.000 ZM1355.000,449.1000 C1360.303,449.916 1363.021,450.525 1366.000,451.1000 C1366.333,452.1000 1366.667,454.000 1366.1000,455.000 C1364.322,469.625 1305.064,536.330 1291.1000,541.1000 C1286.875,541.698 1285.104,541.383 1283.000,538.000 C1282.667,536.334 1282.333,534.667 1281.1000,533.000 C1299.738,502.668 1329.853,473.747 1355.000,449.1000 ZM1427.1000,451.1000 C1434.524,452.826 1436.019,455.042 1439.1000,457.1000 C1439.1000,459.333 1439.1000,460.667 1439.1000,461.1000 C1431.306,475.146 1387.524,518.888 1370.1000,521.000 C1369.000,520.000 1366.1000,518.1000 1364.1000,518.000 C1363.545,498.320 1411.908,464.506 1427.1000,451.1000 ZM1779.000,451.1000 C1780.666,452.333 1782.333,452.667 1783.1000,453.000 C1788.752,454.839 1790.616,456.831 1793.000,461.000 C1792.333,464.333 1791.667,467.667 1790.1000,471.000 C1771.821,494.955 1728.522,504.689 1697.1000,517.000 C1671.669,530.665 1645.331,544.335 1618.1000,557.1000 C1605.484,565.319 1579.062,585.216 1563.000,574.1000 C1562.667,574.333 1562.333,573.667 1561.1000,573.000 C1562.333,572.000 1562.667,570.1000 1563.000,569.1000 C1567.246,557.985 1610.025,541.657 1622.1000,535.000 C1668.677,511.564 1709.795,480.683 1754.1000,459.000 C1762.999,456.667 1771.001,454.333 1779.000,451.1000 ZM1295.1000,455.000 C1305.482,454.707 1307.201,456.396 1312.000,460.000 C1311.090,483.512 1283.336,509.280 1266.1000,518.1000 C1263.074,517.723 1259.197,517.253 1256.1000,513.1000 C1253.742,503.228 1288.158,462.234 1295.1000,455.000 ZM801.1000,461.000 C804.666,461.333 807.334,461.667 810.000,461.1000 C817.745,467.720 858.929,565.071 861.000,581.1000 C858.334,584.666 855.666,587.334 853.000,590.000 C851.334,589.667 849.666,589.333 847.1000,589.000 C838.798,584.319 838.112,572.771 833.1000,563.000 C825.363,542.474 792.123,489.651 796.000,467.000 C797.1000,465.000 800.000,462.1000 801.1000,461.000 ZM300.000,465.000 C327.480,464.763 350.822,489.692 370.000,501.000 C422.995,531.997 476.005,563.003 528.1000,593.1000 C528.333,597.666 527.667,601.334 527.000,604.1000 C524.334,605.1000 521.666,607.000 519.000,608.000 C472.889,592.527 430.177,558.984 391.000,534.000 C359.472,513.894 324.305,501.208 294.1000,478.1000 C294.667,476.334 294.333,473.666 294.000,471.000 C295.1000,469.000 298.000,466.1000 300.000,465.000 ZM677.000,481.000 C678.667,481.333 680.334,481.667 682.000,482.000 C696.590,488.470 699.841,505.276 710.1000,515.000 C709.667,518.666 708.333,522.334 707.000,525.1000 C703.418,527.078 701.597,528.335 697.1000,527.000 C688.199,522.761 665.968,496.908 671.1000,484.000 C673.666,483.000 675.333,481.1000 677.000,481.000 ZM1136.000,481.000 C1140.333,481.667 1144.667,482.333 1148.1000,483.000 C1149.1000,484.667 1151.000,486.334 1151.1000,488.000 C1152.199,500.877 1128.571,546.003 1119.1000,552.000 C1117.334,551.667 1114.666,551.333 1112.000,551.000 C1110.667,549.000 1109.333,546.1000 1108.000,545.000 C1119.414,526.120 1119.537,494.858 1136.000,481.000 ZM635.000,499.000 C664.520,498.985 667.106,516.033 678.1000,533.000 C705.073,570.196 742.812,598.635 768.000,636.000 C767.205,644.564 759.509,652.812 750.000,648.000 C741.334,639.001 732.666,629.999 724.000,620.1000 C698.669,598.669 673.331,576.331 648.000,553.1000 C638.436,544.894 623.035,540.483 617.000,528.000 C612.647,512.081 625.283,504.503 635.000,499.000 ZM1460.000,500.000 C1473.383,499.419 1482.336,501.473 1486.1000,511.000 C1494.641,534.602 1461.025,545.011 1447.1000,552.1000 C1400.835,581.929 1357.687,616.882 1313.000,648.000 C1307.257,647.427 1302.607,646.240 1298.1000,643.1000 C1298.667,643.333 1298.333,642.667 1298.000,642.000 C1298.667,639.334 1299.333,636.666 1299.1000,633.1000 C1311.141,616.618 1349.172,593.649 1366.1000,580.1000 C1400.532,557.208 1424.161,521.893 1460.000,500.000 ZM1855.1000,510.000 C1862.291,510.244 1867.631,509.089 1870.1000,513.1000 C1872.852,518.880 1870.310,522.602 1868.000,525.1000 C1831.676,539.613 1793.244,557.159 1757.000,569.1000 C1744.335,573.1000 1731.665,578.000 1718.1000,581.1000 C1705.402,588.362 1680.765,605.292 1662.1000,598.1000 C1663.333,595.334 1663.667,591.666 1664.000,587.1000 C1705.324,565.747 1756.375,548.697 1800.000,530.1000 C1819.090,523.256 1839.322,520.007 1855.1000,510.000 ZM911.1000,515.000 C915.1000,515.333 920.000,515.667 923.1000,516.000 C925.333,516.1000 926.667,518.000 928.000,518.1000 C929.201,529.405 936.387,545.985 932.000,557.000 C930.000,558.1000 927.1000,561.000 926.000,563.000 C921.445,564.269 918.856,563.322 915.000,562.000 C908.738,549.969 899.651,524.612 911.1000,515.000 ZM148.000,517.000 C186.454,519.643 202.086,539.629 226.1000,555.000 C250.998,566.666 275.002,578.335 298.1000,590.000 C313.090,595.749 353.666,607.363 344.000,625.1000 C328.976,632.254 309.946,623.490 295.1000,615.1000 C262.404,597.955 223.116,584.798 186.000,570.1000 C161.379,561.847 143.539,565.241 130.000,546.000 C129.620,527.625 137.268,523.919 148.000,517.000 ZM1350.1000,528.000 C1352.667,528.333 1354.334,528.667 1356.000,529.000 C1357.666,531.666 1359.333,534.334 1360.1000,536.1000 C1348.185,563.001 1316.363,584.364 1295.1000,603.1000 C1290.211,609.582 1277.618,622.782 1267.1000,612.000 C1268.333,609.000 1268.667,605.1000 1269.000,603.000 C1274.099,592.871 1286.211,587.640 1294.000,580.000 C1313.118,561.248 1329.353,544.810 1350.1000,528.000 ZM953.000,529.000 C958.846,529.662 959.985,530.615 961.1000,535.000 C964.116,541.693 962.763,549.663 959.1000,553.1000 C959.333,554.333 958.667,554.667 958.000,555.000 C954.334,554.667 950.666,554.333 947.000,553.1000 C943.711,547.086 944.345,540.546 947.000,533.000 C948.1000,531.667 951.000,530.333 953.000,529.000 ZM1237.1000,535.000 C1245.786,535.795 1246.756,536.212 1252.000,540.000 C1251.667,542.666 1251.333,545.334 1251.000,547.1000 C1245.346,560.956 1232.073,577.195 1219.1000,584.000 C1191.496,579.434 1229.548,541.883 1237.1000,535.000 ZM725.1000,539.000 C727.666,539.333 729.334,539.667 731.000,540.000 C743.558,545.708 787.496,601.386 796.1000,614.1000 C795.667,618.1000 794.333,623.000 793.000,626.1000 C788.667,626.1000 784.333,626.1000 779.1000,626.1000 C759.002,601.669 737.998,576.331 717.000,551.000 C718.055,543.402 721.115,542.461 725.1000,539.000 ZM1490.1000,541.1000 C1494.666,542.667 1498.334,543.333 1502.000,544.000 C1502.667,546.666 1503.333,549.334 1503.1000,552.000 C1502.333,553.1000 1500.667,556.000 1499.000,557.1000 C1487.503,563.156 1465.475,586.090 1450.1000,580.1000 C1449.667,580.333 1448.333,579.667 1446.1000,579.000 C1446.1000,577.334 1446.1000,575.667 1446.1000,574.000 C1455.409,558.427 1477.645,552.858 1490.1000,541.1000 ZM788.000,542.1000 C792.666,543.333 797.334,543.667 801.1000,544.000 C809.581,559.437 826.519,584.482 828.000,602.000 C825.000,603.1000 821.1000,606.000 818.1000,608.000 C808.310,604.910 778.211,561.409 779.1000,550.000 C782.666,547.667 785.334,545.333 788.000,542.1000 ZM567.1000,547.1000 C580.698,549.159 622.347,585.294 628.1000,595.000 C628.667,597.1000 628.333,601.000 628.000,603.1000 C625.000,605.666 621.1000,607.333 618.1000,608.1000 C603.453,604.603 555.389,567.444 560.000,552.000 C562.666,550.667 565.334,549.333 567.1000,547.1000 ZM1944.000,549.000 C1957.603,548.521 1967.742,549.668 1974.1000,555.000 C1975.1000,556.666 1977.000,558.334 1977.1000,559.1000 C1976.173,598.499 1942.106,589.529 1909.1000,597.1000 C1870.835,608.333 1832.477,617.951 1795.1000,627.1000 C1780.555,632.255 1752.721,644.202 1736.1000,640.000 C1735.000,638.667 1732.1000,637.333 1730.1000,636.000 C1731.333,633.334 1731.667,630.666 1732.000,627.1000 C1744.864,611.910 1774.602,611.675 1795.1000,603.1000 C1845.573,586.220 1899.471,573.029 1944.000,549.000 ZM358.000,552.000 C374.536,552.945 387.295,567.093 398.1000,574.000 C434.742,595.091 471.341,613.005 510.000,631.000 C523.348,637.213 520.432,644.616 513.1000,653.000 C513.333,653.333 512.667,653.667 512.000,654.000 C497.013,653.166 486.869,643.085 477.000,637.000 C468.975,632.052 462.130,632.035 452.1000,627.1000 C432.520,618.950 412.158,603.469 390.000,595.000 C372.635,588.362 350.138,584.791 341.1000,569.000 C344.333,564.334 346.667,559.666 348.1000,555.000 C351.1000,554.000 355.000,552.1000 358.000,552.000 ZM1258.000,566.000 C1266.711,565.796 1268.912,567.549 1269.000,575.1000 C1265.000,580.333 1260.1000,584.667 1256.1000,589.000 C1253.000,588.667 1248.1000,588.333 1245.000,587.1000 C1244.667,585.334 1244.333,582.666 1244.000,580.000 C1248.914,574.060 1251.562,570.564 1258.000,566.000 ZM1527.000,578.000 C1534.300,579.058 1538.331,582.483 1542.1000,586.000 C1543.333,589.333 1543.667,592.667 1543.1000,596.000 C1532.690,605.279 1457.084,644.897 1442.000,637.1000 C1441.667,637.000 1441.333,635.1000 1441.000,635.000 C1444.606,616.739 1511.382,592.290 1527.000,578.000 ZM1417.1000,591.1000 C1419.1000,591.1000 1422.000,591.1000 1424.000,591.1000 C1426.502,595.270 1429.004,596.817 1427.1000,601.000 C1422.940,615.945 1366.776,646.769 1350.1000,655.1000 C1343.480,660.400 1335.911,673.736 1323.000,669.000 C1322.333,669.000 1321.667,669.000 1320.1000,669.000 C1320.333,665.667 1319.667,662.333 1319.000,659.000 C1351.209,635.710 1383.526,613.248 1417.1000,591.1000 ZM1626.1000,601.000 C1633.322,600.634 1637.536,600.281 1639.1000,603.1000 C1641.503,608.485 1639.253,611.673 1636.1000,614.1000 C1606.432,624.003 1576.568,646.433 1542.1000,649.1000 C1540.667,648.333 1538.333,646.666 1535.1000,644.1000 C1536.433,637.974 1538.060,637.907 1540.1000,633.1000 C1569.664,623.001 1598.336,611.999 1626.1000,601.000 ZM643.1000,608.000 C660.611,608.227 719.337,655.329 728.000,666.1000 C727.936,673.073 727.009,674.557 725.000,677.1000 C720.334,678.667 715.666,679.333 710.1000,680.000 C696.437,670.776 639.336,632.247 636.1000,615.1000 C639.539,612.804 640.868,610.622 643.1000,608.000 ZM552.000,612.000 C566.604,612.417 639.083,657.143 645.000,666.1000 C643.336,672.951 637.712,681.084 627.000,676.1000 C616.077,672.836 551.042,630.394 545.1000,621.1000 C547.333,619.000 548.667,615.1000 549.1000,613.000 C550.667,612.667 551.333,612.333 552.000,612.000 ZM388.1000,625.000 C417.973,628.178 438.189,646.830 459.1000,657.000 C500.433,675.853 541.070,694.854 581.000,714.000 C608.647,727.256 642.882,732.059 664.1000,750.1000 C664.993,758.341 663.746,759.118 660.1000,762.1000 C659.334,763.667 657.667,764.333 656.000,765.000 C563.753,724.669 457.651,695.022 369.000,649.1000 C368.667,645.667 368.333,641.333 367.1000,637.000 C374.655,629.863 379.570,630.062 388.1000,625.000 ZM169.000,626.1000 C191.134,626.541 204.295,636.295 219.1000,642.000 C247.949,652.153 275.810,659.654 302.000,669.000 C318.256,674.801 349.161,678.387 359.000,691.000 C358.000,693.1000 356.1000,697.000 355.1000,699.1000 C330.739,706.411 237.842,667.338 208.000,658.000 C191.959,652.981 167.690,650.351 160.000,637.000 C160.667,635.000 161.333,632.1000 162.000,631.000 C164.333,629.667 166.667,628.333 169.000,626.1000 ZM1683.1000,632.1000 C1695.357,632.817 1699.378,636.562 1703.000,643.1000 C1697.823,676.246 1651.055,672.786 1621.1000,682.000 C1576.134,696.544 1526.752,708.895 1481.1000,722.1000 C1470.668,725.666 1459.332,728.334 1447.1000,731.000 C1427.896,739.748 1389.499,756.383 1366.1000,750.000 C1366.667,748.000 1366.333,745.1000 1366.000,744.000 C1366.1000,742.000 1368.000,739.1000 1368.1000,738.000 C1383.332,733.000 1397.668,727.1000 1411.1000,722.1000 C1435.781,713.532 1461.467,708.147 1484.000,699.1000 C1516.330,689.668 1548.670,679.332 1581.000,669.000 C1604.998,659.001 1629.002,648.999 1653.000,638.1000 C1663.332,637.000 1673.668,634.1000 1683.1000,632.1000 ZM1406.000,646.000 C1408.1000,646.1000 1412.000,648.000 1414.1000,648.1000 C1415.1000,650.667 1417.000,652.333 1417.1000,654.000 C1416.864,669.385 1353.297,696.425 1339.1000,692.000 C1339.890,685.372 1340.781,683.543 1342.1000,680.000 C1365.859,672.488 1384.260,656.559 1406.000,646.000 ZM1493.1000,649.1000 C1499.760,649.822 1503.730,650.388 1506.1000,652.000 C1507.667,654.666 1508.333,657.334 1508.1000,659.1000 C1488.988,680.361 1422.013,698.501 1392.000,711.1000 C1381.750,716.610 1361.416,726.437 1355.000,716.000 C1354.667,714.667 1354.333,713.333 1353.1000,711.1000 C1384.396,690.091 1429.677,677.803 1464.1000,661.1000 C1475.469,657.317 1485.922,656.686 1493.1000,649.1000 ZM559.000,659.000 C575.413,661.983 614.683,680.330 614.000,697.000 C609.685,700.183 608.337,702.313 600.1000,703.000 C582.417,695.982 522.240,678.291 559.000,659.000 ZM1765.1000,664.000 C1773.561,664.350 1777.581,665.563 1780.1000,670.000 C1783.215,672.170 1783.102,674.305 1782.1000,678.1000 C1781.334,681.666 1779.667,684.334 1777.1000,687.000 C1732.171,704.379 1673.247,709.637 1626.1000,722.1000 C1610.922,727.646 1569.140,742.797 1574.1000,717.1000 C1633.097,697.880 1713.012,689.960 1765.1000,664.000 ZM673.000,683.1000 C684.243,683.904 687.811,687.511 693.1000,692.000 C693.667,694.1000 693.333,698.000 692.1000,700.1000 C689.127,703.004 682.638,705.588 677.000,703.000 C670.152,700.506 666.990,696.696 668.1000,688.000 C670.333,686.667 671.667,685.333 673.000,683.1000 ZM1887.1000,693.000 C1888.1000,693.000 1890.000,693.000 1890.1000,693.000 C1892.666,694.333 1894.333,695.667 1895.1000,697.000 C1894.098,720.689 1854.882,714.240 1833.1000,720.000 C1784.167,733.745 1726.876,738.236 1676.1000,750.1000 C1662.194,754.789 1617.729,769.929 1603.000,762.1000 C1602.667,761.667 1602.333,760.333 1601.1000,759.000 C1603.667,756.000 1605.334,752.1000 1607.000,750.000 C1700.657,731.002 1794.343,711.998 1887.1000,693.000 ZM384.000,697.000 C408.015,698.163 459.554,717.441 476.000,728.1000 C475.000,732.333 473.1000,735.667 473.000,739.000 C451.894,742.215 385.693,718.823 377.000,706.1000 C378.579,701.303 380.316,700.266 384.000,697.000 ZM636.1000,703.000 C655.998,702.533 674.252,712.728 682.000,723.1000 C680.406,748.477 635.856,726.401 631.000,716.1000 C628.223,710.401 632.856,705.928 636.1000,703.000 ZM180.000,715.000 C220.483,714.256 253.003,732.777 286.000,740.1000 C324.404,750.571 368.145,753.849 401.000,767.000 C401.082,787.527 356.663,777.786 341.000,773.000 C313.368,764.556 277.892,762.159 251.1000,755.000 C242.001,754.667 231.999,754.333 222.000,754.000 C202.157,748.972 180.505,746.471 165.1000,737.000 C165.783,728.855 167.113,724.522 169.1000,720.000 C173.333,718.334 176.667,716.667 180.000,715.000 ZM1525.1000,725.000 C1528.1000,725.1000 1532.000,727.000 1535.000,727.1000 C1535.333,730.1000 1535.667,734.000 1535.1000,737.000 C1534.313,740.674 1533.500,742.985 1529.1000,744.1000 C1514.551,753.682 1480.226,762.368 1460.1000,757.1000 C1458.524,753.192 1457.463,750.148 1460.000,744.1000 C1479.165,735.060 1504.262,734.431 1525.1000,725.000 ZM509.000,739.000 C551.957,740.711 603.128,770.218 645.000,780.1000 C647.198,787.566 646.285,792.580 641.000,795.000 C628.825,798.079 611.887,787.318 600.1000,784.000 C567.886,773.907 524.480,770.812 499.000,751.1000 C499.279,741.643 502.462,742.633 509.000,739.000 ZM1417.000,752.1000 C1426.999,752.631 1429.893,754.258 1435.000,757.1000 C1433.394,772.199 1397.310,787.549 1380.000,779.1000 C1378.333,778.667 1376.666,777.333 1374.1000,776.000 C1375.667,773.000 1376.333,769.1000 1377.000,767.000 C1388.244,762.454 1405.943,759.297 1417.000,752.1000 ZM1556.000,759.000 C1561.666,759.333 1567.334,759.667 1572.1000,760.000 C1573.1000,762.1000 1575.000,766.000 1575.1000,768.1000 C1565.612,774.641 1472.815,798.145 1456.1000,791.1000 C1455.334,790.667 1453.667,789.333 1452.000,788.000 C1452.000,787.000 1452.000,785.1000 1452.000,784.1000 C1454.333,782.667 1456.667,780.333 1459.000,778.000 C1491.330,771.667 1523.670,765.333 1556.000,759.000 ZM435.1000,767.1000 C448.503,768.630 526.977,788.561 528.000,800.000 C527.333,801.667 526.667,803.334 526.000,805.000 C509.361,810.465 435.354,796.976 424.000,789.000 C423.641,782.563 424.509,779.410 426.000,773.000 C429.333,771.333 432.667,769.667 435.1000,767.1000 ZM1915.000,778.000 C1922.999,778.333 1931.001,778.667 1938.1000,778.1000 C1954.081,809.000 1907.107,800.116 1883.000,805.000 C1828.339,808.1000 1773.661,813.000 1718.1000,817.000 C1701.997,819.173 1668.465,826.076 1654.1000,819.1000 C1654.000,818.333 1652.1000,816.666 1651.1000,814.1000 C1652.333,813.000 1652.667,810.1000 1653.000,808.1000 C1661.295,793.009 1713.984,798.608 1736.1000,795.000 C1796.327,789.334 1855.673,783.666 1915.000,778.000 ZM1403.1000,789.000 C1408.1000,789.667 1414.000,790.333 1418.1000,790.1000 C1418.1000,794.666 1418.1000,798.334 1418.1000,801.1000 C1411.747,805.287 1400.294,808.988 1392.000,805.000 C1392.667,801.000 1393.333,796.1000 1393.1000,793.000 C1397.333,791.667 1400.667,790.333 1403.1000,789.000 ZM564.1000,796.1000 C580.037,796.771 623.976,808.213 634.000,814.1000 C633.412,820.465 632.195,821.669 630.000,824.1000 C614.923,826.540 566.263,819.362 556.000,812.000 C556.333,809.000 556.667,805.1000 556.1000,802.1000 C559.666,801.000 562.334,798.1000 564.1000,796.1000 ZM1599.000,803.1000 C1607.376,803.791 1613.092,805.132 1617.1000,807.1000 C1617.667,810.333 1617.333,812.667 1617.000,814.1000 C1612.480,823.990 1535.318,831.685 1524.000,824.1000 C1523.000,823.333 1521.1000,821.666 1521.000,819.1000 C1527.582,797.271 1577.128,812.109 1599.000,803.1000 ZM169.1000,810.000 C218.361,809.475 265.355,813.616 312.000,820.1000 C336.070,824.811 367.464,816.698 384.000,828.000 C383.667,830.1000 383.333,834.000 383.000,836.1000 C382.000,837.333 380.1000,837.667 380.000,837.1000 C365.431,844.890 252.341,834.195 225.000,830.1000 C209.349,829.171 173.683,835.625 165.000,825.1000 C164.000,825.000 162.1000,823.1000 162.000,823.000 C162.667,820.667 163.333,818.333 164.000,816.000 C165.1000,814.000 168.000,811.1000 169.1000,810.000 ZM1493.1000,814.1000 C1495.1000,815.333 1498.000,815.667 1499.1000,816.000 C1502.333,818.333 1504.667,820.667 1506.1000,823.000 C1506.667,824.333 1506.333,825.667 1506.000,827.000 C1487.490,837.267 1415.524,848.589 1388.000,841.1000 C1387.333,839.000 1386.667,835.1000 1385.1000,833.000 C1387.423,829.441 1387.780,828.790 1391.000,827.000 C1425.330,823.000 1459.670,818.1000 1493.1000,814.1000 ZM437.000,829.000 C447.057,829.442 467.258,831.625 474.1000,835.1000 C475.667,838.666 476.333,841.334 477.000,844.000 C475.334,845.666 473.667,847.334 471.1000,848.1000 C451.129,849.472 429.443,848.550 416.1000,841.000 C417.126,835.012 417.935,834.294 420.000,830.1000 C425.666,830.333 431.334,829.667 437.000,829.000 ZM510.000,834.000 C538.758,837.208 605.896,835.496 625.1000,846.000 C625.1000,847.667 625.1000,849.334 625.1000,851.000 C624.628,854.595 625.101,854.172 621.1000,856.000 C611.761,861.643 510.837,854.124 502.1000,850.000 C502.1000,847.000 502.1000,843.1000 502.1000,841.000 C505.333,838.667 507.667,836.333 510.000,834.000 ZM1983.000,850.000 C1986.1000,851.666 1991.000,853.334 1994.1000,854.1000 C1996.333,859.666 1997.667,864.334 1998.1000,869.000 C1996.404,874.495 1993.455,880.517 1987.1000,882.1000 C1970.038,891.176 1933.176,881.856 1916.1000,879.000 C1896.669,878.333 1876.331,877.667 1855.1000,876.1000 C1854.333,875.000 1852.666,872.1000 1850.1000,870.1000 C1851.869,865.870 1853.131,863.177 1856.1000,861.000 C1874.332,860.333 1891.668,859.667 1908.1000,858.1000 C1925.419,856.346 1940.034,853.614 1954.1000,851.000 C1964.332,850.667 1973.668,850.333 1983.000,850.000 ZM1779.000,851.000 C1795.416,852.256 1809.287,850.839 1819.1000,858.1000 C1820.667,862.333 1821.333,865.667 1822.000,869.000 C1818.095,875.998 1811.610,882.039 1802.1000,884.000 C1779.566,889.337 1748.510,882.981 1729.000,880.000 C1704.669,880.000 1680.331,880.000 1655.1000,880.000 C1654.667,877.667 1653.333,875.333 1651.1000,873.000 C1653.667,870.000 1655.334,866.1000 1657.000,863.1000 C1690.657,853.181 1745.418,865.217 1779.000,851.000 ZM1574.000,852.000 C1592.185,851.477 1596.525,857.607 1606.000,864.1000 C1605.711,883.278 1593.173,895.368 1574.1000,893.1000 C1541.870,891.506 1491.743,889.237 1456.1000,884.000 C1433.439,880.448 1407.868,886.632 1381.1000,882.1000 C1381.000,879.667 1379.1000,876.333 1378.1000,873.000 C1381.487,869.831 1382.272,867.104 1385.1000,864.1000 C1402.665,864.1000 1419.335,864.1000 1435.1000,864.1000 C1445.860,866.446 1457.097,862.554 1463.1000,861.000 C1491.963,854.706 1550.779,864.830 1574.000,852.000 ZM416.000,865.1000 C443.403,867.320 486.664,869.802 510.1000,875.000 C543.699,881.985 587.089,871.100 617.1000,880.000 C618.333,880.667 618.667,881.333 618.1000,881.1000 C618.350,898.277 585.171,900.414 569.000,897.1000 C537.062,893.233 475.472,899.571 447.000,905.1000 C429.146,910.032 401.859,908.666 395.1000,897.000 C395.333,894.000 394.667,890.1000 394.000,887.1000 C399.558,876.134 405.402,872.690 416.000,865.1000 ZM18.000,875.000 C43.787,874.685 63.319,878.487 83.1000,881.1000 C103.216,885.264 130.360,876.857 146.000,884.000 C146.1000,885.666 148.000,887.334 148.1000,888.1000 C148.043,894.191 147.037,897.259 143.000,898.1000 C123.669,899.1000 104.331,901.000 85.000,902.000 C60.599,905.691 41.522,910.326 13.000,909.1000 C8.667,906.000 4.333,901.1000 0.000,897.1000 C1.252,882.998 9.325,882.037 18.000,875.000 ZM205.1000,875.000 C226.720,874.752 337.685,878.125 345.1000,884.000 C346.333,884.667 346.667,885.333 347.000,886.000 C346.667,887.667 346.333,889.334 345.1000,891.000 C343.667,893.333 341.333,895.667 338.1000,897.1000 C322.335,898.667 305.665,899.333 288.1000,899.1000 C262.709,902.833 178.134,926.752 179.000,887.1000 C189.690,879.798 195.310,881.445 205.1000,875.000 ZM1377.000,902.000 C1415.329,903.1000 1453.670,906.000 1492.000,908.000 C1493.1000,910.333 1496.000,912.667 1497.1000,914.1000 C1497.116,919.797 1496.604,920.948 1492.1000,922.1000 C1487.533,927.116 1384.298,922.284 1371.1000,914.1000 C1371.1000,914.667 1371.1000,914.333 1371.1000,914.000 C1372.667,911.334 1373.333,908.666 1374.000,905.1000 C1374.1000,904.667 1376.000,903.333 1377.000,902.000 ZM1531.000,909.1000 C1544.299,912.730 1574.628,909.872 1581.000,920.000 C1581.000,921.667 1581.000,923.334 1581.000,925.000 C1579.333,926.667 1577.666,928.334 1575.1000,930.000 C1562.136,934.159 1528.768,929.616 1522.1000,920.1000 C1522.1000,920.000 1522.1000,918.1000 1522.1000,918.000 C1524.728,912.337 1526.736,912.767 1531.000,909.1000 ZM585.1000,916.1000 C593.666,917.333 601.334,917.667 609.000,918.000 C610.667,919.666 612.334,921.334 614.000,922.1000 C611.155,938.529 518.876,947.542 496.1000,942.000 C487.396,916.008 569.205,924.343 585.1000,916.1000 ZM1631.000,920.000 C1683.661,923.333 1736.339,926.667 1789.000,930.000 C1806.761,933.482 1823.409,928.024 1834.1000,936.000 C1835.667,936.1000 1836.333,938.000 1836.1000,938.1000 C1836.1000,940.333 1836.1000,941.667 1836.1000,943.000 C1834.000,945.666 1830.1000,948.334 1827.1000,950.1000 C1781.671,947.334 1735.329,943.666 1689.000,939.1000 C1664.181,935.688 1632.309,944.242 1612.1000,932.1000 C1612.1000,931.333 1612.1000,929.666 1612.1000,927.1000 C1614.400,925.400 1614.612,924.666 1617.000,922.1000 C1621.666,922.000 1626.334,920.1000 1631.000,920.000 ZM435.1000,932.1000 C449.289,933.420 467.459,931.543 477.000,937.1000 C477.084,943.303 476.475,946.021 474.1000,948.1000 C467.816,951.807 392.918,959.879 386.000,954.1000 C382.350,952.426 383.247,947.472 384.000,943.000 C396.517,936.574 424.699,939.929 435.1000,932.1000 ZM1370.1000,932.1000 C1394.664,936.1000 1418.336,941.000 1442.000,944.1000 C1442.1000,946.666 1444.000,948.333 1445.000,949.1000 C1444.667,952.333 1444.333,954.667 1443.1000,956.1000 C1441.334,959.333 1438.666,961.667 1435.1000,964.000 C1411.978,964.362 1389.745,955.728 1367.1000,949.1000 C1365.320,940.885 1365.920,940.025 1370.1000,932.1000 ZM334.1000,937.000 C338.1000,938.333 343.000,939.667 347.000,941.000 C348.510,948.560 346.179,953.644 343.000,959.000 C276.340,965.333 209.660,971.667 143.000,977.1000 C119.196,980.027 76.055,988.950 58.1000,977.000 C61.021,947.390 93.514,959.314 121.000,954.1000 C171.328,951.000 221.672,946.1000 272.000,943.000 C292.993,939.683 318.600,945.502 334.1000,937.000 ZM595.000,953.000 C601.923,952.859 604.573,953.652 606.1000,958.000 C608.545,963.851 603.439,968.096 598.000,970.000 C590.216,972.479 583.540,970.271 578.1000,966.1000 C578.1000,966.667 578.1000,966.333 578.1000,965.1000 C580.1000,962.334 583.000,958.666 585.000,954.1000 C588.333,954.333 591.667,953.667 595.000,953.000 ZM1475.1000,954.000 C1498.192,953.533 1566.565,961.568 1575.1000,971.1000 C1576.095,978.598 1575.083,982.101 1572.1000,986.000 C1567.804,987.911 1560.632,993.427 1553.000,992.000 C1536.335,986.334 1519.665,980.666 1503.000,975.000 C1491.295,971.747 1481.165,973.099 1471.1000,967.1000 C1471.1000,965.334 1471.1000,962.666 1471.1000,960.000 C1473.333,958.000 1474.667,955.1000 1475.1000,954.000 ZM1359.000,964.000 C1377.686,964.097 1491.433,1001.391 1497.1000,1010.000 C1497.286,1015.262 1496.191,1015.761 1493.1000,1018.1000 C1478.115,1023.158 1368.198,987.380 1352.1000,977.1000 C1352.333,975.667 1351.667,973.333 1350.1000,971.000 C1353.666,968.667 1356.334,966.333 1359.000,964.000 ZM534.000,965.1000 C540.663,966.158 543.055,967.607 546.1000,970.000 C547.333,970.1000 547.667,972.000 548.000,972.1000 C547.667,974.666 547.333,976.333 546.1000,977.1000 C532.184,986.332 448.678,1004.384 427.1000,1000.1000 C427.000,1000.000 425.1000,998.1000 424.1000,998.000 C425.667,995.000 426.333,991.1000 427.000,988.1000 C456.567,975.907 508.696,982.335 534.000,965.1000 ZM614.1000,977.1000 C620.766,978.611 620.628,979.624 624.000,982.000 C624.667,982.1000 625.333,984.000 625.1000,984.1000 C622.977,998.956 589.082,1006.831 574.000,1007.1000 C569.713,1005.784 567.439,1004.109 564.1000,999.1000 C568.640,979.077 600.895,985.765 614.1000,977.1000 ZM1603.000,979.1000 C1652.571,979.099 1692.295,998.241 1737.1000,1004.000 C1766.690,1007.615 1806.070,1004.889 1827.1000,1020.000 C1829.333,1024.666 1830.667,1029.334 1832.000,1033.1000 C1827.667,1037.333 1823.333,1040.667 1818.1000,1044.000 C1802.012,1048.642 1784.815,1039.806 1772.1000,1035.1000 C1732.755,1023.035 1687.092,1012.000 1647.1000,1005.000 C1630.525,1001.871 1610.803,1002.088 1597.1000,994.000 C1597.667,991.667 1597.333,989.333 1596.1000,987.000 C1598.1000,984.667 1601.000,982.333 1603.000,979.1000 ZM384.1000,994.1000 C389.333,995.667 393.667,996.333 398.000,996.1000 C398.000,999.1000 398.000,1003.000 398.000,1005.1000 C388.128,1019.978 355.391,1015.277 337.000,1021.000 C299.543,1032.656 255.190,1036.861 216.1000,1046.1000 C200.335,1049.666 183.665,1052.334 166.1000,1055.000 C152.554,1059.658 121.434,1070.901 105.1000,1062.1000 C105.667,1061.333 105.333,1059.666 104.1000,1057.1000 C123.973,1042.758 154.666,1043.498 179.000,1038.000 C224.022,1027.828 275.509,1016.720 319.000,1007.1000 C340.695,1003.650 366.133,1003.948 384.1000,994.1000 ZM1338.1000,996.1000 C1367.617,996.352 1397.178,1016.147 1417.1000,1027.000 C1426.332,1029.666 1434.667,1032.334 1442.1000,1034.1000 C1480.432,1049.617 1520.104,1066.885 1560.000,1079.1000 C1581.706,1087.135 1627.498,1092.784 1628.1000,1118.1000 C1625.526,1127.252 1621.182,1128.831 1614.1000,1134.000 C1576.768,1134.826 1546.054,1109.295 1521.000,1094.000 C1507.882,1085.992 1494.126,1083.564 1479.1000,1077.000 C1448.466,1062.347 1412.382,1042.119 1378.1000,1029.1000 C1361.913,1023.796 1346.207,1018.763 1332.1000,1009.000 C1333.126,1003.012 1333.935,1002.294 1335.1000,999.000 C1336.1000,998.333 1338.000,997.667 1338.1000,996.1000 ZM524.000,999.1000 C530.154,999.706 536.595,999.736 539.1000,1001.1000 C540.667,1001.1000 541.333,1001.1000 542.000,1001.1000 C541.667,1006.333 541.333,1010.667 541.000,1015.000 C527.016,1022.567 488.487,1039.403 470.000,1032.000 C468.334,1031.000 466.667,1029.1000 465.000,1028.1000 C465.000,1026.334 465.000,1023.666 465.000,1021.000 C481.593,1008.330 509.069,1010.109 524.000,999.1000 ZM614.1000,1007.1000 C623.096,1007.659 628.619,1008.295 632.1000,1011.000 C632.667,1013.1000 632.333,1017.000 632.000,1020.000 C603.171,1034.654 568.322,1041.692 535.000,1051.1000 C487.338,1068.665 439.662,1085.335 391.1000,1101.1000 C374.952,1107.424 332.424,1134.237 309.000,1124.1000 C299.819,1121.530 298.865,1114.210 302.000,1103.1000 C320.950,1091.466 346.238,1084.318 370.1000,1077.000 C376.333,1076.667 381.667,1076.333 387.000,1075.1000 C436.338,1059.758 490.701,1045.625 538.1000,1030.1000 C559.375,1024.831 600.066,1019.432 614.1000,1007.1000 ZM1527.000,1020.000 C1548.492,1019.304 1618.501,1042.928 1619.1000,1057.1000 C1618.333,1059.333 1616.666,1060.667 1614.1000,1062.000 C1595.866,1062.454 1529.301,1039.575 1522.1000,1028.1000 C1523.714,1023.738 1524.809,1023.239 1527.000,1020.000 ZM1324.1000,1022.1000 C1339.063,1026.719 1361.333,1033.735 1367.1000,1045.000 C1366.333,1048.1000 1364.666,1053.000 1363.000,1056.1000 C1362.333,1056.1000 1361.667,1056.1000 1360.1000,1056.1000 C1346.304,1061.259 1321.414,1044.804 1314.1000,1035.1000 C1315.1000,1033.000 1317.000,1029.1000 1317.1000,1027.000 C1320.333,1025.667 1322.667,1024.333 1324.1000,1022.1000 ZM413.1000,1027.000 C416.1000,1027.333 420.000,1027.667 423.000,1028.000 C424.1000,1029.333 427.000,1030.667 429.000,1032.000 C428.667,1034.333 428.333,1036.667 427.1000,1039.000 C420.415,1052.461 392.443,1050.013 376.000,1055.000 C339.752,1065.994 298.160,1074.256 264.000,1088.000 C249.837,1093.698 227.686,1099.063 219.000,1086.1000 C219.333,1085.333 219.667,1083.666 219.1000,1081.1000 C217.837,1065.164 247.600,1067.931 262.1000,1063.1000 C301.855,1054.082 345.061,1046.385 381.1000,1034.1000 C393.513,1031.452 404.519,1032.051 413.1000,1027.000 ZM635.000,1038.000 C637.1000,1038.667 641.000,1039.333 643.1000,1039.1000 C648.229,1058.099 626.717,1057.875 614.1000,1062.1000 C598.417,1070.254 513.305,1113.115 499.000,1107.1000 C494.628,1106.208 493.236,1105.115 492.000,1100.000 C513.860,1074.209 600.142,1056.883 635.000,1038.000 ZM1310.1000,1056.000 C1321.815,1056.193 1325.597,1059.819 1331.1000,1063.1000 C1331.1000,1065.333 1331.1000,1066.667 1331.1000,1067.1000 C1328.000,1070.666 1323.1000,1073.334 1320.000,1075.1000 C1315.000,1073.000 1309.999,1069.1000 1305.000,1067.000 C1305.256,1059.231 1306.648,1059.264 1310.1000,1056.000 ZM1392.000,1056.1000 C1415.908,1056.751 1443.245,1074.459 1453.1000,1089.000 C1452.897,1094.422 1451.441,1096.009 1446.1000,1097.1000 C1433.418,1105.085 1393.940,1078.610 1384.000,1072.000 C1384.106,1066.234 1385.127,1063.502 1386.1000,1060.000 C1388.667,1059.000 1390.334,1057.1000 1392.000,1056.1000 ZM1643.1000,1057.1000 C1668.646,1057.483 1689.371,1068.701 1707.1000,1075.1000 C1732.095,1085.441 1756.798,1091.162 1779.1000,1098.1000 C1800.097,1105.789 1822.859,1107.371 1834.1000,1122.000 C1833.667,1124.666 1832.333,1127.334 1830.1000,1130.000 C1811.214,1135.722 1793.227,1124.498 1777.1000,1118.1000 C1735.806,1103.765 1674.780,1093.314 1639.1000,1069.1000 C1640.333,1067.000 1640.667,1063.1000 1640.1000,1061.000 C1641.1000,1060.000 1643.000,1058.1000 1643.1000,1057.1000 ZM648.000,1064.1000 C650.1000,1065.333 654.000,1065.667 657.000,1066.000 C657.667,1066.667 658.333,1067.333 659.000,1067.1000 C659.1000,1070.333 661.000,1072.667 661.1000,1074.1000 C652.577,1084.311 607.944,1112.022 592.1000,1113.000 C590.000,1110.667 586.1000,1108.333 584.000,1106.000 C584.862,1098.679 586.753,1096.343 589.1000,1091.1000 C608.237,1086.181 634.533,1076.983 648.000,1064.1000 ZM1277.1000,1079.1000 C1281.1000,1079.1000 1286.000,1079.1000 1289.1000,1079.1000 C1313.664,1098.998 1337.336,1118.002 1360.1000,1136.1000 C1360.966,1142.585 1360.500,1145.750 1356.1000,1147.1000 C1343.005,1156.325 1280.596,1103.351 1270.000,1091.1000 C1270.000,1090.667 1270.000,1089.333 1270.000,1088.000 C1272.666,1085.334 1275.334,1082.666 1277.1000,1079.1000 ZM1363.000,1080.1000 C1382.003,1087.397 1442.695,1122.690 1450.1000,1137.1000 C1449.667,1140.333 1448.333,1142.667 1446.1000,1145.000 C1444.334,1145.333 1441.666,1145.667 1438.1000,1146.000 C1427.147,1143.465 1361.429,1102.536 1353.1000,1094.000 C1354.333,1091.667 1354.667,1089.333 1355.000,1086.1000 C1355.667,1085.667 1356.333,1084.333 1356.1000,1083.000 C1358.1000,1082.333 1361.000,1081.667 1363.000,1080.1000 ZM670.000,1089.000 C673.666,1089.1000 677.334,1091.000 681.000,1091.1000 C680.667,1094.1000 680.333,1098.000 679.1000,1101.000 C675.541,1107.974 598.877,1160.891 588.1000,1164.1000 C582.441,1167.729 578.887,1165.645 573.000,1164.000 C573.000,1161.667 573.000,1159.333 573.000,1157.000 C581.627,1140.303 650.977,1103.971 670.000,1089.000 ZM1485.1000,1106.000 C1508.081,1110.552 1523.114,1125.599 1540.1000,1132.1000 C1574.854,1147.008 1625.428,1164.757 1653.000,1186.000 C1653.244,1191.276 1653.101,1195.353 1650.1000,1198.000 C1641.149,1213.588 1619.585,1200.824 1608.1000,1193.1000 C1567.814,1167.448 1518.995,1148.405 1477.000,1120.1000 C1476.885,1113.271 1478.153,1112.028 1481.000,1107.1000 C1482.667,1107.333 1484.333,1106.667 1485.1000,1106.000 ZM1241.000,1109.1000 C1244.333,1110.667 1247.667,1111.333 1251.000,1112.000 C1262.748,1135.082 1318.496,1178.668 1339.1000,1197.000 C1352.358,1207.536 1378.547,1216.693 1381.000,1236.000 C1375.806,1249.221 1362.467,1268.886 1342.1000,1256.1000 C1324.846,1245.916 1314.758,1219.854 1302.000,1203.000 C1278.336,1177.003 1254.664,1150.997 1230.1000,1124.1000 C1230.778,1117.584 1231.677,1114.766 1235.1000,1112.000 C1237.667,1111.333 1239.334,1110.667 1241.000,1109.1000 ZM449.000,1111.000 C455.663,1110.745 462.048,1111.076 466.000,1113.000 C466.000,1113.333 466.000,1113.667 466.000,1113.1000 C465.000,1117.333 463.1000,1120.667 463.000,1124.000 C432.336,1135.666 401.664,1147.334 370.1000,1158.1000 C365.273,1156.863 362.915,1156.237 362.000,1148.1000 C382.552,1127.453 424.190,1128.455 449.000,1111.000 ZM689.000,1111.000 C691.333,1111.333 693.667,1111.667 696.000,1112.000 C698.333,1113.1000 700.667,1116.000 703.000,1118.000 C703.000,1119.1000 703.000,1122.000 703.000,1124.000 C653.718,1161.291 609.956,1203.858 563.1000,1243.1000 C549.870,1256.342 530.689,1262.586 516.000,1245.1000 C515.667,1242.000 515.333,1237.1000 514.1000,1233.1000 C567.449,1187.630 634.456,1154.864 689.000,1111.000 ZM262.1000,1118.000 C268.688,1120.249 271.851,1122.066 273.000,1129.000 C242.737,1153.059 192.337,1159.435 151.1000,1173.000 C125.669,1183.999 99.331,1195.001 72.1000,1205.1000 C54.008,1213.069 18.056,1211.308 29.000,1185.000 C40.700,1158.444 75.936,1168.033 105.1000,1158.1000 C146.825,1146.734 187.782,1137.991 226.1000,1125.1000 C238.999,1123.334 251.001,1120.666 262.1000,1118.000 ZM548.000,1118.000 C550.1000,1118.333 554.000,1118.667 556.1000,1118.1000 C559.886,1121.569 560.450,1122.809 560.1000,1128.000 C550.519,1138.005 484.061,1179.432 467.1000,1180.000 C462.744,1177.209 461.579,1174.213 458.000,1169.1000 C459.333,1166.000 460.667,1161.1000 462.000,1158.000 C490.664,1144.668 519.336,1131.332 548.000,1118.000 ZM1660.000,1129.000 C1698.383,1136.140 1731.463,1160.352 1765.1000,1173.000 C1803.485,1186.728 1839.378,1187.935 1865.000,1214.000 C1863.966,1221.454 1863.867,1226.226 1858.1000,1230.000 C1850.501,1247.157 1820.045,1239.405 1807.000,1231.000 C1793.001,1221.334 1778.999,1211.666 1764.1000,1202.000 C1726.670,1183.335 1688.329,1164.665 1650.000,1146.000 C1650.333,1143.000 1650.667,1139.1000 1650.1000,1136.1000 C1653.275,1132.163 1655.808,1131.752 1660.000,1129.000 ZM1212.000,1130.1000 C1231.835,1139.773 1268.272,1188.303 1280.1000,1206.1000 C1279.078,1214.778 1274.546,1216.983 1267.1000,1220.000 C1255.167,1212.919 1205.214,1154.063 1202.000,1139.000 C1203.333,1137.000 1204.667,1134.1000 1205.1000,1132.1000 C1207.1000,1132.333 1210.000,1131.667 1212.000,1130.1000 ZM720.000,1142.1000 C730.068,1143.013 731.045,1146.208 734.000,1152.1000 C715.725,1177.441 681.790,1210.169 657.000,1227.1000 C649.596,1228.280 645.942,1227.454 642.000,1225.000 C641.667,1224.000 641.333,1222.1000 641.000,1221.1000 C647.268,1204.072 703.385,1155.612 720.000,1142.1000 ZM1377.1000,1151.000 C1393.137,1153.001 1433.664,1187.463 1439.1000,1198.1000 C1439.1000,1199.1000 1439.1000,1201.000 1439.1000,1202.000 C1437.334,1204.666 1434.666,1207.334 1431.1000,1209.1000 C1428.667,1209.667 1425.333,1209.333 1421.1000,1209.000 C1410.906,1203.866 1370.543,1170.011 1368.1000,1157.000 C1371.1000,1155.000 1375.000,1152.1000 1377.1000,1151.000 ZM1474.1000,1151.000 C1496.098,1151.473 1516.123,1171.696 1531.000,1181.000 C1569.349,1204.983 1609.347,1225.999 1646.1000,1249.000 C1664.374,1259.613 1688.626,1265.616 1700.000,1282.000 C1699.698,1287.125 1699.383,1288.896 1696.000,1290.1000 C1684.210,1296.319 1648.269,1272.595 1637.1000,1266.000 C1598.337,1242.002 1558.663,1217.998 1518.1000,1193.1000 C1501.267,1183.621 1476.441,1176.523 1467.000,1158.000 C1469.666,1155.667 1472.334,1153.333 1474.1000,1151.000 ZM1177.1000,1152.000 C1181.666,1152.667 1185.334,1153.333 1188.1000,1153.1000 C1197.919,1171.817 1212.424,1185.743 1219.1000,1203.1000 C1216.587,1208.068 1215.274,1211.585 1209.1000,1214.000 C1202.161,1216.503 1195.099,1213.358 1191.1000,1208.000 C1187.849,1198.605 1170.114,1163.653 1172.000,1158.000 C1173.1000,1156.000 1176.000,1153.1000 1177.1000,1152.000 ZM330.1000,1157.000 C337.771,1157.776 338.024,1159.919 341.1000,1163.000 C341.1000,1163.333 341.1000,1163.667 341.1000,1164.000 C341.667,1165.333 341.333,1166.667 341.000,1168.000 C334.831,1178.886 313.228,1181.941 301.000,1186.1000 C266.161,1201.415 227.230,1219.429 191.1000,1232.000 C179.258,1236.547 154.169,1252.221 140.000,1247.000 C138.334,1246.333 136.667,1245.667 135.000,1244.1000 C133.780,1224.360 162.950,1222.689 179.000,1215.1000 C229.662,1196.335 280.338,1176.665 330.1000,1157.000 ZM1148.000,1168.000 C1148.1000,1168.000 1150.000,1168.000 1151.000,1168.000 C1164.874,1177.521 1186.974,1241.367 1194.1000,1260.000 C1198.687,1268.559 1204.650,1280.412 1201.000,1288.1000 C1200.333,1290.333 1199.667,1291.667 1198.1000,1293.000 C1196.000,1293.667 1192.1000,1294.333 1190.000,1294.1000 C1175.115,1286.983 1154.944,1223.868 1147.000,1204.1000 C1143.674,1197.101 1136.247,1181.992 1138.1000,1174.000 C1141.1000,1172.000 1145.000,1169.1000 1148.000,1168.000 ZM745.000,1169.1000 C748.666,1170.333 752.334,1170.667 756.000,1170.1000 C756.333,1172.1000 756.667,1175.000 757.000,1176.1000 C755.235,1182.282 753.746,1184.275 750.1000,1187.1000 C745.738,1190.347 740.834,1195.211 735.1000,1192.000 C735.000,1191.333 733.1000,1190.667 732.1000,1190.000 C733.046,1177.674 738.718,1175.662 745.000,1169.1000 ZM779.000,1175.000 C781.666,1175.333 784.334,1175.667 786.1000,1175.1000 C801.309,1183.472 769.653,1223.032 757.000,1223.1000 C751.834,1221.340 750.530,1219.238 747.1000,1214.000 C755.491,1198.277 767.019,1186.272 779.000,1175.000 ZM544.000,1175.1000 C550.639,1176.875 552.592,1178.928 555.000,1183.1000 C554.333,1184.667 553.667,1185.333 553.000,1186.000 C547.571,1196.884 518.805,1215.550 505.000,1216.1000 C503.000,1215.333 500.1000,1213.666 499.000,1211.1000 C499.000,1210.334 499.000,1208.666 499.000,1206.1000 C510.498,1192.395 530.492,1188.494 544.000,1175.1000 ZM430.000,1179.000 C435.262,1179.714 435.761,1180.809 438.1000,1182.1000 C438.667,1185.666 438.333,1188.334 438.000,1191.000 C432.210,1202.158 397.123,1214.880 384.000,1220.1000 C344.332,1239.499 305.960,1264.089 269.1000,1287.000 C259.549,1293.658 238.026,1309.752 219.1000,1302.1000 C218.334,1302.000 216.667,1300.1000 215.000,1300.000 C213.551,1294.584 213.697,1292.258 214.000,1284.1000 C246.369,1262.382 287.431,1246.055 327.000,1231.000 C345.332,1221.001 363.669,1210.999 381.1000,1200.1000 C397.998,1193.667 414.002,1186.333 430.000,1179.000 ZM1105.000,1182.1000 C1112.159,1182.760 1115.196,1183.626 1119.000,1186.000 C1135.998,1241.994 1153.002,1298.006 1169.1000,1353.1000 C1182.291,1385.858 1201.673,1413.940 1198.000,1453.000 C1190.522,1456.384 1183.100,1463.921 1173.000,1459.000 C1153.686,1449.227 1157.513,1425.462 1151.000,1402.000 C1146.634,1386.272 1144.981,1366.721 1141.1000,1351.000 C1132.668,1318.337 1123.332,1285.663 1113.1000,1253.000 C1110.496,1240.450 1096.892,1199.782 1101.000,1188.1000 C1102.333,1187.000 1103.667,1184.1000 1105.000,1182.1000 ZM810.000,1187.1000 C812.333,1188.333 814.667,1188.667 817.000,1188.1000 C818.333,1189.667 819.667,1190.333 821.000,1191.000 C821.333,1193.333 821.667,1195.667 822.000,1198.000 C803.580,1232.293 776.999,1263.720 756.000,1295.1000 C732.348,1332.360 714.727,1370.537 692.000,1407.1000 C685.473,1418.759 655.648,1473.380 638.000,1454.1000 C632.337,1453.272 632.767,1451.264 630.000,1447.000 C632.823,1414.412 665.766,1385.764 684.000,1366.000 C713.664,1323.671 743.336,1281.329 772.1000,1238.1000 C785.028,1221.557 792.534,1199.930 810.000,1187.1000 ZM1072.000,1193.1000 C1075.333,1194.333 1078.667,1194.667 1081.1000,1194.1000 C1093.473,1202.281 1095.187,1232.475 1088.1000,1243.000 C1080.978,1243.331 1078.245,1243.749 1072.1000,1240.1000 C1070.562,1231.654 1062.136,1214.097 1066.1000,1202.000 C1068.666,1199.334 1070.334,1196.666 1072.000,1193.1000 ZM844.1000,1199.1000 C847.666,1200.333 850.334,1200.667 853.000,1200.1000 C854.333,1201.667 855.667,1202.333 857.000,1203.000 C855.434,1221.642 801.077,1318.834 789.000,1332.000 C786.000,1332.000 782.1000,1332.000 779.1000,1332.000 C778.333,1330.000 776.666,1327.1000 775.000,1325.1000 C778.560,1303.967 830.519,1213.787 844.1000,1199.1000 ZM880.1000,1205.1000 C887.166,1206.625 887.632,1208.063 890.1000,1210.1000 C886.238,1228.931 879.340,1259.830 869.1000,1273.1000 C864.490,1275.112 862.271,1277.905 857.1000,1277.000 C851.561,1275.885 850.798,1273.357 847.1000,1268.1000 C848.276,1255.491 872.270,1213.058 880.1000,1205.1000 ZM914.000,1209.000 C919.533,1208.862 922.880,1209.459 926.000,1210.1000 C929.295,1238.105 912.148,1285.064 905.1000,1312.1000 C903.000,1314.666 899.1000,1316.333 897.000,1317.1000 C894.000,1317.000 890.1000,1315.1000 887.1000,1315.000 C884.814,1298.707 903.992,1221.608 911.1000,1209.1000 C912.667,1209.667 913.333,1209.333 914.000,1209.000 ZM958.000,1209.000 C974.580,1211.596 969.446,1234.167 965.1000,1250.1000 C960.778,1276.509 961.442,1309.799 958.1000,1336.1000 C957.362,1355.242 964.520,1378.005 957.000,1392.1000 C952.212,1402.547 937.547,1407.985 922.1000,1404.1000 C919.334,1400.667 915.666,1396.333 911.1000,1391.1000 C912.003,1368.644 921.807,1346.995 928.000,1327.000 C934.333,1290.337 940.667,1253.663 947.000,1216.1000 C950.666,1214.334 954.334,1211.666 958.000,1209.000 ZM1004.000,1209.000 C1008.127,1210.368 1009.926,1211.643 1012.000,1215.000 C1018.518,1224.330 1013.800,1299.102 1011.000,1310.000 C1006.667,1311.667 1002.333,1313.334 997.1000,1315.000 C988.698,1305.954 987.224,1227.025 996.000,1213.000 C998.666,1211.667 1001.334,1210.333 1004.000,1209.000 ZM1040.1000,1210.1000 C1043.333,1211.333 1045.667,1211.667 1047.1000,1211.1000 C1049.1000,1213.1000 1052.000,1216.000 1054.000,1217.1000 C1054.615,1227.566 1054.238,1232.095 1047.1000,1234.1000 C1045.334,1234.1000 1042.666,1234.1000 1040.000,1234.1000 C1038.667,1234.333 1037.333,1233.667 1036.000,1232.1000 C1035.000,1227.667 1033.1000,1222.333 1033.000,1216.1000 C1035.666,1215.000 1038.334,1212.1000 1040.1000,1210.1000 ZM709.000,1215.1000 C711.333,1216.333 713.667,1216.667 715.1000,1216.1000 C717.333,1217.667 718.667,1218.333 720.000,1219.000 C719.448,1229.353 655.693,1304.520 648.000,1306.1000 C642.047,1308.919 637.831,1304.664 635.000,1302.1000 C635.000,1301.000 635.000,1298.1000 635.000,1296.1000 C662.798,1273.961 681.346,1239.784 709.000,1215.1000 ZM1461.1000,1223.1000 C1486.768,1224.268 1507.338,1252.164 1521.1000,1265.000 C1539.665,1277.999 1557.335,1291.001 1574.1000,1304.000 C1585.275,1312.634 1596.417,1326.318 1607.1000,1333.000 C1626.634,1343.751 1646.972,1359.515 1658.1000,1376.1000 C1658.247,1386.447 1654.345,1386.639 1649.000,1390.1000 C1625.610,1391.085 1608.683,1371.007 1596.000,1358.1000 C1574.513,1338.658 1550.137,1321.701 1527.000,1302.1000 C1513.281,1291.911 1501.043,1276.586 1486.1000,1266.000 C1474.255,1256.393 1458.492,1249.766 1453.000,1232.1000 C1455.1000,1230.000 1459.000,1226.1000 1461.1000,1223.1000 ZM463.1000,1226.1000 C467.666,1227.333 471.334,1227.667 474.1000,1227.1000 C475.333,1229.1000 475.667,1232.000 476.000,1233.1000 C475.333,1235.1000 474.667,1238.000 474.000,1239.1000 C416.006,1280.329 357.994,1320.671 300.000,1361.000 C291.604,1361.276 289.317,1360.041 284.1000,1356.1000 C284.1000,1356.667 284.1000,1356.333 284.1000,1356.000 C285.333,1352.667 285.667,1349.333 286.000,1345.1000 C345.327,1306.337 404.673,1266.663 463.1000,1226.1000 ZM1294.000,1231.000 C1295.1000,1231.000 1298.000,1231.000 1299.1000,1231.000 C1309.298,1242.258 1325.195,1251.894 1327.000,1270.000 C1326.000,1271.666 1324.1000,1273.334 1323.1000,1274.1000 C1321.334,1275.333 1318.666,1275.667 1316.000,1276.000 C1303.608,1269.555 1295.815,1254.968 1288.000,1243.1000 C1287.992,1237.672 1288.857,1236.418 1291.000,1232.1000 C1291.1000,1232.333 1293.000,1231.667 1294.000,1231.000 ZM1227.1000,1232.1000 C1230.333,1233.333 1232.667,1233.667 1234.1000,1233.1000 C1250.430,1246.019 1269.093,1280.984 1280.1000,1298.000 C1280.635,1304.094 1279.321,1308.300 1277.000,1311.1000 C1272.022,1314.008 1263.857,1319.287 1256.1000,1316.000 C1252.403,1313.797 1220.376,1249.756 1219.000,1244.1000 C1216.988,1238.044 1224.534,1235.187 1227.1000,1232.1000 ZM625.1000,1237.000 C627.667,1237.333 629.334,1237.667 631.000,1237.1000 C633.666,1240.333 636.334,1242.667 639.000,1244.1000 C634.330,1260.747 591.066,1294.316 577.000,1304.000 C571.240,1304.178 567.270,1303.612 563.1000,1301.1000 C563.333,1300.000 562.667,1297.1000 562.000,1295.1000 C583.233,1275.910 602.768,1255.369 625.1000,1237.000 ZM732.000,1238.1000 C735.333,1239.667 738.667,1240.333 742.000,1240.1000 C742.667,1240.1000 743.333,1240.1000 743.1000,1240.1000 C744.853,1263.610 719.486,1294.653 702.000,1302.1000 C698.334,1301.000 694.666,1298.1000 691.000,1296.1000 C691.329,1274.700 717.402,1248.755 732.000,1238.1000 ZM1052.1000,1261.1000 C1055.666,1263.666 1058.334,1265.333 1061.000,1266.1000 C1065.158,1287.774 1075.881,1360.196 1061.000,1368.000 C1057.667,1365.334 1054.333,1362.666 1051.000,1359.1000 C1050.703,1327.047 1038.321,1301.274 1044.000,1268.1000 C1046.1000,1266.667 1050.000,1264.333 1052.1000,1261.1000 ZM1088.1000,1261.1000 C1090.1000,1262.333 1093.000,1262.667 1094.1000,1262.1000 C1107.087,1268.511 1118.170,1313.238 1108.000,1327.000 C1104.334,1327.1000 1100.666,1329.000 1097.000,1329.1000 C1092.366,1327.689 1090.100,1325.864 1087.1000,1321.000 C1082.516,1308.541 1078.261,1284.705 1080.1000,1270.000 C1083.666,1267.334 1086.334,1264.666 1088.1000,1261.1000 ZM474.1000,1277.1000 C478.333,1279.667 481.667,1281.333 485.000,1283.000 C485.000,1284.667 485.000,1286.334 485.000,1288.000 C475.281,1306.582 449.589,1322.739 433.000,1334.1000 C420.335,1348.332 407.665,1361.668 395.000,1374.1000 C386.956,1382.162 372.377,1392.051 359.000,1390.000 C355.896,1388.013 352.907,1386.340 351.000,1383.000 C342.331,1366.456 364.951,1355.319 373.1000,1349.000 C407.663,1325.336 441.337,1301.664 474.1000,1277.1000 ZM1409.000,1278.1000 C1410.667,1279.333 1412.334,1279.667 1413.1000,1279.1000 C1425.999,1290.999 1438.001,1302.001 1449.1000,1312.1000 C1467.971,1326.025 1491.852,1338.133 1506.000,1355.000 C1510.157,1359.956 1512.589,1364.137 1513.000,1373.000 C1509.940,1380.334 1506.407,1382.340 1500.1000,1386.1000 C1462.521,1387.060 1427.074,1315.951 1398.000,1294.1000 C1398.667,1291.000 1399.333,1286.1000 1399.1000,1283.000 C1402.1000,1281.667 1406.000,1280.333 1409.000,1278.1000 ZM1341.1000,1293.000 C1361.404,1295.664 1370.512,1319.522 1381.000,1332.000 C1409.182,1365.528 1442.567,1395.701 1468.1000,1430.1000 C1469.217,1437.290 1468.803,1440.628 1464.1000,1442.1000 C1462.334,1443.1000 1459.666,1445.000 1456.1000,1446.000 C1430.425,1434.630 1386.335,1363.425 1364.1000,1339.000 C1355.965,1328.656 1337.460,1316.734 1334.1000,1300.1000 C1337.333,1298.334 1339.667,1295.666 1341.1000,1293.000 ZM843.000,1300.000 C849.239,1300.574 851.034,1302.474 854.1000,1305.000 C854.695,1323.492 832.502,1384.281 822.000,1393.1000 C818.334,1394.333 814.666,1394.667 811.000,1395.000 C807.667,1392.334 804.333,1389.666 800.1000,1386.1000 C798.103,1379.674 837.439,1306.040 843.000,1300.000 ZM1205.1000,1317.000 C1207.1000,1317.000 1210.000,1317.000 1212.000,1317.000 C1218.515,1326.156 1246.051,1385.275 1241.1000,1396.1000 C1240.334,1398.1000 1238.667,1401.000 1237.000,1402.1000 C1228.097,1402.935 1227.665,1400.635 1223.000,1396.1000 C1221.539,1377.718 1193.635,1339.849 1198.1000,1323.1000 C1201.333,1321.667 1203.667,1319.333 1205.1000,1317.000 ZM524.1000,1322.000 C532.640,1321.692 536.916,1322.464 541.000,1324.1000 C541.333,1326.333 541.667,1327.667 542.000,1328.1000 C538.673,1350.520 508.652,1364.176 495.000,1376.1000 C471.120,1399.432 449.486,1426.416 424.000,1447.000 C413.001,1456.332 401.999,1465.668 391.000,1475.000 C382.601,1484.194 348.305,1521.238 334.1000,1517.1000 C329.488,1516.608 328.224,1514.387 325.000,1510.1000 C328.424,1490.333 371.104,1458.532 387.000,1447.000 C432.995,1405.337 479.005,1363.662 524.1000,1322.000 ZM614.1000,1322.1000 C619.685,1324.028 621.946,1325.319 624.000,1328.1000 C624.667,1330.667 625.333,1332.333 625.1000,1334.000 C582.671,1384.995 539.329,1436.005 495.1000,1487.000 C486.554,1499.166 458.071,1540.716 441.1000,1542.000 C440.000,1540.667 437.1000,1539.333 435.1000,1538.000 C435.667,1536.000 435.333,1533.1000 434.1000,1532.000 C494.800,1462.173 551.779,1389.445 614.1000,1322.1000 ZM663.000,1325.1000 C668.533,1325.862 671.880,1326.459 675.000,1328.000 C675.333,1330.666 675.667,1333.334 675.1000,1335.1000 C664.669,1358.580 643.492,1374.392 631.000,1395.000 C613.285,1424.224 587.179,1467.476 562.000,1488.1000 C558.000,1488.667 553.1000,1488.333 549.1000,1487.1000 C545.161,1486.076 543.242,1483.848 544.000,1478.1000 C542.360,1461.600 567.610,1445.434 577.000,1434.000 C605.648,1399.116 630.287,1356.958 663.000,1325.1000 ZM1001.1000,1328.000 C1005.1000,1328.667 1010.000,1329.333 1014.000,1329.1000 C1014.333,1330.1000 1014.667,1332.000 1015.000,1333.000 C1014.000,1355.998 1012.1000,1379.002 1012.000,1402.000 C1009.667,1404.333 1007.333,1406.667 1004.1000,1408.1000 C998.098,1409.185 995.671,1408.296 991.1000,1406.000 C991.389,1385.405 987.793,1346.424 997.000,1329.1000 C998.667,1329.333 1000.333,1328.667 1001.1000,1328.000 ZM1284.1000,1330.1000 C1288.666,1331.1000 1292.334,1333.000 1295.1000,1334.000 C1302.333,1344.666 1308.667,1355.334 1314.1000,1366.000 C1331.746,1397.220 1350.040,1423.732 1367.1000,1453.000 C1377.933,1469.188 1399.587,1482.058 1392.1000,1509.000 C1388.458,1512.400 1380.662,1517.928 1371.1000,1514.000 C1352.778,1504.424 1348.419,1479.554 1338.1000,1459.1000 C1320.599,1421.798 1297.027,1380.820 1274.1000,1342.1000 C1276.666,1339.667 1278.334,1336.333 1280.000,1333.000 C1281.667,1332.333 1283.334,1331.667 1284.1000,1330.1000 ZM886.1000,1339.1000 C891.370,1340.135 892.658,1340.411 894.1000,1341.1000 C895.667,1341.1000 896.333,1341.1000 897.000,1341.1000 C897.288,1359.819 891.735,1378.337 885.000,1390.1000 C880.722,1392.510 877.070,1395.069 872.000,1392.1000 C871.000,1392.333 869.1000,1391.667 868.1000,1390.1000 C870.982,1372.257 875.397,1349.621 886.1000,1339.1000 ZM760.000,1355.000 C763.333,1355.333 766.667,1355.667 770.000,1356.000 C770.667,1357.667 771.333,1359.334 771.1000,1361.000 C769.042,1376.249 731.850,1441.447 718.1000,1442.1000 C717.000,1441.333 714.1000,1439.666 713.000,1437.1000 C713.000,1437.667 713.000,1437.333 713.000,1436.1000 C713.948,1418.319 748.329,1366.567 760.000,1355.000 ZM1105.1000,1357.1000 C1107.1000,1358.333 1110.000,1358.667 1112.000,1358.1000 C1127.040,1366.802 1121.880,1397.880 1126.1000,1415.1000 C1136.950,1451.209 1143.100,1486.500 1152.1000,1522.1000 C1149.667,1526.333 1146.333,1529.667 1142.1000,1532.1000 C1133.962,1536.174 1128.911,1533.581 1123.000,1528.1000 C1116.922,1495.166 1117.338,1456.893 1109.1000,1425.1000 C1105.686,1407.837 1094.391,1383.496 1098.1000,1362.000 C1101.333,1360.667 1103.667,1359.333 1105.1000,1357.1000 ZM1065.1000,1386.1000 C1069.333,1389.333 1072.667,1391.667 1076.000,1393.1000 C1081.999,1446.328 1088.001,1498.672 1094.000,1550.1000 C1099.480,1575.016 1110.224,1614.936 1101.000,1634.000 C1094.459,1635.464 1089.474,1634.654 1084.1000,1631.1000 C1078.334,1575.672 1071.666,1519.328 1065.000,1463.000 C1066.080,1440.251 1051.742,1414.235 1058.1000,1390.1000 C1061.333,1389.667 1063.667,1388.333 1065.1000,1386.1000 ZM316.000,1400.000 C324.935,1400.254 327.227,1402.652 330.000,1408.1000 C328.123,1412.652 239.315,1494.161 234.1000,1495.1000 C223.285,1500.993 213.720,1495.618 207.000,1491.000 C207.333,1485.334 207.667,1479.666 208.000,1474.000 C215.666,1467.667 223.334,1461.333 230.1000,1454.1000 C260.099,1435.750 288.342,1419.265 316.000,1400.000 ZM1527.000,1401.000 C1539.598,1402.759 1612.958,1465.357 1619.1000,1476.1000 C1618.667,1481.1000 1617.333,1487.000 1615.1000,1492.000 C1604.706,1497.113 1599.157,1498.001 1585.1000,1495.1000 C1580.667,1490.667 1575.333,1485.333 1569.1000,1480.000 C1562.371,1468.252 1557.311,1454.189 1547.1000,1443.1000 C1538.334,1434.334 1528.666,1424.666 1518.1000,1414.1000 C1519.667,1411.000 1520.333,1406.1000 1521.000,1402.1000 C1522.1000,1402.333 1525.000,1401.667 1527.000,1401.000 ZM797.1000,1413.000 C799.1000,1413.333 802.000,1413.667 804.000,1413.1000 C805.666,1415.333 807.333,1416.667 808.1000,1418.000 C807.165,1443.461 792.026,1466.131 782.1000,1486.000 C773.001,1516.330 762.999,1546.670 753.000,1577.000 C746.508,1598.557 743.406,1627.601 714.000,1619.1000 C712.000,1617.000 709.1000,1613.1000 707.1000,1611.000 C709.857,1588.026 724.079,1569.422 732.1000,1552.1000 C747.976,1525.433 761.531,1492.798 771.1000,1465.1000 C779.868,1445.860 783.223,1425.980 797.1000,1413.000 ZM1244.000,1419.000 C1251.168,1419.017 1253.847,1420.481 1258.000,1423.000 C1266.945,1465.873 1323.919,1550.447 1316.000,1588.000 C1315.000,1588.333 1313.1000,1588.667 1313.000,1589.000 C1309.667,1589.000 1306.333,1589.000 1302.1000,1589.000 C1290.316,1582.305 1288.679,1559.781 1283.000,1545.1000 C1267.668,1506.337 1252.332,1466.663 1237.000,1426.1000 C1239.333,1424.334 1241.667,1421.666 1244.000,1419.000 ZM864.000,1419.1000 C870.141,1420.021 872.422,1421.016 875.1000,1423.000 C877.077,1432.555 871.413,1446.271 868.1000,1455.1000 C862.001,1487.997 854.999,1520.003 847.1000,1551.1000 C844.334,1570.998 840.666,1590.002 836.1000,1608.1000 C834.667,1610.333 832.333,1611.667 829.1000,1612.1000 C822.863,1614.992 820.299,1612.233 815.1000,1608.1000 C816.881,1586.275 825.786,1559.327 832.1000,1538.000 C845.577,1500.818 850.526,1458.896 860.000,1421.1000 C861.333,1421.333 862.667,1420.667 864.000,1419.1000 ZM997.1000,1437.1000 C1003.480,1438.902 1005.458,1440.571 1008.1000,1442.1000 C1007.667,1500.661 1006.333,1558.339 1004.1000,1616.000 C1002.404,1637.274 1011.015,1673.743 994.1000,1682.1000 C988.664,1687.193 982.585,1685.547 976.1000,1681.1000 C969.463,1642.697 976.361,1568.328 982.000,1529.1000 C982.1000,1502.669 984.000,1475.331 984.1000,1447.1000 C987.333,1445.000 989.667,1441.1000 991.1000,1438.1000 C993.1000,1438.667 996.000,1438.333 997.1000,1437.1000 ZM925.000,1447.1000 C931.493,1448.202 934.005,1449.691 937.1000,1452.000 C936.667,1466.998 935.333,1482.002 933.1000,1497.000 C930.758,1518.314 937.926,1537.049 936.1000,1555.1000 C935.334,1563.666 933.667,1571.334 932.000,1578.1000 C932.099,1587.776 915.372,1595.675 904.1000,1590.1000 C902.667,1588.667 900.333,1586.333 897.1000,1583.1000 C891.418,1562.453 902.455,1542.183 907.000,1522.1000 C910.333,1500.002 913.667,1476.998 917.000,1453.1000 C919.666,1452.000 922.334,1449.1000 925.000,1447.1000 ZM703.1000,1459.1000 C706.666,1460.667 709.334,1461.333 711.1000,1461.1000 C712.667,1463.333 713.333,1464.667 714.000,1465.1000 C710.644,1481.617 699.513,1493.626 692.1000,1505.1000 C677.364,1535.709 661.548,1564.574 646.000,1593.000 C637.270,1608.962 632.131,1635.908 610.000,1637.1000 C608.334,1636.667 606.667,1635.333 605.000,1634.000 C605.903,1606.313 660.259,1526.737 675.000,1502.000 C684.212,1486.541 688.653,1469.400 703.1000,1459.1000 ZM613.000,1480.000 C621.077,1479.792 622.827,1481.055 627.000,1483.1000 C627.000,1484.333 627.000,1484.667 627.000,1485.000 C626.289,1507.185 605.317,1524.669 595.000,1538.1000 C578.180,1562.363 560.712,1589.479 548.000,1614.1000 C541.061,1628.932 537.888,1643.970 528.1000,1656.000 C518.777,1669.835 505.261,1676.990 484.000,1671.1000 C482.334,1669.667 480.667,1667.333 478.1000,1664.1000 C473.497,1639.416 500.160,1620.063 513.000,1607.1000 C551.954,1571.403 576.007,1518.608 613.000,1480.000 ZM1191.1000,1483.1000 C1215.243,1484.523 1215.090,1521.975 1220.1000,1539.1000 C1227.666,1562.664 1234.334,1585.336 1241.000,1607.1000 C1247.123,1624.435 1265.066,1642.671 1263.000,1662.000 C1261.524,1675.808 1254.710,1679.049 1248.000,1686.1000 C1240.871,1687.335 1229.995,1688.055 1226.000,1685.000 C1215.049,1678.731 1212.754,1664.816 1210.1000,1648.1000 C1206.838,1611.473 1200.522,1573.510 1190.000,1534.1000 C1185.629,1519.000 1181.357,1497.374 1188.1000,1486.000 C1189.1000,1485.333 1191.000,1484.667 1191.1000,1483.1000 ZM900.000,1618.1000 C907.159,1618.760 910.196,1619.626 914.000,1622.000 C917.336,1637.966 913.645,1654.415 911.000,1668.1000 C908.236,1684.236 925.947,1763.460 882.1000,1743.1000 C878.911,1742.293 875.939,1739.935 874.000,1736.000 C871.687,1727.813 896.018,1623.479 900.000,1618.1000 Z"/>
</svg>