<svg width="252" height="36" viewBox="0 0 252 36" fill="none" xmlns="http://www.w3.org/2000/svg">
<path d="M28.44 17.389C28.44 23.029 26.84 27.349 23.62 30.349C20.4 33.349 15.78 34.849 9.7 34.849H0V0.588989H10.76C16.36 0.588989 20.7 2.06899 23.8 5.00899C26.9 7.94899 28.44 12.089 28.44 17.389ZM20.88 17.569C20.88 10.209 17.64 6.52899 11.12 6.52899H7.26V28.849H10.38C17.38 28.849 20.88 25.089 20.88 17.569Z" fill="#88889F"/>
<path d="M49.2196 34.849L47.8396 31.289H47.6596C46.4596 32.809 45.2196 33.849 43.9396 34.449C42.6596 35.049 40.9996 35.329 38.9596 35.329C36.4396 35.329 34.4596 34.609 33.0196 33.169C31.5796 31.729 30.8596 29.689 30.8596 27.029C30.8596 24.369 31.8396 22.189 33.7796 20.869C35.7196 19.549 38.6596 18.809 42.5796 18.669L47.1196 18.529V17.389C47.1196 14.729 45.7596 13.409 43.0396 13.409C40.9396 13.409 38.4796 14.049 35.6596 15.309L33.2996 10.489C36.3196 8.90901 39.6596 8.12901 43.3396 8.12901C47.0196 8.12901 49.5596 8.88901 51.4196 10.429C53.2796 11.969 54.2396 14.289 54.2396 17.409V34.869H49.2396L49.2196 34.849ZM47.0996 22.709L44.3396 22.809C42.2596 22.869 40.7196 23.249 39.6996 23.929C38.6796 24.609 38.1796 25.669 38.1796 27.069C38.1796 29.089 39.3396 30.089 41.6396 30.089C43.2996 30.089 44.6196 29.609 45.6196 28.669C46.6196 27.729 47.0996 26.449 47.0996 24.869V22.709Z" fill="#88889F"/>
<path d="M83.3599 34.849H76.2199V19.549C76.2199 17.649 75.8799 16.249 75.2199 15.289C74.5599 14.329 73.4799 13.869 71.9999 13.869C69.9999 13.869 68.5599 14.529 67.6599 15.869C66.7599 17.209 66.3199 19.429 66.3199 22.509V34.829H59.1799V8.62901H64.6399L65.5999 11.989H65.9999C66.7999 10.729 67.8999 9.76901 69.2999 9.10901C70.6999 8.44901 72.2799 8.12901 74.0599 8.12901C77.0999 8.12901 79.4199 8.94901 80.9999 10.609C82.5799 12.269 83.3599 14.629 83.3599 17.749V34.829V34.849Z" fill="#88889F"/>
<path d="M99.3599 29.629C100.6 29.629 102.12 29.349 103.86 28.809V34.129C102.08 34.929 99.8999 35.329 97.2999 35.329C94.4399 35.329 92.3599 34.609 91.0599 33.169C89.7599 31.729 89.0999 29.549 89.0999 26.669V14.029H85.6799V11.009L89.6199 8.609L91.6799 3.069H96.2599V8.649H103.6V14.009H96.2599V26.649C96.2599 27.669 96.5399 28.409 97.1199 28.889C97.6999 29.369 98.4399 29.609 99.3799 29.609L99.3599 29.629Z" fill="#88889F"/>
<path d="M118.6 35.329C114.38 35.329 111.08 34.169 108.7 31.829C106.32 29.489 105.14 26.209 105.14 21.929C105.14 17.649 106.24 14.149 108.44 11.749C110.64 9.34899 113.68 8.14899 117.54 8.14899C121.4 8.14899 124.12 9.20899 126.18 11.309C128.24 13.409 129.28 16.329 129.28 20.049V23.509H112.38C112.46 25.549 113.06 27.129 114.18 28.269C115.3 29.409 116.88 29.989 118.92 29.989C120.5 29.989 122 29.829 123.4 29.489C124.8 29.169 126.28 28.629 127.8 27.909V33.449C126.56 34.069 125.22 34.529 123.8 34.849C122.38 35.149 120.64 35.309 118.6 35.309V35.329ZM117.6 13.249C116.08 13.249 114.9 13.729 114.04 14.689C113.18 15.649 112.68 17.009 112.56 18.769H122.6C122.56 17.009 122.1 15.649 121.22 14.689C120.34 13.729 119.12 13.249 117.62 13.249H117.6Z" fill="#88889F"/>
<path d="M162.98 0.588989H170.32L158.68 34.849H150.76L139.14 0.588989H146.48L152.92 20.989C153.28 22.189 153.66 23.589 154.04 25.189C154.42 26.789 154.66 27.909 154.76 28.529C154.94 27.089 155.52 24.569 156.52 20.989L163.02 0.588989H162.98Z" fill="#88889F"/>
<path d="M195.54 21.709C195.54 25.969 194.42 29.309 192.16 31.709C189.9 34.109 186.78 35.309 182.76 35.309C180.24 35.309 178.02 34.749 176.1 33.649C174.18 32.549 172.7 30.969 171.68 28.909C170.66 26.849 170.14 24.449 170.14 21.689C170.14 17.409 171.26 14.089 173.5 11.709C175.74 9.32899 178.88 8.14899 182.92 8.14899C185.44 8.14899 187.66 8.68899 189.58 9.78899C191.5 10.889 192.98 12.449 194 14.509C195.02 16.569 195.54 18.949 195.54 21.709ZM177.42 21.709C177.42 24.309 177.84 26.269 178.7 27.589C179.56 28.909 180.94 29.589 182.86 29.589C184.78 29.589 186.14 28.929 186.98 27.609C187.82 26.289 188.24 24.329 188.24 21.709C188.24 19.089 187.82 17.169 186.98 15.869C186.14 14.569 184.76 13.929 182.84 13.929C180.92 13.929 179.56 14.569 178.72 15.869C177.88 17.169 177.46 19.109 177.46 21.709H177.42Z" fill="#88889F"/>
<path d="M223.22 34.849H216.08V19.549C216.08 17.649 215.74 16.249 215.08 15.289C214.42 14.329 213.34 13.869 211.86 13.869C209.86 13.869 208.42 14.529 207.52 15.869C206.62 17.209 206.18 19.429 206.18 22.509V34.829H199.04V8.62901H204.5L205.46 11.989H205.86C206.66 10.729 207.76 9.76901 209.16 9.10901C210.56 8.44901 212.14 8.12901 213.92 8.12901C216.96 8.12901 219.28 8.94901 220.86 10.609C222.44 12.269 223.22 14.629 223.22 17.749V34.829V34.849Z" fill="#88889F"/>
<path d="M252 21.709C252 25.969 250.88 29.309 248.62 31.709C246.36 34.109 243.24 35.309 239.22 35.309C236.7 35.309 234.48 34.749 232.56 33.649C230.64 32.549 229.16 30.969 228.14 28.909C227.12 26.849 226.6 24.449 226.6 21.689C226.6 17.409 227.72 14.089 229.96 11.709C232.2 9.32899 235.34 8.14899 239.38 8.14899C241.9 8.14899 244.12 8.68899 246.04 9.78899C247.96 10.889 249.44 12.449 250.46 14.509C251.48 16.569 252 18.949 252 21.709ZM233.88 21.709C233.88 24.309 234.3 26.269 235.16 27.589C236.02 28.909 237.4 29.589 239.32 29.589C241.24 29.589 242.6 28.929 243.44 27.609C244.28 26.289 244.7 24.329 244.7 21.709C244.7 19.089 244.28 17.169 243.44 15.869C242.6 14.569 241.22 13.929 239.3 13.929C237.38 13.929 236.02 14.569 235.18 15.869C234.34 17.169 233.92 19.109 233.92 21.709H233.88Z" fill="#88889F"/>
</svg>
