<svg width="829" height="268" viewBox="0 0 829 268" fill="none" xmlns="http://www.w3.org/2000/svg">
<g clip-path="url(#clip0_328_148)">
<path fill-rule="evenodd" clip-rule="evenodd" d="M219.15 69.591C219.512 57.0503 219.641 54.6973 219.951 53.0166C220.21 51.5944 219.641 50.0947 218.633 49.6293C217.055 48.8794 217.443 49.5517 216.952 60.541C216.823 63.437 216.874 69.4876 216.745 72.0991C216.693 72.9007 215.142 73.2627 215.194 71.9181L215.401 47.2504L216.564 47.0694C217.909 46.8626 218.09 46.3713 217.133 45.2853C216.383 44.432 215.426 44.2251 210.358 43.8631C145.535 39.4157 145.767 38.9503 102.405 38.7951C88.6748 38.7434 77.3235 38.7434 77.1942 38.7951C76.5736 39.0278 58.8615 38.8986 44.0453 39.8811C41.6923 40.0363 41.4855 40.2431 42.4939 41.4067C43.5023 42.5703 45.6743 42.6996 60.3871 42.3376C87.0199 41.717 146.621 42.2341 146.621 43.0874C146.621 43.3201 140.751 43.4236 131.753 43.346C106.051 43.1133 70.3679 44.7164 47.5878 47.0953C40.6839 47.8193 40.6322 47.8451 41.0459 49.0863C41.6923 50.9738 41.7182 61.5494 42.0285 65.0401C42.1061 65.8158 43.4506 96.8961 43.4506 97.7494C43.4506 99.9214 43.7092 101.318 44.1746 101.68C44.6918 102.068 45.9329 102.119 46.0622 101.731C46.1139 101.55 46.3725 101.55 46.8896 101.731C48.3376 102.274 56.8446 102.559 66.5669 102.404C71.8159 102.3 79.6765 102.352 84.0205 102.507C93.7169 102.817 128.779 103.516 143.621 104.214C148.017 104.421 175.968 105.584 182.536 105.92C191.922 106.386 212.117 106.36 212.427 105.869C213.229 104.55 210.048 103.335 205.782 103.309C202.265 103.309 202.162 101.576 206.221 101.421C206.506 101.421 208.704 101.318 215.452 101.602C215.452 101.602 215.452 102.326 215.271 103.8C215.09 105.326 216.719 107.653 217.521 103.722C217.573 103.412 217.805 101.55 217.805 101.55C217.805 101.55 219.124 101.421 219.331 101.344C220.081 101.059 220.236 100.102 219.538 99.1974C219.305 98.913 218.297 98.6027 218.297 98.6027C218.297 98.6027 218.529 90.7421 219.15 69.591ZM213.358 53.844C213.203 56.378 211.444 93.3278 211.341 94.8534C211.186 97.465 211.134 97.646 210.643 97.646C208.497 97.646 194.456 95.6033 157.868 96.6117C153.162 96.741 46.7345 98.551 46.7345 98.551C46.3983 98.551 46.1398 98.2924 46.1398 97.9821C45.7778 89.2941 45.4675 87.2256 45.4675 83.8124C45.4675 83.5021 45.7002 83.2694 46.0105 83.2694C46.2949 83.2694 46.5535 83.5021 46.5793 83.7866C47.2775 96.9479 47.0448 97.3874 48.6738 97.3874C49.0875 97.3874 49.3978 97.0513 49.3978 96.6376C49.3978 94.0777 49.1909 90.7421 49.0099 88.2081C48.0791 74.1677 47.8981 64.0058 46.4759 49.8878C50.3028 49.7844 56.9481 49.6551 60.7749 49.1897C74.7119 47.5349 109.878 47.2763 110.11 47.0436C110.395 46.785 139.044 46.9918 150.396 47.328C157.481 47.5348 201.593 48.8277 205.782 48.9053C214.832 49.0604 213.668 48.2847 213.358 53.844Z" fill="#B3B3CD"/>
<path fill-rule="evenodd" clip-rule="evenodd" d="M623.416 69.591C623.726 57.0503 623.836 54.6973 624.102 53.0166C624.324 51.5944 623.836 50.0947 622.973 49.6293C621.622 48.8794 621.954 49.5517 621.534 60.541C621.423 63.437 621.467 69.4876 621.356 72.0991C621.312 72.9007 619.984 73.2627 620.028 71.9181L620.205 47.2504L621.201 47.0694C622.353 46.8626 622.508 46.3713 621.689 45.2853C621.046 44.432 620.227 44.2251 615.887 43.8631C560.375 39.4157 560.574 38.9503 523.441 38.7951C511.683 38.7434 501.962 38.7434 501.851 38.7951C501.32 39.0278 486.152 38.8986 473.464 39.8811C471.449 40.0363 471.272 40.2431 472.136 41.4067C472.999 42.5703 474.859 42.6996 487.459 42.3376C510.266 41.717 561.305 42.2341 561.305 43.0874C561.305 43.3201 556.279 43.4236 548.573 43.346C526.563 43.1133 496.006 44.7164 476.498 47.0953C470.586 47.8193 470.541 47.8451 470.896 49.0863C471.449 50.9738 471.471 61.5494 471.737 65.0401C471.804 65.8158 472.955 96.8961 472.955 97.7494C472.955 99.9214 473.176 101.318 473.575 101.68C474.018 102.068 475.081 102.119 475.191 101.731C475.236 101.55 475.457 101.55 475.9 101.731C477.14 102.274 484.425 102.559 492.751 102.404C497.246 102.3 503.977 102.352 507.697 102.507C516.001 102.817 546.026 103.516 558.736 104.214C562.501 104.421 586.437 105.584 592.061 105.92C600.099 106.386 617.393 106.36 617.659 105.869C618.345 104.55 615.621 103.335 611.968 103.309C608.956 103.309 608.868 101.576 612.344 101.421C612.588 101.421 614.47 101.318 620.249 101.602C620.249 101.602 620.249 102.326 620.094 103.8C619.939 105.326 621.334 107.653 622.021 103.722C622.065 103.412 622.264 101.55 622.264 101.55C622.264 101.55 623.394 101.421 623.571 101.344C624.213 101.059 624.346 100.102 623.748 99.1974C623.549 98.913 622.685 98.6027 622.685 98.6027C622.685 98.6027 622.884 90.7421 623.416 69.591ZM618.456 53.844C618.323 56.378 616.817 93.3278 616.729 94.8534C616.596 97.465 616.551 97.646 616.131 97.646C614.293 97.646 602.269 95.6033 570.937 96.6117C566.907 96.741 475.767 98.551 475.767 98.551C475.479 98.551 475.258 98.2924 475.258 97.9821C474.948 89.2941 474.682 87.2256 474.682 83.8124C474.682 83.5021 474.881 83.2694 475.147 83.2694C475.391 83.2694 475.612 83.5021 475.634 83.7866C476.232 96.9479 476.033 97.3874 477.428 97.3874C477.782 97.3874 478.048 97.0513 478.048 96.6376C478.048 94.0777 477.871 90.7421 477.716 88.2081C476.919 74.1677 476.764 64.0058 475.546 49.8878C478.823 49.7844 484.514 49.6551 487.791 49.1897C499.726 47.5349 529.84 47.2763 530.039 47.0436C530.283 46.785 554.817 46.9918 564.538 47.328C570.605 47.5348 608.381 48.8277 611.968 48.9053C619.718 49.0604 618.721 48.2847 618.456 53.844Z" fill="#B3B3CD"/>
<path d="M267.568 195.182C267.849 192.225 268.613 168.655 268.835 166.624C269.237 163.084 270.443 127.83 270.162 127.568C268.935 126.341 268.231 128.171 267.829 133.722L267.588 136.98C267.266 127.95 267.387 128.192 266.502 127.729C264.47 126.683 264.893 128.594 264.893 132.656C264.893 140.037 264.531 152.244 264.189 156.89C264.028 159.223 262.781 188.183 262.64 189.309C262.359 191.662 262.5 192.044 263.565 191.944C264.068 191.904 264.189 191.803 264.189 191.381C264.189 190.616 264.953 187.358 265.134 187.358C265.215 187.358 265.295 189.329 265.295 191.763C265.295 193.331 265.295 194.397 265.335 195.121C265.476 196.951 266.783 197.635 267.568 195.182Z" fill="#B3B3CD"/>
<path d="M407.799 183.198C407.501 178.58 407.501 130.36 407.799 130.116C408.495 129.541 406.673 128.356 405.084 128.338C402.997 128.321 379.517 127.293 366.75 127.014C365.161 126.979 359.796 127.014 354.828 127.083C342.31 127.258 343.634 127.432 335.123 127.78C323.069 128.268 317.621 128.669 298.032 130.499C289.637 131.283 278.244 132.608 273.227 133.34C269.7 133.862 271.058 134.647 273.21 134.821C280.794 135.396 322.737 135.413 332.375 134.751C333.749 134.664 349.132 133.88 351.384 133.706C356.352 133.287 360.789 133.078 369.4 132.834C375.841 132.643 401.06 131.318 402.401 131.161C405.415 130.813 405.167 130.081 404.438 136.999C403.825 142.959 403.411 149.093 403.262 154.13C402.799 149.895 402.219 147.02 402.087 135.309C402.087 135.047 401.888 134.821 401.639 134.786C400.894 134.699 400.795 142.924 401.424 152.143C401.557 154.025 401.739 157.023 401.838 158.8C402.335 167.827 403.726 180.897 404.686 186.544C404.736 186.892 404.653 187.241 404.438 187.502C404.223 187.764 403.908 187.92 403.577 187.938C397.798 188.008 383.243 187.868 380.809 187.676C369.334 186.788 364.482 186.631 347.277 186.613C327.291 186.596 319.575 186.927 299.837 188.6C289.719 189.454 285.414 189.942 277.979 191.04C274.105 191.615 270.23 192.155 269.385 192.26C266.802 192.556 266.537 192.782 267.547 193.846C268.193 194.525 268.425 194.525 275.628 193.584C284.57 192.417 287.451 192.225 303.331 191.754C306.56 191.65 310.136 191.493 311.279 191.406C313.498 191.214 329.361 190.691 331.563 190.744C333.037 190.778 332.805 190.796 328.665 191.057C323.814 191.371 315.203 192.085 311.693 192.451C297.999 193.933 289.984 194.543 289.339 194.177C288.13 193.497 281.837 195.17 282.301 196.059C283.262 197.871 283.94 196.616 293.313 196.006C297.105 195.762 299.754 195.519 311.113 194.351C321.197 193.323 334.776 192.417 343.899 192.173C355.01 191.876 378.557 190.517 397.152 190.813C407.236 190.97 406.723 190.918 404.968 189.088L406.11 189.175C408.213 189.315 408.18 189.384 407.799 183.198ZM339.826 133.078C337.673 133.148 333.931 133.305 331.513 133.444C326.827 133.706 304.357 134.037 286.209 133.845C299.903 132.869 314.292 132.259 336.514 132.608C344.562 132.73 345.704 132.887 339.826 133.078ZM399.371 129.872C398.03 130.063 393.31 129.941 388.558 130.29C383.292 130.691 377.762 130.604 372.463 131.039C363.902 131.736 322.406 130.952 310.865 131.388L303.082 131.684C293.809 132.033 323.218 129.976 325.105 129.872C331.878 129.506 349.066 128.774 349.612 128.756C351.649 128.634 378.126 128.809 383.392 128.983C386.389 129.087 397.202 129.697 398.295 129.715C399.95 129.75 400.133 129.767 399.371 129.872Z" fill="#B3B3CD"/>
<path d="M676.568 195.182C676.849 192.225 677.613 168.655 677.835 166.624C678.237 163.084 679.443 127.83 679.162 127.568C677.935 126.341 677.231 128.171 676.829 133.722L676.588 136.98C676.266 127.95 676.387 128.192 675.502 127.729C673.47 126.683 673.893 128.594 673.893 132.656C673.893 140.037 673.531 152.244 673.189 156.89C673.028 159.223 671.781 188.183 671.64 189.309C671.359 191.662 671.5 192.044 672.565 191.944C673.068 191.904 673.189 191.803 673.189 191.381C673.189 190.616 673.953 187.358 674.134 187.358C674.215 187.358 674.295 189.329 674.295 191.763C674.295 193.331 674.295 194.397 674.335 195.121C674.476 196.951 675.783 197.635 676.568 195.182Z" fill="#B3B3CD"/>
<path d="M816.799 183.198C816.501 178.58 816.501 130.36 816.799 130.116C817.495 129.541 815.673 128.356 814.084 128.338C811.997 128.321 788.517 127.293 775.75 127.014C774.161 126.979 768.796 127.014 763.828 127.083C751.31 127.258 752.634 127.432 744.123 127.78C732.069 128.268 726.621 128.669 707.032 130.499C698.637 131.283 687.244 132.608 682.227 133.34C678.7 133.862 680.058 134.647 682.21 134.821C689.794 135.396 731.737 135.413 741.375 134.751C742.749 134.664 758.132 133.88 760.384 133.706C765.352 133.287 769.789 133.078 778.4 132.834C784.841 132.643 810.06 131.318 811.401 131.161C814.415 130.813 814.167 130.081 813.438 136.999C812.825 142.959 812.411 149.093 812.262 154.13C811.799 149.895 811.219 147.02 811.087 135.309C811.087 135.047 810.888 134.821 810.639 134.786C809.894 134.699 809.795 142.924 810.424 152.143C810.557 154.025 810.739 157.023 810.838 158.8C811.335 167.827 812.726 180.897 813.686 186.544C813.736 186.892 813.653 187.241 813.438 187.502C813.223 187.764 812.908 187.92 812.577 187.938C806.798 188.008 792.243 187.868 789.809 187.676C778.334 186.788 773.482 186.631 756.277 186.613C736.291 186.596 728.575 186.927 708.837 188.6C698.719 189.454 694.414 189.942 686.979 191.04C683.105 191.615 679.23 192.155 678.385 192.26C675.802 192.556 675.537 192.782 676.547 193.846C677.193 194.525 677.425 194.525 684.628 193.584C693.57 192.417 696.451 192.225 712.331 191.754C715.56 191.65 719.136 191.493 720.279 191.406C722.498 191.214 738.361 190.691 740.563 190.744C742.037 190.778 741.805 190.796 737.665 191.057C732.814 191.371 724.203 192.085 720.693 192.451C706.999 193.933 698.984 194.543 698.339 194.177C697.13 193.497 690.837 195.17 691.301 196.059C692.262 197.871 692.94 196.616 702.313 196.006C706.105 195.762 708.754 195.519 720.113 194.351C730.197 193.323 743.776 192.417 752.899 192.173C764.01 191.876 787.557 190.517 806.152 190.813C816.236 190.97 815.723 190.918 813.968 189.088L815.11 189.175C817.213 189.315 817.18 189.384 816.799 183.198ZM748.826 133.078C746.673 133.148 742.931 133.305 740.513 133.444C735.827 133.706 713.357 134.037 695.209 133.845C708.903 132.869 723.292 132.259 745.514 132.608C753.562 132.73 754.704 132.887 748.826 133.078ZM808.371 129.872C807.03 130.063 802.31 129.941 797.558 130.29C792.292 130.691 786.762 130.604 781.463 131.039C772.902 131.736 731.406 130.952 719.865 131.388L712.082 131.684C702.809 132.033 732.218 129.976 734.105 129.872C740.878 129.506 758.066 128.774 758.612 128.756C760.649 128.634 787.126 128.809 792.392 128.983C795.389 129.087 806.202 129.697 807.295 129.715C808.95 129.75 809.133 129.767 808.371 129.872Z" fill="#B3B3CD"/>
<path d="M285.43 170V150.29H289.183V170H285.43ZM288.643 170V166.76H297.58V170H288.643ZM288.643 161.603V158.363H296.878V161.603H288.643ZM288.643 153.53V150.29H297.364V153.53H288.643ZM299.543 170L304.322 162.17L304.241 162.791L299.732 155.339H303.809L306.752 160.496H307.157L309.938 155.339H313.772L309.506 162.764L309.587 162.224L314.636 170H310.559L307.076 164.465H306.671L303.377 170H299.543ZM317.064 175.4V155.339H320.034V161.657L319.575 161.63C319.647 160.136 319.953 158.885 320.493 157.877C321.051 156.869 321.789 156.122 322.707 155.636C323.625 155.132 324.651 154.88 325.785 154.88C326.829 154.88 327.765 155.069 328.593 155.447C329.439 155.825 330.159 156.356 330.753 157.04C331.365 157.724 331.833 158.525 332.157 159.443C332.481 160.343 332.643 161.315 332.643 162.359V162.926C332.643 163.988 332.481 164.978 332.157 165.896C331.851 166.796 331.392 167.597 330.78 168.299C330.186 168.983 329.466 169.523 328.62 169.919C327.774 170.297 326.829 170.486 325.785 170.486C324.687 170.486 323.679 170.261 322.761 169.811C321.861 169.343 321.132 168.632 320.574 167.678C320.016 166.706 319.701 165.455 319.629 163.925L320.817 165.734V175.4H317.064ZM324.84 167.327C325.65 167.327 326.352 167.129 326.946 166.733C327.558 166.337 328.035 165.788 328.377 165.086C328.719 164.366 328.89 163.556 328.89 162.656C328.89 161.72 328.719 160.91 328.377 160.226C328.035 159.542 327.558 159.011 326.946 158.633C326.352 158.237 325.65 158.039 324.84 158.039C324.102 158.039 323.418 158.201 322.788 158.525C322.176 158.849 321.672 159.326 321.276 159.956C320.898 160.586 320.709 161.342 320.709 162.224V163.304C320.709 164.15 320.907 164.87 321.303 165.464C321.699 166.058 322.212 166.517 322.842 166.841C323.472 167.165 324.138 167.327 324.84 167.327ZM336.132 170V150.29H339.885V170H336.132ZM334.296 153.098V150.29H339.885V153.098H334.296ZM351.216 170.513C349.92 170.513 348.777 170.306 347.787 169.892C346.797 169.478 345.96 168.92 345.276 168.218C344.592 167.498 344.07 166.688 343.71 165.788C343.368 164.888 343.197 163.952 343.197 162.98V162.413C343.197 161.405 343.377 160.451 343.737 159.551C344.115 158.633 344.646 157.823 345.33 157.121C346.032 156.401 346.878 155.843 347.868 155.447C348.858 155.033 349.974 154.826 351.216 154.826C352.458 154.826 353.574 155.033 354.564 155.447C355.554 155.843 356.391 156.401 357.075 157.121C357.777 157.823 358.308 158.633 358.668 159.551C359.028 160.451 359.208 161.405 359.208 162.413V162.98C359.208 163.952 359.028 164.888 358.668 165.788C358.326 166.688 357.813 167.498 357.129 168.218C356.445 168.92 355.608 169.478 354.618 169.892C353.628 170.306 352.494 170.513 351.216 170.513ZM351.216 167.3C352.134 167.3 352.908 167.102 353.538 166.706C354.168 166.292 354.645 165.743 354.969 165.059C355.293 164.357 355.455 163.565 355.455 162.683C355.455 161.783 355.284 160.991 354.942 160.307C354.618 159.605 354.132 159.056 353.484 158.66C352.854 158.246 352.098 158.039 351.216 158.039C350.334 158.039 349.569 158.246 348.921 158.66C348.291 159.056 347.805 159.605 347.463 160.307C347.121 160.991 346.95 161.783 346.95 162.683C346.95 163.565 347.112 164.357 347.436 165.059C347.778 165.743 348.264 166.292 348.894 166.706C349.524 167.102 350.298 167.3 351.216 167.3ZM362.494 170V155.339H365.464V161.549H365.383C365.383 159.443 365.833 157.85 366.733 156.77C367.633 155.69 368.956 155.15 370.702 155.15H371.242V158.417H370.216C368.956 158.417 367.975 158.759 367.273 159.443C366.589 160.109 366.247 161.081 366.247 162.359V170H362.494ZM380.209 170.513C378.949 170.513 377.842 170.297 376.888 169.865C375.952 169.433 375.169 168.857 374.539 168.137C373.927 167.399 373.459 166.58 373.135 165.68C372.829 164.78 372.676 163.862 372.676 162.926V162.413C372.676 161.441 372.829 160.505 373.135 159.605C373.459 158.687 373.927 157.877 374.539 157.175C375.169 156.455 375.943 155.888 376.861 155.474C377.779 155.042 378.841 154.826 380.047 154.826C381.631 154.826 382.954 155.177 384.016 155.879C385.096 156.563 385.906 157.472 386.446 158.606C386.986 159.722 387.256 160.928 387.256 162.224V163.574H374.269V161.279H384.907L383.746 162.413C383.746 161.477 383.611 160.676 383.341 160.01C383.071 159.344 382.657 158.831 382.099 158.471C381.559 158.111 380.875 157.931 380.047 157.931C379.219 157.931 378.517 158.12 377.941 158.498C377.365 158.876 376.924 159.425 376.618 160.145C376.33 160.847 376.186 161.693 376.186 162.683C376.186 163.601 376.33 164.42 376.618 165.14C376.906 165.842 377.347 166.4 377.941 166.814C378.535 167.21 379.291 167.408 380.209 167.408C381.127 167.408 381.874 167.228 382.45 166.868C383.026 166.49 383.395 166.031 383.557 165.491H387.013C386.797 166.499 386.383 167.381 385.771 168.137C385.159 168.893 384.376 169.478 383.422 169.892C382.486 170.306 381.415 170.513 380.209 170.513Z" fill="white"/>
<path d="M697.724 170.108V166.544H701.801C702.827 166.544 703.736 166.391 704.528 166.085C705.338 165.761 706.022 165.311 706.58 164.735C707.138 164.159 707.561 163.484 707.849 162.71C708.155 161.918 708.308 161.045 708.308 160.091C708.308 159.101 708.155 158.219 707.849 157.445C707.561 156.653 707.138 155.978 706.58 155.42C706.022 154.862 705.338 154.439 704.528 154.151C703.736 153.863 702.827 153.719 701.801 153.719H697.724V150.155H701.558C703.34 150.155 704.897 150.416 706.229 150.938C707.561 151.46 708.668 152.18 709.55 153.098C710.432 153.998 711.089 155.033 711.521 156.203C711.971 157.355 712.196 158.552 712.196 159.794V160.388C712.196 161.576 711.971 162.746 711.521 163.898C711.089 165.05 710.432 166.094 709.55 167.03C708.668 167.966 707.561 168.713 706.229 169.271C704.897 169.829 703.34 170.108 701.558 170.108H697.724ZM694.43 170.108V150.155H698.264V170.108H694.43ZM721.893 170.513C720.633 170.513 719.526 170.297 718.572 169.865C717.636 169.433 716.853 168.857 716.223 168.137C715.611 167.399 715.143 166.58 714.819 165.68C714.513 164.78 714.36 163.862 714.36 162.926V162.413C714.36 161.441 714.513 160.505 714.819 159.605C715.143 158.687 715.611 157.877 716.223 157.175C716.853 156.455 717.627 155.888 718.545 155.474C719.463 155.042 720.525 154.826 721.731 154.826C723.315 154.826 724.638 155.177 725.7 155.879C726.78 156.563 727.59 157.472 728.13 158.606C728.67 159.722 728.94 160.928 728.94 162.224V163.574H715.953V161.279H726.591L725.43 162.413C725.43 161.477 725.295 160.676 725.025 160.01C724.755 159.344 724.341 158.831 723.783 158.471C723.243 158.111 722.559 157.931 721.731 157.931C720.903 157.931 720.201 158.12 719.625 158.498C719.049 158.876 718.608 159.425 718.302 160.145C718.014 160.847 717.87 161.693 717.87 162.683C717.87 163.601 718.014 164.42 718.302 165.14C718.59 165.842 719.031 166.4 719.625 166.814C720.219 167.21 720.975 167.408 721.893 167.408C722.811 167.408 723.558 167.228 724.134 166.868C724.71 166.49 725.079 166.031 725.241 165.491H728.697C728.481 166.499 728.067 167.381 727.455 168.137C726.843 168.893 726.06 169.478 725.106 169.892C724.17 170.306 723.099 170.513 721.893 170.513ZM732.264 170V150.29H736.017V170H732.264ZM730.428 153.098V150.29H736.017V153.098H730.428ZM741.004 170V155.339H744.757V170H741.004ZM738.952 158.147V155.339H744.757V158.147H738.952ZM742.381 153.584C741.643 153.584 741.094 153.395 740.734 153.017C740.392 152.621 740.221 152.135 740.221 151.559C740.221 150.947 740.392 150.452 740.734 150.074C741.094 149.696 741.643 149.507 742.381 149.507C743.119 149.507 743.659 149.696 744.001 150.074C744.343 150.452 744.514 150.947 744.514 151.559C744.514 152.135 744.343 152.621 744.001 153.017C743.659 153.395 743.119 153.584 742.381 153.584ZM752.025 170L747.435 155.339H751.296L755.697 170H752.025ZM753.132 170V166.922H757.101V170H753.132ZM754.617 170L758.397 155.339H762.015L758.046 170H754.617ZM771.094 170.513C769.834 170.513 768.727 170.297 767.773 169.865C766.837 169.433 766.054 168.857 765.424 168.137C764.812 167.399 764.344 166.58 764.02 165.68C763.714 164.78 763.561 163.862 763.561 162.926V162.413C763.561 161.441 763.714 160.505 764.02 159.605C764.344 158.687 764.812 157.877 765.424 157.175C766.054 156.455 766.828 155.888 767.746 155.474C768.664 155.042 769.726 154.826 770.932 154.826C772.516 154.826 773.839 155.177 774.901 155.879C775.981 156.563 776.791 157.472 777.331 158.606C777.871 159.722 778.141 160.928 778.141 162.224V163.574H765.154V161.279H775.792L774.631 162.413C774.631 161.477 774.496 160.676 774.226 160.01C773.956 159.344 773.542 158.831 772.984 158.471C772.444 158.111 771.76 157.931 770.932 157.931C770.104 157.931 769.402 158.12 768.826 158.498C768.25 158.876 767.809 159.425 767.503 160.145C767.215 160.847 767.071 161.693 767.071 162.683C767.071 163.601 767.215 164.42 767.503 165.14C767.791 165.842 768.232 166.4 768.826 166.814C769.42 167.21 770.176 167.408 771.094 167.408C772.012 167.408 772.759 167.228 773.335 166.868C773.911 166.49 774.28 166.031 774.442 165.491H777.898C777.682 166.499 777.268 167.381 776.656 168.137C776.044 168.893 775.261 169.478 774.307 169.892C773.371 170.306 772.3 170.513 771.094 170.513ZM781.277 170V155.339H784.247V161.549H784.166C784.166 159.443 784.616 157.85 785.516 156.77C786.416 155.69 787.739 155.15 789.485 155.15H790.025V158.417H788.999C787.739 158.417 786.758 158.759 786.056 159.443C785.372 160.109 785.03 161.081 785.03 162.359V170H781.277Z" fill="white"/>
<path d="M60.43 80V60.29H64.183V80H60.43ZM63.643 80V76.76H72.58V80H63.643ZM63.643 71.603V68.363H71.878V71.603H63.643ZM63.643 63.53V60.29H72.364V63.53H63.643ZM76.217 80V65.339H79.187V71.63H78.917C78.917 70.154 79.106 68.921 79.484 67.931C79.862 66.923 80.42 66.167 81.158 65.663C81.914 65.141 82.85 64.88 83.966 64.88H84.128C85.262 64.88 86.198 65.141 86.936 65.663C87.692 66.167 88.25 66.923 88.61 67.931C88.988 68.921 89.177 70.154 89.177 71.63H88.232C88.232 70.154 88.421 68.921 88.799 67.931C89.195 66.923 89.762 66.167 90.5 65.663C91.256 65.141 92.192 64.88 93.308 64.88H93.47C94.604 64.88 95.549 65.141 96.305 65.663C97.061 66.167 97.628 66.923 98.006 67.931C98.402 68.921 98.6 70.154 98.6 71.63V80H94.847V71.279C94.847 70.361 94.613 69.632 94.145 69.092C93.677 68.534 93.011 68.255 92.147 68.255C91.283 68.255 90.59 68.543 90.068 69.119C89.546 69.677 89.285 70.433 89.285 71.387V80H85.532V71.279C85.532 70.361 85.298 69.632 84.83 69.092C84.362 68.534 83.696 68.255 82.832 68.255C81.968 68.255 81.275 68.543 80.753 69.119C80.231 69.677 79.97 70.433 79.97 71.387V80H76.217ZM102.611 85.4V65.339H105.581V71.657L105.122 71.63C105.194 70.136 105.5 68.885 106.04 67.877C106.598 66.869 107.336 66.122 108.254 65.636C109.172 65.132 110.198 64.88 111.332 64.88C112.376 64.88 113.312 65.069 114.14 65.447C114.986 65.825 115.706 66.356 116.3 67.04C116.912 67.724 117.38 68.525 117.704 69.443C118.028 70.343 118.19 71.315 118.19 72.359V72.926C118.19 73.988 118.028 74.978 117.704 75.896C117.398 76.796 116.939 77.597 116.327 78.299C115.733 78.983 115.013 79.523 114.167 79.919C113.321 80.297 112.376 80.486 111.332 80.486C110.234 80.486 109.226 80.261 108.308 79.811C107.408 79.343 106.679 78.632 106.121 77.678C105.563 76.706 105.248 75.455 105.176 73.925L106.364 75.734V85.4H102.611ZM110.387 77.327C111.197 77.327 111.899 77.129 112.493 76.733C113.105 76.337 113.582 75.788 113.924 75.086C114.266 74.366 114.437 73.556 114.437 72.656C114.437 71.72 114.266 70.91 113.924 70.226C113.582 69.542 113.105 69.011 112.493 68.633C111.899 68.237 111.197 68.039 110.387 68.039C109.649 68.039 108.965 68.201 108.335 68.525C107.723 68.849 107.219 69.326 106.823 69.956C106.445 70.586 106.256 71.342 106.256 72.224V73.304C106.256 74.15 106.454 74.87 106.85 75.464C107.246 76.058 107.759 76.517 108.389 76.841C109.019 77.165 109.685 77.327 110.387 77.327ZM130.372 80V75.653H129.751V70.82C129.751 69.974 129.544 69.344 129.13 68.93C128.716 68.516 128.077 68.309 127.213 68.309C126.763 68.309 126.223 68.318 125.593 68.336C124.963 68.354 124.324 68.381 123.676 68.417C123.046 68.435 122.479 68.462 121.975 68.498V65.312C122.389 65.276 122.857 65.24 123.379 65.204C123.901 65.168 124.432 65.15 124.972 65.15C125.53 65.132 126.052 65.123 126.538 65.123C128.05 65.123 129.301 65.321 130.291 65.717C131.299 66.113 132.055 66.734 132.559 67.58C133.081 68.426 133.342 69.533 133.342 70.901V80H130.372ZM125.647 80.378C124.585 80.378 123.649 80.189 122.839 79.811C122.047 79.433 121.426 78.893 120.976 78.191C120.544 77.489 120.328 76.643 120.328 75.653C120.328 74.573 120.589 73.691 121.111 73.007C121.651 72.323 122.398 71.81 123.352 71.468C124.324 71.126 125.458 70.955 126.754 70.955H130.156V73.196H126.7C125.836 73.196 125.17 73.412 124.702 73.844C124.252 74.258 124.027 74.798 124.027 75.464C124.027 76.13 124.252 76.67 124.702 77.084C125.17 77.498 125.836 77.705 126.7 77.705C127.222 77.705 127.699 77.615 128.131 77.435C128.581 77.237 128.95 76.913 129.238 76.463C129.544 75.995 129.715 75.365 129.751 74.573L130.669 75.626C130.579 76.652 130.327 77.516 129.913 78.218C129.517 78.92 128.959 79.46 128.239 79.838C127.537 80.198 126.673 80.378 125.647 80.378ZM143.734 80.189C142.384 80.189 141.268 80.018 140.386 79.676C139.522 79.316 138.874 78.722 138.442 77.894C138.01 77.048 137.794 75.914 137.794 74.492L137.821 61.208H141.331L141.304 74.735C141.304 75.455 141.493 76.013 141.871 76.409C142.267 76.787 142.825 76.976 143.545 76.976H145.84V80.189H143.734ZM135.472 68.093V65.339H145.84V68.093H135.472ZM148.99 80V60.29H152.743V71.792H152.095C152.095 70.316 152.284 69.065 152.662 68.039C153.04 67.013 153.598 66.23 154.336 65.69C155.092 65.15 156.046 64.88 157.198 64.88H157.36C159.034 64.88 160.303 65.456 161.167 66.608C162.031 67.76 162.463 69.434 162.463 71.63V80H158.71V71.279C158.71 70.343 158.44 69.605 157.9 69.065C157.378 68.525 156.685 68.255 155.821 68.255C154.903 68.255 154.156 68.561 153.58 69.173C153.022 69.767 152.743 70.55 152.743 71.522V80H148.99ZM167.2 80V65.339H170.953V80H167.2ZM165.148 68.147V65.339H170.953V68.147H165.148ZM168.577 63.584C167.839 63.584 167.29 63.395 166.93 63.017C166.588 62.621 166.417 62.135 166.417 61.559C166.417 60.947 166.588 60.452 166.93 60.074C167.29 59.696 167.839 59.507 168.577 59.507C169.315 59.507 169.855 59.696 170.197 60.074C170.539 60.452 170.71 60.947 170.71 61.559C170.71 62.135 170.539 62.621 170.197 63.017C169.855 63.395 169.315 63.584 168.577 63.584ZM174.334 80V77.03L181.57 68.336V68.768L181.003 68.012L181.462 68.228H174.307V65.339H185.485V68.309L178.249 77.003V76.598L178.843 77.354L178.384 77.111H185.782V80H174.334ZM195.102 80.513C193.842 80.513 192.735 80.297 191.781 79.865C190.845 79.433 190.062 78.857 189.432 78.137C188.82 77.399 188.352 76.58 188.028 75.68C187.722 74.78 187.569 73.862 187.569 72.926V72.413C187.569 71.441 187.722 70.505 188.028 69.605C188.352 68.687 188.82 67.877 189.432 67.175C190.062 66.455 190.836 65.888 191.754 65.474C192.672 65.042 193.734 64.826 194.94 64.826C196.524 64.826 197.847 65.177 198.909 65.879C199.989 66.563 200.799 67.472 201.339 68.606C201.879 69.722 202.149 70.928 202.149 72.224V73.574H189.162V71.279H199.8L198.639 72.413C198.639 71.477 198.504 70.676 198.234 70.01C197.964 69.344 197.55 68.831 196.992 68.471C196.452 68.111 195.768 67.931 194.94 67.931C194.112 67.931 193.41 68.12 192.834 68.498C192.258 68.876 191.817 69.425 191.511 70.145C191.223 70.847 191.079 71.693 191.079 72.683C191.079 73.601 191.223 74.42 191.511 75.14C191.799 75.842 192.24 76.4 192.834 76.814C193.428 77.21 194.184 77.408 195.102 77.408C196.02 77.408 196.767 77.228 197.343 76.868C197.919 76.49 198.288 76.031 198.45 75.491H201.906C201.69 76.499 201.276 77.381 200.664 78.137C200.052 78.893 199.269 79.478 198.315 79.892C197.379 80.306 196.308 80.513 195.102 80.513Z" fill="white"/>
<path d="M494.858 80L488.567 60.29H492.536L497.747 77.354L496.613 76.814H499.529L498.368 77.354L503.174 60.29H507.008L501.176 80H494.858ZM518.027 80V75.653H517.406V70.82C517.406 69.974 517.199 69.344 516.785 68.93C516.371 68.516 515.732 68.309 514.868 68.309C514.418 68.309 513.878 68.318 513.248 68.336C512.618 68.354 511.979 68.381 511.331 68.417C510.701 68.435 510.134 68.462 509.63 68.498V65.312C510.044 65.276 510.512 65.24 511.034 65.204C511.556 65.168 512.087 65.15 512.627 65.15C513.185 65.132 513.707 65.123 514.193 65.123C515.705 65.123 516.956 65.321 517.946 65.717C518.954 66.113 519.71 66.734 520.214 67.58C520.736 68.426 520.997 69.533 520.997 70.901V80H518.027ZM513.302 80.378C512.24 80.378 511.304 80.189 510.494 79.811C509.702 79.433 509.081 78.893 508.631 78.191C508.199 77.489 507.983 76.643 507.983 75.653C507.983 74.573 508.244 73.691 508.766 73.007C509.306 72.323 510.053 71.81 511.007 71.468C511.979 71.126 513.113 70.955 514.409 70.955H517.811V73.196H514.355C513.491 73.196 512.825 73.412 512.357 73.844C511.907 74.258 511.682 74.798 511.682 75.464C511.682 76.13 511.907 76.67 512.357 77.084C512.825 77.498 513.491 77.705 514.355 77.705C514.877 77.705 515.354 77.615 515.786 77.435C516.236 77.237 516.605 76.913 516.893 76.463C517.199 75.995 517.37 75.365 517.406 74.573L518.324 75.626C518.234 76.652 517.982 77.516 517.568 78.218C517.172 78.92 516.614 79.46 515.894 79.838C515.192 80.198 514.328 80.378 513.302 80.378ZM525.206 80V60.29H528.959V80H525.206ZM523.37 63.098V60.29H528.959V63.098H523.37ZM533.945 80V65.339H537.698V80H533.945ZM531.893 68.147V65.339H537.698V68.147H531.893ZM535.322 63.584C534.584 63.584 534.035 63.395 533.675 63.017C533.333 62.621 533.162 62.135 533.162 61.559C533.162 60.947 533.333 60.452 533.675 60.074C534.035 59.696 534.584 59.507 535.322 59.507C536.06 59.507 536.6 59.696 536.942 60.074C537.284 60.452 537.455 60.947 537.455 61.559C537.455 62.135 537.284 62.621 536.942 63.017C536.6 63.395 536.06 63.584 535.322 63.584ZM548.099 80.486C547.073 80.486 546.128 80.297 545.264 79.919C544.4 79.541 543.653 79.01 543.023 78.326C542.393 77.642 541.907 76.85 541.565 75.95C541.223 75.032 541.052 74.042 541.052 72.98V72.413C541.052 71.369 541.214 70.388 541.538 69.47C541.88 68.552 542.348 67.751 542.942 67.067C543.554 66.383 544.283 65.852 545.129 65.474C545.993 65.078 546.947 64.88 547.991 64.88C549.143 64.88 550.151 65.132 551.015 65.636C551.897 66.122 552.599 66.86 553.121 67.85C553.643 68.84 553.931 70.082 553.985 71.576L552.878 70.28V60.29H556.631V80H553.661V73.763H554.309C554.255 75.257 553.949 76.508 553.391 77.516C552.833 78.506 552.095 79.253 551.177 79.757C550.277 80.243 549.251 80.486 548.099 80.486ZM548.936 77.327C549.674 77.327 550.349 77.165 550.961 76.841C551.573 76.499 552.059 76.013 552.419 75.383C552.797 74.735 552.986 73.979 552.986 73.115V72.035C552.986 71.171 552.797 70.451 552.419 69.875C552.041 69.281 551.546 68.831 550.934 68.525C550.322 68.201 549.656 68.039 548.936 68.039C548.126 68.039 547.406 68.237 546.776 68.633C546.164 69.011 545.678 69.551 545.318 70.253C544.976 70.955 544.805 71.774 544.805 72.71C544.805 73.646 544.985 74.465 545.345 75.167C545.705 75.851 546.191 76.382 546.803 76.76C547.433 77.138 548.144 77.327 548.936 77.327ZM569.786 80V75.653H569.165V70.82C569.165 69.974 568.958 69.344 568.544 68.93C568.13 68.516 567.491 68.309 566.627 68.309C566.177 68.309 565.637 68.318 565.007 68.336C564.377 68.354 563.738 68.381 563.09 68.417C562.46 68.435 561.893 68.462 561.389 68.498V65.312C561.803 65.276 562.271 65.24 562.793 65.204C563.315 65.168 563.846 65.15 564.386 65.15C564.944 65.132 565.466 65.123 565.952 65.123C567.464 65.123 568.715 65.321 569.705 65.717C570.713 66.113 571.469 66.734 571.973 67.58C572.495 68.426 572.756 69.533 572.756 70.901V80H569.786ZM565.061 80.378C563.999 80.378 563.063 80.189 562.253 79.811C561.461 79.433 560.84 78.893 560.39 78.191C559.958 77.489 559.742 76.643 559.742 75.653C559.742 74.573 560.003 73.691 560.525 73.007C561.065 72.323 561.812 71.81 562.766 71.468C563.738 71.126 564.872 70.955 566.168 70.955H569.57V73.196H566.114C565.25 73.196 564.584 73.412 564.116 73.844C563.666 74.258 563.441 74.798 563.441 75.464C563.441 76.13 563.666 76.67 564.116 77.084C564.584 77.498 565.25 77.705 566.114 77.705C566.636 77.705 567.113 77.615 567.545 77.435C567.995 77.237 568.364 76.913 568.652 76.463C568.958 75.995 569.129 75.365 569.165 74.573L570.083 75.626C569.993 76.652 569.741 77.516 569.327 78.218C568.931 78.92 568.373 79.46 567.653 79.838C566.951 80.198 566.087 80.378 565.061 80.378ZM583.148 80.189C581.798 80.189 580.682 80.018 579.8 79.676C578.936 79.316 578.288 78.722 577.856 77.894C577.424 77.048 577.208 75.914 577.208 74.492L577.235 61.208H580.745L580.718 74.735C580.718 75.455 580.907 76.013 581.285 76.409C581.681 76.787 582.239 76.976 582.959 76.976H585.254V80.189H583.148ZM574.886 68.093V65.339H585.254V68.093H574.886ZM594.885 80.513C593.625 80.513 592.518 80.297 591.564 79.865C590.628 79.433 589.845 78.857 589.215 78.137C588.603 77.399 588.135 76.58 587.811 75.68C587.505 74.78 587.352 73.862 587.352 72.926V72.413C587.352 71.441 587.505 70.505 587.811 69.605C588.135 68.687 588.603 67.877 589.215 67.175C589.845 66.455 590.619 65.888 591.537 65.474C592.455 65.042 593.517 64.826 594.723 64.826C596.307 64.826 597.63 65.177 598.692 65.879C599.772 66.563 600.582 67.472 601.122 68.606C601.662 69.722 601.932 70.928 601.932 72.224V73.574H588.945V71.279H599.583L598.422 72.413C598.422 71.477 598.287 70.676 598.017 70.01C597.747 69.344 597.333 68.831 596.775 68.471C596.235 68.111 595.551 67.931 594.723 67.931C593.895 67.931 593.193 68.12 592.617 68.498C592.041 68.876 591.6 69.425 591.294 70.145C591.006 70.847 590.862 71.693 590.862 72.683C590.862 73.601 591.006 74.42 591.294 75.14C591.582 75.842 592.023 76.4 592.617 76.814C593.211 77.21 593.967 77.408 594.885 77.408C595.803 77.408 596.55 77.228 597.126 76.868C597.702 76.49 598.071 76.031 598.233 75.491H601.689C601.473 76.499 601.059 77.381 600.447 78.137C599.835 78.893 599.052 79.478 598.098 79.892C597.162 80.306 596.091 80.513 594.885 80.513Z" fill="white"/>
<rect x="10.875" y="11.875" width="44.25" height="44.25" rx="22.125" fill="#91A7ED"/>
<rect x="10.875" y="11.875" width="44.25" height="44.25" rx="22.125" stroke="#27272B" stroke-width="2.25"/>
<path d="M32.3062 44.1286V27.4231L33.5272 28.3666H28.5322V23.8711H37.4677V44.1286H32.3062Z" fill="black"/>
<rect x="239.875" y="101.875" width="44.25" height="44.25" rx="22.125" fill="#91A7ED"/>
<rect x="239.875" y="101.875" width="44.25" height="44.25" rx="22.125" stroke="#27272B" stroke-width="2.25"/>
<path d="M254.73 134.434V129.994C254.73 129.106 254.878 128.329 255.174 127.663C255.488 126.978 255.969 126.377 256.617 125.859C257.283 125.341 258.143 124.86 259.197 124.416L262.278 123.112C263.073 122.779 263.647 122.381 263.998 121.919C264.368 121.456 264.553 120.873 264.553 120.17C264.553 119.523 264.331 118.977 263.887 118.533C263.462 118.071 262.833 117.839 262 117.839C261.149 117.839 260.511 118.08 260.085 118.561C259.66 119.023 259.447 119.652 259.447 120.448H254.452C254.452 119.116 254.739 117.932 255.312 116.896C255.886 115.86 256.728 115.046 257.838 114.454C258.966 113.862 260.354 113.566 262 113.566C263.628 113.566 264.997 113.853 266.107 114.426C267.236 114.981 268.087 115.749 268.66 116.729C269.252 117.691 269.548 118.783 269.548 120.004V120.337C269.548 121.909 269.123 123.204 268.272 124.222C267.421 125.239 266.052 126.155 264.165 126.969L261.084 128.273C260.64 128.458 260.307 128.662 260.085 128.884C259.882 129.106 259.78 129.402 259.78 129.772V130.771L258.587 129.994H269.493V134.434H254.73Z" fill="black"/>
<rect x="446.875" y="11.875" width="44.25" height="44.25" rx="22.125" fill="#91A7ED"/>
<rect x="446.875" y="11.875" width="44.25" height="44.25" rx="22.125" stroke="#27272B" stroke-width="2.25"/>
<path d="M469 44.4063C467.409 44.4063 466.022 44.1195 464.838 43.546C463.654 42.954 462.738 42.1585 462.09 41.1595C461.461 40.142 461.147 38.9857 461.147 37.6907H466.142C466.142 38.4122 466.392 39.0042 466.891 39.4667C467.391 39.9107 468.094 40.1328 469 40.1328C469.611 40.1328 470.129 40.0218 470.554 39.7997C470.98 39.5592 471.303 39.2448 471.525 38.8563C471.747 38.4493 471.858 37.996 471.858 37.4965C471.858 36.738 471.609 36.109 471.109 35.6095C470.628 35.11 469.925 34.8602 469 34.8602C468.464 34.8602 467.983 34.9435 467.557 35.11C467.15 35.2765 466.799 35.4892 466.503 35.7482L464.199 31.9188L469.805 28.4777L469.555 28.0337H462.007V23.5938H476.104V28.006L468.806 32.446L466.475 31.5857C466.863 31.4747 467.27 31.3915 467.696 31.336C468.14 31.2805 468.593 31.2527 469.056 31.2527C470.647 31.2527 472.025 31.5025 473.19 32.002C474.356 32.5015 475.253 33.223 475.882 34.1665C476.53 35.0915 476.853 36.2015 476.853 37.4965V37.8295C476.853 39.106 476.53 40.2437 475.882 41.2427C475.253 42.2232 474.347 43.0003 473.163 43.5738C471.997 44.1288 470.61 44.4063 469 44.4063Z" fill="black"/>
<rect x="649.875" y="101.875" width="44.25" height="44.25" rx="22.125" fill="#91A7ED"/>
<rect x="649.875" y="101.875" width="44.25" height="44.25" rx="22.125" stroke="#27272B" stroke-width="2.25"/>
<path d="M663.203 130.854V125.609L670.64 113.566L674.719 116.147L668.587 126.137L669.003 126.747H680.797V130.854H663.203ZM673.831 134.434V119.754H678.604V134.434H673.831Z" fill="black"/>
<path fill-rule="evenodd" clip-rule="evenodd" d="M131.778 111.036C126.845 116.683 126.442 170.266 151.076 186.927C160.601 193.38 183.716 189.719 209.871 177.681C214.184 175.695 217.131 174.299 221.568 172.996C221.847 172.903 220.389 174.547 218.279 176.657C213.284 181.652 211.547 184.817 212.477 187.268C212.943 188.447 213.501 188.23 215.053 186.275C219.489 180.659 225.198 176.161 234.289 171.196C237.857 169.242 240.525 164.526 230.255 164.526C221.568 164.526 216.325 163.843 208.289 161.578C203.076 160.12 200.346 162.323 203.573 165.363C204.69 166.418 210.181 168.063 216.076 169.118L219.086 169.645C208.444 174.516 207.792 174.857 199.012 178.208C178.131 186.151 162.277 187.609 154.21 182.304C133.826 168.869 133.298 132.476 133.081 110.912C133.081 110.323 132.337 110.385 131.778 111.036Z" fill="#B3B3CD"/>
<path fill-rule="evenodd" clip-rule="evenodd" d="M547.778 111.036C542.845 116.683 542.442 170.266 567.076 186.927C576.601 193.38 599.716 189.719 625.871 177.681C630.184 175.695 633.131 174.299 637.568 172.996C637.847 172.903 636.389 174.547 634.279 176.657C629.284 181.652 627.547 184.817 628.477 187.268C628.943 188.447 629.501 188.23 631.053 186.275C635.489 180.659 641.198 176.161 650.289 171.196C653.857 169.242 656.525 164.526 646.255 164.526C637.568 164.526 632.325 163.843 624.289 161.578C619.076 160.12 616.346 162.323 619.573 165.363C620.69 166.418 626.181 168.063 632.076 169.118L635.086 169.645C624.444 174.516 623.792 174.857 615.012 178.208C594.131 186.151 578.277 187.609 570.21 182.304C549.826 168.869 549.298 132.476 549.081 110.912C549.081 110.323 548.337 110.385 547.778 111.036Z" fill="#B3B3CD"/>
<path fill-rule="evenodd" clip-rule="evenodd" d="M339.778 117.544C334.845 111.897 334.442 58.3145 359.076 41.6534C368.601 35.1999 391.716 38.861 417.871 50.8992C422.184 52.8849 425.131 54.281 429.568 55.5841C429.847 55.6772 428.389 54.0328 426.279 51.9231C421.284 46.9278 419.547 43.7631 420.477 41.3121C420.943 40.133 421.501 40.3503 423.053 42.3049C427.489 47.9207 433.198 52.4195 442.289 57.3837C445.857 59.3383 448.525 64.0543 438.255 64.0543C429.568 64.0543 424.325 64.7369 416.289 67.0018C411.076 68.4601 408.346 66.2572 411.573 63.2166C412.69 62.1617 418.181 60.5173 424.076 59.4624L427.086 58.935C416.444 54.0639 415.792 53.7226 407.012 50.3717C386.131 42.429 370.277 40.9708 362.21 46.2763C341.826 59.7107 341.298 96.1045 341.081 117.668C341.081 118.257 340.337 118.195 339.778 117.544Z" fill="#B3B3CD"/>
<g clip-path="url(#clip1_328_148)">
<path fill-rule="evenodd" clip-rule="evenodd" d="M505.917 114.768C508.719 115.029 510.924 128.244 508.209 128.485C506.178 128.693 505.768 127.988 505.034 123.257C503.82 115.591 503.906 114.599 505.917 114.768ZM509.7 134.435C510.862 135.01 511.835 144.098 511.076 147.506C510.58 149.777 509.426 150.408 508.189 149.07C507.233 148.029 506.324 140.137 506.671 135.679C506.775 134.454 508.412 133.796 509.7 134.435ZM510.488 156.203C512.21 157.687 511.493 167.959 509.625 168.283C508.259 168.52 507.963 168.14 507.562 165.823C506.449 159.405 508.06 154.123 510.488 156.203ZM445.849 172.901C448.877 173.641 438.774 179.13 432.307 180.251C430.272 180.604 431.153 180.882 434.801 181.055C439.225 181.236 446.406 182.406 446.94 183.003C448.229 184.476 445.538 184.856 439.937 184.016C433.833 183.091 433.925 182.96 438.514 186.074C444.494 190.096 445.645 191.765 442.853 192.221C441.375 192.477 439.676 191.622 433.654 187.693C431.192 186.078 428.208 184.267 426.976 183.619C421.356 180.684 421.346 180.628 428.512 178.897C434.381 177.477 437.713 176.324 440.512 174.746C442.63 173.546 445.038 172.697 445.849 172.901ZM453.019 182.955C454.08 183.116 459.141 184.481 462.764 185.175C467.189 186.018 468.307 187.003 465.604 187.644C463.398 188.17 450.371 185.57 449.684 184.425C449.157 183.539 451.105 182.683 453.019 182.955ZM508.342 174.628C511.455 176.187 506.08 187.583 501.871 188.312C501.676 188.346 500.576 188.796 499.459 189.306C494.747 191.445 492.946 189.831 497.484 187.521C501.544 185.437 502.913 183.561 504.816 177.309C505.621 174.669 506.736 173.814 508.342 174.628ZM474.013 186.789C475.348 186.874 478.918 187.922 481.302 188.257C487.336 189.108 489.461 190.435 485.837 191.064C483.551 191.46 471.852 189.234 471.372 188.282C470.858 187.308 472.035 186.644 474.013 186.789Z" fill="#0AF22F"/>
<path d="M432.656 158L432.656 144.86L435.212 144.86L435.212 158L432.656 158ZM442.541 158.126C441.641 158.126 440.897 158.012 440.309 157.784C439.733 157.544 439.301 157.148 439.013 156.596C438.725 156.032 438.581 155.276 438.581 154.328L438.599 145.472L440.939 145.472L440.921 154.49C440.921 154.97 441.047 155.342 441.299 155.606C441.563 155.858 441.935 155.984 442.415 155.984L443.945 155.984L443.945 158.126L442.541 158.126ZM437.033 150.062L437.033 148.226L443.945 148.226L443.945 150.062L437.033 150.062ZM450.366 158.342C449.526 158.342 448.788 158.198 448.152 157.91C447.528 157.622 447.006 157.238 446.586 156.758C446.178 156.266 445.866 155.72 445.65 155.12C445.446 154.52 445.344 153.908 445.344 153.284L445.344 152.942C445.344 152.294 445.446 151.67 445.65 151.07C445.866 150.458 446.178 149.918 446.586 149.45C447.006 148.97 447.522 148.592 448.134 148.316C448.746 148.028 449.454 147.884 450.258 147.884C451.314 147.884 452.196 148.118 452.904 148.586C453.624 149.042 454.164 149.648 454.524 150.404C454.884 151.148 455.064 151.952 455.064 152.816L455.064 153.716L446.406 153.716L446.406 152.186L453.498 152.186L452.724 152.942C452.724 152.318 452.634 151.784 452.454 151.34C452.274 150.896 451.998 150.554 451.626 150.314C451.266 150.074 450.81 149.954 450.258 149.954C449.706 149.954 449.238 150.08 448.854 150.332C448.47 150.584 448.176 150.95 447.972 151.43C447.78 151.898 447.684 152.462 447.684 153.122C447.684 153.734 447.78 154.28 447.972 154.76C448.164 155.228 448.458 155.6 448.854 155.876C449.25 156.14 449.754 156.272 450.366 156.272C450.978 156.272 451.476 156.152 451.86 155.912C452.244 155.66 452.49 155.354 452.598 154.994L454.902 154.994C454.758 155.666 454.482 156.254 454.074 156.758C453.666 157.262 453.144 157.652 452.508 157.928C451.884 158.204 451.17 158.342 450.366 158.342ZM457.154 158L457.154 148.226L459.134 148.226L459.134 152.366L459.08 152.366C459.08 150.962 459.38 149.9 459.98 149.18C460.58 148.46 461.462 148.1 462.626 148.1L462.986 148.1L462.986 150.278L462.302 150.278C461.462 150.278 460.808 150.506 460.34 150.962C459.884 151.406 459.656 152.054 459.656 152.906L459.656 158L457.154 158ZM470.53 158L470.53 155.102L470.116 155.102L470.116 151.88C470.116 151.316 469.978 150.896 469.702 150.62C469.426 150.344 469 150.206 468.424 150.206C468.124 150.206 467.764 150.212 467.344 150.224C466.924 150.236 466.498 150.254 466.066 150.278C465.646 150.29 465.268 150.308 464.932 150.332L464.932 148.208C465.208 148.184 465.52 148.16 465.868 148.136C466.216 148.112 466.57 148.1 466.93 148.1C467.302 148.088 467.65 148.082 467.974 148.082C468.982 148.082 469.816 148.214 470.476 148.478C471.148 148.742 471.652 149.156 471.988 149.72C472.336 150.284 472.51 151.022 472.51 151.934L472.51 158L470.53 158ZM467.38 158.252C466.672 158.252 466.048 158.126 465.508 157.874C464.98 157.622 464.566 157.262 464.266 156.794C463.978 156.326 463.834 155.762 463.834 155.102C463.834 154.382 464.008 153.794 464.356 153.338C464.716 152.882 465.214 152.54 465.85 152.312C466.498 152.084 467.254 151.97 468.118 151.97L470.386 151.97L470.386 153.464L468.082 153.464C467.506 153.464 467.062 153.608 466.75 153.896C466.45 154.172 466.3 154.532 466.3 154.976C466.3 155.42 466.45 155.78 466.75 156.056C467.062 156.332 467.506 156.47 468.082 156.47C468.43 156.47 468.748 156.41 469.036 156.29C469.336 156.158 469.582 155.942 469.774 155.642C469.978 155.33 470.092 154.91 470.116 154.382L470.728 155.084C470.668 155.768 470.5 156.344 470.224 156.812C469.96 157.28 469.588 157.64 469.108 157.892C468.64 158.132 468.064 158.252 467.38 158.252ZM479.438 158.126C478.538 158.126 477.794 158.012 477.206 157.784C476.63 157.544 476.198 157.148 475.91 156.596C475.622 156.032 475.478 155.276 475.478 154.328L475.496 145.472L477.836 145.472L477.818 154.49C477.818 154.97 477.944 155.342 478.196 155.606C478.46 155.858 478.832 155.984 479.312 155.984L480.842 155.984L480.842 158.126L479.438 158.126ZM473.93 150.062L473.93 148.226L480.842 148.226L480.842 150.062L473.93 150.062ZM487.263 158.342C486.423 158.342 485.685 158.198 485.049 157.91C484.425 157.622 483.903 157.238 483.483 156.758C483.075 156.266 482.763 155.72 482.547 155.12C482.343 154.52 482.241 153.908 482.241 153.284L482.241 152.942C482.241 152.294 482.343 151.67 482.547 151.07C482.763 150.458 483.075 149.918 483.483 149.45C483.903 148.97 484.419 148.592 485.031 148.316C485.643 148.028 486.351 147.884 487.155 147.884C488.211 147.884 489.093 148.118 489.801 148.586C490.521 149.042 491.061 149.648 491.421 150.404C491.781 151.148 491.961 151.952 491.961 152.816L491.961 153.716L483.303 153.716L483.303 152.186L490.395 152.186L489.621 152.942C489.621 152.318 489.531 151.784 489.351 151.34C489.171 150.896 488.895 150.554 488.523 150.314C488.163 150.074 487.707 149.954 487.155 149.954C486.603 149.954 486.135 150.08 485.751 150.332C485.367 150.584 485.073 150.95 484.869 151.43C484.677 151.898 484.581 152.462 484.581 153.122C484.581 153.734 484.677 154.28 484.869 154.76C485.061 155.228 485.355 155.6 485.751 155.876C486.147 156.14 486.651 156.272 487.263 156.272C487.875 156.272 488.373 156.152 488.757 155.912C489.141 155.66 489.387 155.354 489.495 154.994L491.799 154.994C491.655 155.666 491.379 156.254 490.971 156.758C490.563 157.262 490.041 157.652 489.405 157.928C488.781 158.204 488.067 158.342 487.263 158.342Z" fill="#0AF22F"/>
</g>
<path fill-rule="evenodd" clip-rule="evenodd" d="M705.985 208.575C707.181 209.075 708.724 218.084 708.181 221.533C707.829 223.831 706.717 224.533 705.398 223.276C704.379 222.297 702.975 214.478 703.041 210.007C703.067 208.777 704.66 208.018 705.985 208.575ZM707.159 228.774C710.364 230.133 705.717 241.845 701.562 242.838C701.369 242.884 700.3 243.401 699.217 243.981C694.65 246.412 692.75 244.915 697.134 242.324C701.055 239.989 702.303 238.03 703.808 231.671C704.446 228.985 705.506 228.062 707.159 228.774ZM673.663 243.071C675.002 243.071 678.63 243.893 681.03 244.076C687.106 244.546 689.31 245.737 685.733 246.592C683.477 247.132 671.661 245.646 671.121 244.727C670.547 243.787 671.68 243.05 673.663 243.071Z" fill="#0AF22F"/>
<path d="M660.43 241.23C656.741 241.215 651.516 240.806 650.443 240.844C648.512 240.929 646.755 242.128 647.436 242.902C648.322 243.902 661.605 244.057 663.677 243.133C666.215 242.005 664.934 241.243 660.43 241.23Z" fill="#0AF22F"/>
<g clip-path="url(#clip2_328_148)">
<path fill-rule="evenodd" clip-rule="evenodd" d="M389.111 244.374C388.574 245.554 379.521 246.814 376.09 246.163C373.805 245.739 373.138 244.606 374.436 243.327C375.446 242.339 383.305 241.181 387.772 241.386C389 241.451 389.709 243.067 389.111 244.374ZM367.379 245.851C365.95 247.618 355.661 247.226 355.278 245.37C354.998 244.012 355.369 243.705 357.671 243.23C364.052 241.915 369.381 243.358 367.379 245.851ZM343.905 224.692C343.261 227.742 337.456 217.818 336.13 211.389C335.713 209.367 335.463 210.256 335.406 213.907C335.365 218.336 334.423 225.549 333.842 226.102C332.411 227.437 331.946 224.76 332.608 219.135C333.34 213.005 333.474 213.093 330.507 217.777C326.675 223.882 325.044 225.085 324.5 222.309C324.197 220.84 324.999 219.115 328.735 212.972C330.27 210.46 331.986 207.42 332.596 206.168C335.351 200.458 335.407 200.446 337.364 207.553C338.969 213.375 340.226 216.669 341.892 219.416C343.159 221.495 344.084 223.875 343.905 224.692ZM348.895 244.288C347.436 247.449 335.876 242.437 335.013 238.253C334.973 238.059 334.49 236.975 333.944 235.874C331.657 231.233 333.213 229.381 335.666 233.844C337.877 237.836 339.795 239.145 346.104 240.849C348.769 241.57 349.658 242.658 348.895 244.288Z" fill="#0AF22F"/>
<path d="M344.431 254.204C341.89 257.638 329.294 257.329 329.298 253.848C329.29 252.048 330.075 252.025 332.796 252.49C339.237 253.594 342.007 252.622 345.691 249.928C349.792 246.908 350.426 249.242 346.4 252.493C345.443 253.263 344.548 254.044 344.431 254.204Z" fill="#0AF22F"/>
</g>
<path d="M416.138 243.197C419.569 243.848 428.621 242.588 429.159 241.408C429.757 240.101 429.048 238.485 427.82 238.42C423.353 238.215 415.494 239.373 414.483 240.361C413.185 241.64 413.852 242.773 416.138 243.197Z" fill="#0AF22F"/>
<path d="M395.326 242.404C395.708 244.261 405.998 244.652 407.426 242.885C409.428 240.392 404.099 238.949 397.719 240.264C395.416 240.739 395.046 241.046 395.326 242.404Z" fill="#0AF22F"/>
<path d="M321.364 253.008C317.885 253.311 309.005 251.15 308.588 249.922C308.124 248.561 308.992 247.025 310.22 247.084C314.685 247.327 322.388 249.267 323.295 250.352C324.458 251.754 323.681 252.815 321.364 253.008Z" fill="#0AF22F"/>
<path fill-rule="evenodd" clip-rule="evenodd" d="M80.3266 143.276C80.4195 146.392 87.8918 137.654 90.3352 131.562C91.1041 129.645 91.1929 130.565 90.602 134.168C89.8581 138.534 89.507 145.8 89.9799 146.447C91.1518 148.015 92.084 145.462 92.4289 139.809C92.7952 133.646 92.6479 133.709 94.7381 138.845C97.4269 145.532 98.8196 147.005 99.8465 144.369C100.405 142.977 99.9219 141.138 97.3331 134.43C96.267 131.685 95.1172 128.389 94.7393 127.049C93.0388 120.941 92.9862 120.92 89.801 127.568C87.1897 133.013 85.3685 136.032 83.2426 138.441C81.6271 140.262 80.2955 142.441 80.3266 143.276ZM88.6672 152.383C88.6035 153.455 88.8846 158.689 88.809 162.377C88.7118 166.88 89.4421 168.179 90.632 165.669C91.606 163.621 91.7763 150.338 90.7987 149.428C90.0418 148.728 88.7998 150.455 88.6672 152.383ZM88.0455 173.715C87.8501 175.039 88.1321 178.749 87.9625 181.15C87.5384 187.229 88.3943 189.584 89.7635 186.17C90.6271 184.017 90.8861 172.111 90.0556 171.443C89.2093 170.737 88.3147 171.75 88.0455 173.715Z" fill="#0AF22F"/>
<path d="M127.666 236.806C130.953 237.985 140.091 238.156 140.807 237.075C141.602 235.877 141.154 234.17 139.951 233.915C135.571 233.013 127.628 232.928 126.475 233.746C124.993 234.806 125.475 236.03 127.666 236.806Z" fill="#0AF22F"/>
<path d="M107.234 232.768C107.322 234.661 117.423 236.657 119.111 235.135C121.478 232.986 116.44 230.727 109.932 231.028C107.584 231.137 107.17 231.383 107.234 232.768Z" fill="#0AF22F"/>
<path d="M88.3316 222.569C88.5293 226.837 99.1632 233.595 101.099 230.701C102.107 229.21 101.399 227.997 98.88 226.867C92.9154 224.198 91.2254 222.605 89.6658 218.316C87.9411 213.524 86.1148 215.11 87.648 220.052C88.0142 221.225 88.3225 222.372 88.3316 222.569Z" fill="#0AF22F"/>
<path d="M168.95 235.244C172.334 234.382 181.447 235.077 182.057 236.221C182.735 237.489 182.127 239.146 180.906 239.287C176.46 239.769 168.544 239.101 167.474 238.178C166.099 236.982 166.695 235.809 168.95 235.244Z" fill="#0AF22F"/>
<path d="M148.227 237.328C148.494 235.451 158.739 234.421 160.275 236.097C162.427 238.46 157.198 240.232 150.748 239.315C148.421 238.984 148.032 238.7 148.227 237.328Z" fill="#0AF22F"/>
<path d="M291.699 244.017C292.52 242.309 302.598 244.424 303.555 246.485C304.893 249.389 299.372 249.497 293.502 246.673C291.383 245.654 291.098 245.266 291.699 244.017Z" fill="#0AF22F"/>
<path d="M724.62 233L724.62 219.86L728.112 219.86L731.406 227.708L731.73 227.708L735.006 219.86L738.552 219.86L738.552 233L736.014 233L736.014 221.786L736.338 221.822L732.792 230.318L730.182 230.318L726.618 221.822L726.96 221.786L726.96 233L724.62 233ZM745.97 233.342C745.13 233.342 744.392 233.198 743.756 232.91C743.132 232.622 742.61 232.238 742.19 231.758C741.782 231.266 741.47 230.72 741.254 230.12C741.05 229.52 740.948 228.908 740.948 228.284L740.948 227.942C740.948 227.294 741.05 226.67 741.254 226.07C741.47 225.458 741.782 224.918 742.19 224.45C742.61 223.97 743.126 223.592 743.738 223.316C744.35 223.028 745.058 222.884 745.862 222.884C746.918 222.884 747.8 223.118 748.508 223.586C749.228 224.042 749.768 224.648 750.128 225.404C750.488 226.148 750.668 226.952 750.668 227.816L750.668 228.716L742.01 228.716L742.01 227.186L749.102 227.186L748.328 227.942C748.328 227.318 748.238 226.784 748.058 226.34C747.878 225.896 747.602 225.554 747.23 225.314C746.87 225.074 746.414 224.954 745.862 224.954C745.31 224.954 744.842 225.08 744.458 225.332C744.074 225.584 743.78 225.95 743.576 226.43C743.384 226.898 743.288 227.462 743.288 228.122C743.288 228.734 743.384 229.28 743.576 229.76C743.768 230.228 744.062 230.6 744.458 230.876C744.854 231.14 745.358 231.272 745.97 231.272C746.582 231.272 747.08 231.152 747.464 230.912C747.848 230.66 748.094 230.354 748.202 229.994L750.506 229.994C750.362 230.666 750.086 231.254 749.678 231.758C749.27 232.262 748.748 232.652 748.112 232.928C747.488 233.204 746.774 233.342 745.97 233.342ZM758.68 233L758.68 230.102L758.266 230.102L758.266 226.88C758.266 226.316 758.128 225.896 757.852 225.62C757.576 225.344 757.15 225.206 756.574 225.206C756.274 225.206 755.914 225.212 755.494 225.224C755.074 225.236 754.648 225.254 754.216 225.278C753.796 225.29 753.418 225.308 753.082 225.332L753.082 223.208C753.358 223.184 753.67 223.16 754.018 223.136C754.366 223.112 754.72 223.1 755.08 223.1C755.452 223.088 755.8 223.082 756.124 223.082C757.132 223.082 757.966 223.214 758.626 223.478C759.298 223.742 759.802 224.156 760.138 224.72C760.486 225.284 760.66 226.022 760.66 226.934L760.66 233L758.68 233ZM755.53 233.252C754.822 233.252 754.198 233.126 753.658 232.874C753.13 232.622 752.716 232.262 752.416 231.794C752.128 231.326 751.984 230.762 751.984 230.102C751.984 229.382 752.158 228.794 752.506 228.338C752.866 227.882 753.364 227.54 754 227.312C754.648 227.084 755.404 226.97 756.268 226.97L758.536 226.97L758.536 228.464L756.232 228.464C755.656 228.464 755.212 228.608 754.9 228.896C754.6 229.172 754.45 229.532 754.45 229.976C754.45 230.42 754.6 230.78 754.9 231.056C755.212 231.332 755.656 231.47 756.232 231.47C756.58 231.47 756.898 231.41 757.186 231.29C757.486 231.158 757.732 230.942 757.924 230.642C758.128 230.33 758.242 229.91 758.266 229.382L758.878 230.084C758.818 230.768 758.65 231.344 758.374 231.812C758.11 232.28 757.738 232.64 757.258 232.892C756.79 233.132 756.214 233.252 755.53 233.252ZM766.886 233.306C765.542 233.306 764.486 233.024 763.718 232.46C762.962 231.884 762.566 231.092 762.53 230.084L764.78 230.084C764.816 230.42 765.002 230.726 765.338 231.002C765.674 231.278 766.202 231.416 766.922 231.416C767.522 231.416 767.996 231.308 768.344 231.092C768.704 230.876 768.884 230.582 768.884 230.21C768.884 229.886 768.746 229.628 768.47 229.436C768.206 229.244 767.75 229.118 767.102 229.058L766.238 228.968C765.146 228.848 764.306 228.536 763.718 228.032C763.13 227.528 762.836 226.856 762.836 226.016C762.836 225.344 763.004 224.78 763.34 224.324C763.676 223.868 764.138 223.526 764.726 223.298C765.326 223.058 766.01 222.938 766.778 222.938C767.978 222.938 768.95 223.202 769.694 223.73C770.438 224.258 770.828 225.032 770.864 226.052L768.614 226.052C768.59 225.716 768.422 225.428 768.11 225.188C767.798 224.948 767.348 224.828 766.76 224.828C766.232 224.828 765.824 224.93 765.536 225.134C765.248 225.338 765.104 225.602 765.104 225.926C765.104 226.238 765.218 226.478 765.446 226.646C765.686 226.814 766.07 226.928 766.598 226.988L767.462 227.078C768.614 227.198 769.514 227.516 770.162 228.032C770.822 228.548 771.152 229.244 771.152 230.12C771.152 230.768 770.972 231.332 770.612 231.812C770.264 232.28 769.772 232.646 769.136 232.91C768.5 233.174 767.75 233.306 766.886 233.306ZM776.549 233.306C775.421 233.306 774.545 232.934 773.921 232.19C773.309 231.446 773.003 230.342 773.003 228.878L773.003 223.208L775.505 223.208L775.505 229.094C775.505 229.694 775.673 230.174 776.009 230.534C776.345 230.882 776.801 231.056 777.377 231.056C777.953 231.056 778.421 230.87 778.781 230.498C779.153 230.126 779.339 229.622 779.339 228.986L779.339 223.208L781.841 223.208L781.841 233L779.861 233L779.861 228.842L780.059 228.842C780.059 229.826 779.933 230.648 779.681 231.308C779.429 231.968 779.051 232.466 778.547 232.802C778.043 233.138 777.413 233.306 776.657 233.306L776.549 233.306ZM784.715 233L784.715 223.226L786.695 223.226L786.695 227.366L786.641 227.366C786.641 225.962 786.941 224.9 787.541 224.18C788.141 223.46 789.023 223.1 790.187 223.1L790.547 223.1L790.547 225.278L789.863 225.278C789.023 225.278 788.369 225.506 787.901 225.962C787.445 226.406 787.217 227.054 787.217 227.906L787.217 233L784.715 233ZM796.525 233.342C795.685 233.342 794.947 233.198 794.311 232.91C793.687 232.622 793.165 232.238 792.745 231.758C792.337 231.266 792.025 230.72 791.809 230.12C791.605 229.52 791.503 228.908 791.503 228.284L791.503 227.942C791.503 227.294 791.605 226.67 791.809 226.07C792.025 225.458 792.337 224.918 792.745 224.45C793.165 223.97 793.681 223.592 794.293 223.316C794.905 223.028 795.613 222.884 796.417 222.884C797.473 222.884 798.355 223.118 799.063 223.586C799.783 224.042 800.323 224.648 800.683 225.404C801.043 226.148 801.223 226.952 801.223 227.816L801.223 228.716L792.565 228.716L792.565 227.186L799.657 227.186L798.883 227.942C798.883 227.318 798.793 226.784 798.613 226.34C798.433 225.896 798.157 225.554 797.785 225.314C797.425 225.074 796.969 224.954 796.417 224.954C795.865 224.954 795.397 225.08 795.013 225.332C794.629 225.584 794.335 225.95 794.131 226.43C793.939 226.898 793.843 227.462 793.843 228.122C793.843 228.734 793.939 229.28 794.131 229.76C794.323 230.228 794.617 230.6 795.013 230.876C795.409 231.14 795.913 231.272 796.525 231.272C797.137 231.272 797.635 231.152 798.019 230.912C798.403 230.66 798.649 230.354 798.757 229.994L801.061 229.994C800.917 230.666 800.641 231.254 800.233 231.758C799.825 232.262 799.303 232.652 798.667 232.928C798.043 233.204 797.329 233.342 796.525 233.342Z" fill="#0AF22F"/>
<path d="M570.517 241.041C580.659 244.172 591.007 242.153 582.125 238.774C580.641 238.199 568.371 237.556 567.794 238.007C566.856 238.785 568.291 240.352 570.517 241.041Z" fill="#0AF22F"/>
<path d="M543.473 239.328C548.227 240.122 559.552 240.593 560.239 240.055C563.84 237.238 549.943 234.137 541.049 235.756C538.006 236.315 539.612 238.703 543.473 239.328Z" fill="#0AF22F"/>
<path d="M625.469 243.833C634.493 244.281 640.222 243.791 640.11 242.534C639.795 239.483 633.004 238.59 621.736 240.114C618.05 240.61 621.086 243.617 625.469 243.833Z" fill="#0AF22F"/>
<path d="M597.251 242.389C599.563 242.968 611.702 243.626 612.224 243.217C615.825 240.4 606.304 237.955 595.645 238.959C592.677 239.198 593.72 241.506 597.251 242.389Z" fill="#0AF22F"/>
<path d="M502.96 235.746C492.591 233.474 482.449 236.352 491.582 238.977C493.109 239.425 505.39 239.039 505.927 238.541C506.797 237.688 505.235 236.246 502.96 235.746Z" fill="#0AF22F"/>
<path d="M220.792 236.567C231.25 234.753 241.256 238.073 232.016 240.294C230.471 240.675 218.219 239.75 217.704 239.229C216.873 238.339 218.496 236.967 220.792 236.567Z" fill="#0AF22F"/>
<path d="M529.052 235.19C524.248 234.797 512.923 235.276 512.284 235.869C508.931 238.977 523.039 240.905 531.766 238.547C534.752 237.735 532.951 235.49 529.052 235.19Z" fill="#0AF22F"/>
<path d="M192.749 234.866C197.565 234.684 208.858 235.66 209.471 236.28C212.684 239.533 198.505 240.839 189.89 238.1C186.942 237.158 188.84 234.994 192.749 234.866Z" fill="#0AF22F"/>
<path d="M90.7591 195.977C91.0223 199.969 90.3797 209.298 89.8353 209.791C86.9823 212.374 85.5168 200.602 87.7976 193.533C88.5818 191.114 90.5634 192.737 90.7591 195.977Z" fill="#0AF22F"/>
<path d="M448.967 236.562C439.937 236.871 434.268 237.839 434.486 239.082C435.055 242.096 441.897 242.418 452.997 239.956C456.629 239.153 453.353 236.411 448.967 236.562Z" fill="#0AF22F"/>
<path d="M271.697 239.754C280.704 240.458 286.325 241.674 286.053 242.906C285.352 245.893 278.503 245.914 267.521 242.967C263.928 242.005 267.322 239.41 271.697 239.754Z" fill="#0AF22F"/>
<path d="M477.206 235.64C474.854 235.257 462.703 235.617 462.216 236.068C458.864 239.176 468.556 240.817 479.094 238.924C482.032 238.437 480.799 236.225 477.206 235.64Z" fill="#0AF22F"/>
<path d="M245.525 237.592C247.891 237.313 260.015 238.206 260.481 238.678C263.694 241.931 253.939 243.144 243.495 240.79C240.581 240.175 241.91 238.018 245.525 237.592Z" fill="#0AF22F"/>
</g>
<defs>
<clipPath id="clip0_328_148">
<rect width="829" height="268" fill="white"/>
</clipPath>
<clipPath id="clip1_328_148">
<rect width="99.0203" height="99.1335" fill="white" transform="matrix(-0.9853 0.170832 0.170832 0.9853 507.565 101)"/>
</clipPath>
<clipPath id="clip2_328_148">
<rect width="107.313" height="99.1335" fill="white" transform="matrix(-0.139886 -0.990168 -0.990168 0.139886 399.17 291.258)"/>
</clipPath>
</defs>
</svg>
