<svg fill="none" height="268" viewBox="0 0 829 268" width="829" xmlns="http://www.w3.org/2000/svg" xmlns:xlink="http://www.w3.org/1999/xlink"><clipPath id="a"><path d="m0 0h829v268h-829z"/></clipPath><clipPath id="b"><path d="m0 0h99.0203v99.1335h-99.0203z" transform="matrix(-.9853 .170832 .170832 .9853 507.565 101)"/></clipPath><clipPath id="c"><path d="m0 0h107.313v99.1335h-107.313z" transform="matrix(-.139886 -.990168 -.990168 .139886 399.17 291.258)"/></clipPath><g clip-path="url(#a)"><path clip-rule="evenodd" d="m219.15 69.591c.362-12.5407.491-14.8937.801-16.5744.259-1.4222-.31-2.9219-1.318-3.3873-1.578-.7499-1.19-.0776-1.681 10.9117-.129 2.896-.078 8.9466-.207 11.5581-.052.8016-1.603 1.1636-1.551-.181l.207-24.6677 1.163-.181c1.345-.2068 1.526-.6981.569-1.7841-.75-.8533-1.707-1.0602-6.775-1.4222-64.823-4.4474-64.591-4.9128-107.953-5.068-13.7302-.0517-25.0815-.0517-25.2108 0-.6206.2327-18.3327.1035-33.1489 1.086-2.353.1552-2.5598.362-1.5514 1.5256s3.1804 1.2929 17.8932.9309c26.6328-.6206 86.2339-.1035 86.2339.7498 0 .2327-5.87.3362-14.868.2586-25.702-.2327-61.3851 1.3704-84.1652 3.7493-6.9039.724-6.9556.7498-6.5419 1.991.6464 1.8875.6723 12.4631.9826 15.9538.0776.7757 1.4221 31.856 1.4221 32.7093 0 2.172.2586 3.5686.724 3.9306.5172.388 1.7583.439 1.8876.051.0517-.181.3103-.181.8274 0 1.448.543 9.955.828 19.6773.673 5.249-.104 13.1096-.052 17.4536.103 9.6964.31 44.7585 1.009 59.6005 1.707 4.396.207 32.347 1.37 38.915 1.706 9.386.466 29.581.44 29.891-.051.802-1.319-2.379-2.534-6.645-2.56-3.517 0-3.62-1.733.439-1.888.285 0 2.483-.103 9.231.181 0 0 0 .724-.181 2.198-.181 1.526 1.448 3.853 2.25-.078.052-.31.284-2.172.284-2.172s1.319-.129 1.526-.206c.75-.285.905-1.242.207-2.1466-.233-.2844-1.241-.5947-1.241-.5947s.232-7.8606.853-29.0117zm-5.792-15.747c-.155 2.534-1.914 39.4838-2.017 41.0094-.155 2.6116-.207 2.7926-.698 2.7926-2.146 0-16.187-2.0427-52.775-1.0343-4.706.1293-111.1335 1.9393-111.1335 1.9393-.3362 0-.5947-.2586-.5947-.5689-.362-8.688-.6723-10.7565-.6723-14.1697 0-.3103.2327-.543.543-.543.2844 0 .543.2327.5688.5172.6982 13.1613.4655 13.6008 2.0945 13.6008.4137 0 .724-.3361.724-.7498 0-2.5599-.2069-5.8955-.3879-8.4295-.9308-14.0404-1.1118-24.2023-2.534-38.3203 3.8269-.1034 10.4722-.2327 14.299-.6981 13.937-1.6548 49.1031-1.9134 49.3351-2.1461.285-.2586 28.934-.0518 40.286.2844 7.085.2068 51.197 1.4997 55.386 1.5773 9.05.1551 7.886-.6206 7.576 4.9387z" fill="#b3b3cd" fill-rule="evenodd"/><path clip-rule="evenodd" d="m623.416 69.591c.31-12.5407.42-14.8937.686-16.5744.222-1.4222-.266-2.9219-1.129-3.3873-1.351-.7499-1.019-.0776-1.439 10.9117-.111 2.896-.067 8.9466-.178 11.5581-.044.8016-1.372 1.1636-1.328-.181l.177-24.6677.996-.181c1.152-.2068 1.307-.6981.488-1.7841-.643-.8533-1.462-1.0602-5.802-1.4222-55.512-4.4474-55.313-4.9128-92.446-5.068-11.758-.0517-21.479-.0517-21.59 0-.531.2327-15.699.1035-28.387 1.086-2.015.1552-2.192.362-1.328 1.5256.863 1.1636 2.723 1.2929 15.323.9309 22.807-.6206 73.846-.1035 73.846.7498 0 .2327-5.026.3362-12.732.2586-22.01-.2327-52.567 1.3704-72.075 3.7493-5.912.724-5.957.7498-5.602 1.991.553 1.8875.575 12.4631.841 15.9538.067.7757 1.218 31.856 1.218 32.7093 0 2.172.221 3.5686.62 3.9306.443.388 1.506.439 1.616.051.045-.181.266-.181.709 0 1.24.543 8.525.828 16.851.673 4.495-.104 11.226-.052 14.946.103 8.304.31 38.329 1.009 51.039 1.707 3.765.207 27.701 1.37 33.325 1.706 8.038.466 25.332.44 25.598-.051.686-1.319-2.038-2.534-5.691-2.56-3.012 0-3.1-1.733.376-1.888.244 0 2.126-.103 7.905.181 0 0 0 .724-.155 2.198-.155 1.526 1.24 3.853 1.927-.078.044-.31.243-2.172.243-2.172s1.13-.129 1.307-.206c.642-.285.775-1.242.177-2.1466-.199-.2844-1.063-.5947-1.063-.5947s.199-7.8606.731-29.0117zm-4.96-15.747c-.133 2.534-1.639 39.4838-1.727 41.0094-.133 2.6116-.178 2.7926-.598 2.7926-1.838 0-13.862-2.0427-45.194-1.0343-4.03.1293-95.17 1.9393-95.17 1.9393-.288 0-.509-.2586-.509-.5689-.31-8.688-.576-10.7565-.576-14.1697 0-.3103.199-.543.465-.543.244 0 .465.2327.487.5172.598 13.1613.399 13.6008 1.794 13.6008.354 0 .62-.3361.62-.7498 0-2.5599-.177-5.8955-.332-8.4295-.797-14.0404-.952-24.2023-2.17-38.3203 3.277-.1034 8.968-.2327 12.245-.6981 11.935-1.6548 42.049-1.9134 42.248-2.1461.244-.2586 24.778-.0518 34.499.2844 6.067.2068 43.843 1.4997 47.43 1.5773 7.75.1551 6.753-.6206 6.488 4.9387z" fill="#b3b3cd" fill-rule="evenodd"/><path d="m267.568 195.182c.281-2.957 1.045-26.527 1.267-28.558.402-3.54 1.608-38.794 1.327-39.056-1.227-1.227-1.931.603-2.333 6.154l-.241 3.258c-.322-9.03-.201-8.788-1.086-9.251-2.032-1.046-1.609.865-1.609 4.927 0 7.381-.362 19.588-.704 24.234-.161 2.333-1.408 31.293-1.549 32.419-.281 2.353-.14 2.735.925 2.635.503-.04.624-.141.624-.563 0-.765.764-4.023.945-4.023.081 0 .161 1.971.161 4.405 0 1.568 0 2.634.04 3.358.141 1.83 1.448 2.514 2.233.061z" fill="#b3b3cd"/><path d="m407.799 183.198c-.298-4.618-.298-52.838 0-53.082.696-.575-1.126-1.76-2.715-1.778-2.087-.017-25.567-1.045-38.334-1.324-1.589-.035-6.954 0-11.922.069-12.518.175-11.194.349-19.705.697-12.054.488-17.502.889-37.091 2.719-8.395.784-19.788 2.109-24.805 2.841-3.527.522-2.169 1.307-.017 1.481 7.584.575 49.527.592 59.165-.07 1.374-.087 16.757-.871 19.009-1.045 4.968-.419 9.405-.628 18.016-.872 6.441-.191 31.66-1.516 33.001-1.673 3.014-.348 2.766-1.08 2.037 5.838-.613 5.96-1.027 12.094-1.176 17.131-.463-4.235-1.043-7.11-1.175-18.821 0-.262-.199-.488-.448-.523-.745-.087-.844 8.138-.215 17.357.133 1.882.315 4.88.414 6.657.497 9.027 1.888 22.097 2.848 27.744.05.348-.033.697-.248.958-.215.262-.53.418-.861.436-5.779.07-20.334-.07-22.768-.262-11.475-.888-16.327-1.045-33.532-1.063-19.986-.017-27.702.314-47.44 1.987-10.118.854-14.423 1.342-21.858 2.44-3.874.575-7.749 1.115-8.594 1.22-2.583.296-2.848.522-1.838 1.586.646.679.878.679 8.081-.262 8.942-1.167 11.823-1.359 27.703-1.83 3.229-.104 6.805-.261 7.948-.348 2.219-.192 18.082-.715 20.284-.662 1.474.034 1.242.052-2.898.313-4.851.314-13.462 1.028-16.972 1.394-13.694 1.482-21.709 2.092-22.354 1.726-1.209-.68-7.502.993-7.038 1.882.961 1.812 1.639.557 11.012-.053 3.792-.244 6.441-.487 17.8-1.655 10.084-1.028 23.663-1.934 32.786-2.178 11.111-.297 34.658-1.656 53.253-1.36 10.084.157 9.571.105 7.816-1.725l1.142.087c2.103.14 2.07.209 1.689-5.977zm-67.973-50.12c-2.153.07-5.895.227-8.313.366-4.686.262-27.156.593-45.304.401 13.694-.976 28.083-1.586 50.305-1.237 8.048.122 9.19.279 3.312.47zm59.545-3.206c-1.341.191-6.061.069-10.813.418-5.266.401-10.796.314-16.095.749-8.561.697-50.057-.087-61.598.349l-7.783.296c-9.273.349 20.136-1.708 22.023-1.812 6.773-.366 23.961-1.098 24.507-1.116 2.037-.122 28.514.053 33.78.227 2.997.104 13.81.714 14.903.732 1.655.035 1.838.052 1.076.157z" fill="#b3b3cd"/><path d="m676.568 195.182c.281-2.957 1.045-26.527 1.267-28.558.402-3.54 1.608-38.794 1.327-39.056-1.227-1.227-1.931.603-2.333 6.154l-.241 3.258c-.322-9.03-.201-8.788-1.086-9.251-2.032-1.046-1.609.865-1.609 4.927 0 7.381-.362 19.588-.704 24.234-.161 2.333-1.408 31.293-1.549 32.419-.281 2.353-.14 2.735.925 2.635.503-.04.624-.141.624-.563 0-.765.764-4.023.945-4.023.081 0 .161 1.971.161 4.405 0 1.568 0 2.634.04 3.358.141 1.83 1.448 2.514 2.233.061z" fill="#b3b3cd"/><path d="m816.799 183.198c-.298-4.618-.298-52.838 0-53.082.696-.575-1.126-1.76-2.715-1.778-2.087-.017-25.567-1.045-38.334-1.324-1.589-.035-6.954 0-11.922.069-12.518.175-11.194.349-19.705.697-12.054.488-17.502.889-37.091 2.719-8.395.784-19.788 2.109-24.805 2.841-3.527.522-2.169 1.307-.017 1.481 7.584.575 49.527.592 59.165-.07 1.374-.087 16.757-.871 19.009-1.045 4.968-.419 9.405-.628 18.016-.872 6.441-.191 31.66-1.516 33.001-1.673 3.014-.348 2.766-1.08 2.037 5.838-.613 5.96-1.027 12.094-1.176 17.131-.463-4.235-1.043-7.11-1.175-18.821 0-.262-.199-.488-.448-.523-.745-.087-.844 8.138-.215 17.357.133 1.882.315 4.88.414 6.657.497 9.027 1.888 22.097 2.848 27.744.05.348-.033.697-.248.958-.215.262-.53.418-.861.436-5.779.07-20.334-.07-22.768-.262-11.475-.888-16.327-1.045-33.532-1.063-19.986-.017-27.702.314-47.44 1.987-10.118.854-14.423 1.342-21.858 2.44-3.874.575-7.749 1.115-8.594 1.22-2.583.296-2.848.522-1.838 1.586.646.679.878.679 8.081-.262 8.942-1.167 11.823-1.359 27.703-1.83 3.229-.104 6.805-.261 7.948-.348 2.219-.192 18.082-.715 20.284-.662 1.474.034 1.242.052-2.898.313-4.851.314-13.462 1.028-16.972 1.394-13.694 1.482-21.709 2.092-22.354 1.726-1.209-.68-7.502.993-7.038 1.882.961 1.812 1.639.557 11.012-.053 3.792-.244 6.441-.487 17.8-1.655 10.084-1.028 23.663-1.934 32.786-2.178 11.111-.297 34.658-1.656 53.253-1.36 10.084.157 9.571.105 7.816-1.725l1.142.087c2.103.14 2.07.209 1.689-5.977zm-67.973-50.12c-2.153.07-5.895.227-8.313.366-4.686.262-27.156.593-45.304.401 13.694-.976 28.083-1.586 50.305-1.237 8.048.122 9.19.279 3.312.47zm59.545-3.206c-1.341.191-6.061.069-10.813.418-5.266.401-10.796.314-16.095.749-8.561.697-50.057-.087-61.598.349l-7.783.296c-9.273.349 20.136-1.708 22.023-1.812 6.773-.366 23.961-1.098 24.507-1.116 2.037-.122 28.514.053 33.78.227 2.997.104 13.81.714 14.903.732 1.655.035 1.838.052 1.076.157z" fill="#b3b3cd"/><path d="m285.43 170v-19.71h3.753v19.71zm3.213 0v-3.24h8.937v3.24zm0-8.397v-3.24h8.235v3.24zm0-8.073v-3.24h8.721v3.24zm10.9 16.47 4.779-7.83-.081.621-4.509-7.452h4.077l2.943 5.157h.405l2.781-5.157h3.834l-4.266 7.425.081-.54 5.049 7.776h-4.077l-3.483-5.535h-.405l-3.294 5.535zm17.521 5.4v-20.061h2.97v6.318l-.459-.027c.072-1.494.378-2.745.918-3.753.558-1.008 1.296-1.755 2.214-2.241.918-.504 1.944-.756 3.078-.756 1.044 0 1.98.189 2.808.567.846.378 1.566.909 2.16 1.593.612.684 1.08 1.485 1.404 2.403.324.9.486 1.872.486 2.916v.567c0 1.062-.162 2.052-.486 2.97-.306.9-.765 1.701-1.377 2.403-.594.684-1.314 1.224-2.16 1.62-.846.378-1.791.567-2.835.567-1.098 0-2.106-.225-3.024-.675-.9-.468-1.629-1.179-2.187-2.133-.558-.972-.873-2.223-.945-3.753l1.188 1.809v9.666zm7.776-8.073c.81 0 1.512-.198 2.106-.594.612-.396 1.089-.945 1.431-1.647.342-.72.513-1.53.513-2.43 0-.936-.171-1.746-.513-2.43s-.819-1.215-1.431-1.593c-.594-.396-1.296-.594-2.106-.594-.738 0-1.422.162-2.052.486-.612.324-1.116.801-1.512 1.431-.378.63-.567 1.386-.567 2.268v1.08c0 .846.198 1.566.594 2.16s.909 1.053 1.539 1.377 1.296.486 1.998.486zm11.292 2.673v-19.71h3.753v19.71zm-1.836-16.902v-2.808h5.589v2.808zm16.92 17.415c-1.296 0-2.439-.207-3.429-.621s-1.827-.972-2.511-1.674c-.684-.72-1.206-1.53-1.566-2.43-.342-.9-.513-1.836-.513-2.808v-.567c0-1.008.18-1.962.54-2.862.378-.918.909-1.728 1.593-2.43.702-.72 1.548-1.278 2.538-1.674.99-.414 2.106-.621 3.348-.621s2.358.207 3.348.621c.99.396 1.827.954 2.511 1.674.702.702 1.233 1.512 1.593 2.43.36.9.54 1.854.54 2.862v.567c0 .972-.18 1.908-.54 2.808-.342.9-.855 1.71-1.539 2.43-.684.702-1.521 1.26-2.511 1.674s-2.124.621-3.402.621zm0-3.213c.918 0 1.692-.198 2.322-.594.63-.414 1.107-.963 1.431-1.647.324-.702.486-1.494.486-2.376 0-.9-.171-1.692-.513-2.376-.324-.702-.81-1.251-1.458-1.647-.63-.414-1.386-.621-2.268-.621s-1.647.207-2.295.621c-.63.396-1.116.945-1.458 1.647-.342.684-.513 1.476-.513 2.376 0 .882.162 1.674.486 2.376.342.684.828 1.233 1.458 1.647.63.396 1.404.594 2.322.594zm11.278 2.7v-14.661h2.97v6.21h-.081c0-2.106.45-3.699 1.35-4.779s2.223-1.62 3.969-1.62h.54v3.267h-1.026c-1.26 0-2.241.342-2.943 1.026-.684.666-1.026 1.638-1.026 2.916v7.641zm17.715.513c-1.26 0-2.367-.216-3.321-.648-.936-.432-1.719-1.008-2.349-1.728-.612-.738-1.08-1.557-1.404-2.457-.306-.9-.459-1.818-.459-2.754v-.513c0-.972.153-1.908.459-2.808.324-.918.792-1.728 1.404-2.43.63-.72 1.404-1.287 2.322-1.701.918-.432 1.98-.648 3.186-.648 1.584 0 2.907.351 3.969 1.053 1.08.684 1.89 1.593 2.43 2.727.54 1.116.81 2.322.81 3.618v1.35h-12.987v-2.295h10.638l-1.161 1.134c0-.936-.135-1.737-.405-2.403s-.684-1.179-1.242-1.539c-.54-.36-1.224-.54-2.052-.54s-1.53.189-2.106.567-1.017.927-1.323 1.647c-.288.702-.432 1.548-.432 2.538 0 .918.144 1.737.432 2.457.288.702.729 1.26 1.323 1.674.594.396 1.35.594 2.268.594s1.665-.18 2.241-.54c.576-.378.945-.837 1.107-1.377h3.456c-.216 1.008-.63 1.89-1.242 2.646s-1.395 1.341-2.349 1.755c-.936.414-2.007.621-3.213.621z" fill="#fff"/><path d="m697.724 170.108v-3.564h4.077c1.026 0 1.935-.153 2.727-.459.81-.324 1.494-.774 2.052-1.35s.981-1.251 1.269-2.025c.306-.792.459-1.665.459-2.619 0-.99-.153-1.872-.459-2.646-.288-.792-.711-1.467-1.269-2.025s-1.242-.981-2.052-1.269c-.792-.288-1.701-.432-2.727-.432h-4.077v-3.564h3.834c1.782 0 3.339.261 4.671.783s2.439 1.242 3.321 2.16c.882.9 1.539 1.935 1.971 3.105.45 1.152.675 2.349.675 3.591v.594c0 1.188-.225 2.358-.675 3.51-.432 1.152-1.089 2.196-1.971 3.132s-1.989 1.683-3.321 2.241-2.889.837-4.671.837zm-3.294 0v-19.953h3.834v19.953zm27.463.405c-1.26 0-2.367-.216-3.321-.648-.936-.432-1.719-1.008-2.349-1.728-.612-.738-1.08-1.557-1.404-2.457-.306-.9-.459-1.818-.459-2.754v-.513c0-.972.153-1.908.459-2.808.324-.918.792-1.728 1.404-2.43.63-.72 1.404-1.287 2.322-1.701.918-.432 1.98-.648 3.186-.648 1.584 0 2.907.351 3.969 1.053 1.08.684 1.89 1.593 2.43 2.727.54 1.116.81 2.322.81 3.618v1.35h-12.987v-2.295h10.638l-1.161 1.134c0-.936-.135-1.737-.405-2.403s-.684-1.179-1.242-1.539c-.54-.36-1.224-.54-2.052-.54s-1.53.189-2.106.567-1.017.927-1.323 1.647c-.288.702-.432 1.548-.432 2.538 0 .918.144 1.737.432 2.457.288.702.729 1.26 1.323 1.674.594.396 1.35.594 2.268.594s1.665-.18 2.241-.54c.576-.378.945-.837 1.107-1.377h3.456c-.216 1.008-.63 1.89-1.242 2.646s-1.395 1.341-2.349 1.755c-.936.414-2.007.621-3.213.621zm10.371-.513v-19.71h3.753v19.71zm-1.836-16.902v-2.808h5.589v2.808zm10.576 16.902v-14.661h3.753v14.661zm-2.052-11.853v-2.808h5.805v2.808zm3.429-4.563c-.738 0-1.287-.189-1.647-.567-.342-.396-.513-.882-.513-1.458 0-.612.171-1.107.513-1.485.36-.378.909-.567 1.647-.567s1.278.189 1.62.567.513.873.513 1.485c0 .576-.171 1.062-.513 1.458-.342.378-.882.567-1.62.567zm9.644 16.416-4.59-14.661h3.861l4.401 14.661zm1.107 0v-3.078h3.969v3.078zm1.485 0 3.78-14.661h3.618l-3.969 14.661zm16.477.513c-1.26 0-2.367-.216-3.321-.648-.936-.432-1.719-1.008-2.349-1.728-.612-.738-1.08-1.557-1.404-2.457-.306-.9-.459-1.818-.459-2.754v-.513c0-.972.153-1.908.459-2.808.324-.918.792-1.728 1.404-2.43.63-.72 1.404-1.287 2.322-1.701.918-.432 1.98-.648 3.186-.648 1.584 0 2.907.351 3.969 1.053 1.08.684 1.89 1.593 2.43 2.727.54 1.116.81 2.322.81 3.618v1.35h-12.987v-2.295h10.638l-1.161 1.134c0-.936-.135-1.737-.405-2.403s-.684-1.179-1.242-1.539c-.54-.36-1.224-.54-2.052-.54s-1.53.189-2.106.567-1.017.927-1.323 1.647c-.288.702-.432 1.548-.432 2.538 0 .918.144 1.737.432 2.457.288.702.729 1.26 1.323 1.674.594.396 1.35.594 2.268.594s1.665-.18 2.241-.54c.576-.378.945-.837 1.107-1.377h3.456c-.216 1.008-.63 1.89-1.242 2.646s-1.395 1.341-2.349 1.755c-.936.414-2.007.621-3.213.621zm10.183-.513v-14.661h2.97v6.21h-.081c0-2.106.45-3.699 1.35-4.779s2.223-1.62 3.969-1.62h.54v3.267h-1.026c-1.26 0-2.241.342-2.943 1.026-.684.666-1.026 1.638-1.026 2.916v7.641z" fill="#fff"/><path d="m60.43 80v-19.71h3.753v19.71zm3.213 0v-3.24h8.937v3.24zm0-8.397v-3.24h8.235v3.24zm0-8.073v-3.24h8.721v3.24zm12.574 16.47v-14.661h2.97v6.291h-.27c0-1.476.189-2.709.567-3.699.378-1.008.936-1.764 1.674-2.268.756-.522 1.692-.783 2.808-.783h.162c1.134 0 2.07.261 2.808.783.756.504 1.314 1.26 1.674 2.268.378.99.567 2.223.567 3.699h-.945c0-1.476.189-2.709.567-3.699.396-1.008.963-1.764 1.701-2.268.756-.522 1.692-.783 2.808-.783h.162c1.134 0 2.079.261 2.835.783.756.504 1.323 1.26 1.701 2.268.396.99.594 2.223.594 3.699v8.37h-3.753v-8.721c0-.918-.234-1.647-.702-2.187-.468-.558-1.134-.837-1.998-.837s-1.557.288-2.079.864c-.522.558-.783 1.314-.783 2.268v8.613h-3.753v-8.721c0-.918-.234-1.647-.702-2.187-.468-.558-1.134-.837-1.998-.837s-1.557.288-2.079.864c-.522.558-.783 1.314-.783 2.268v8.613zm26.394 5.4v-20.061h2.97v6.318l-.459-.027c.072-1.494.378-2.745.918-3.753.558-1.008 1.296-1.755 2.214-2.241.918-.504 1.944-.756 3.078-.756 1.044 0 1.98.189 2.808.567.846.378 1.566.909 2.16 1.593.612.684 1.08 1.485 1.404 2.403.324.9.486 1.872.486 2.916v.567c0 1.062-.162 2.052-.486 2.97-.306.9-.765 1.701-1.377 2.403-.594.684-1.314 1.224-2.16 1.62-.846.378-1.791.567-2.835.567-1.098 0-2.106-.225-3.024-.675-.9-.468-1.629-1.179-2.187-2.133-.558-.972-.873-2.223-.945-3.753l1.188 1.809v9.666zm7.776-8.073c.81 0 1.512-.198 2.106-.594.612-.396 1.089-.945 1.431-1.647.342-.72.513-1.53.513-2.43 0-.936-.171-1.746-.513-2.43s-.819-1.215-1.431-1.593c-.594-.396-1.296-.594-2.106-.594-.738 0-1.422.162-2.052.486-.612.324-1.116.801-1.512 1.431-.378.63-.567 1.386-.567 2.268v1.08c0 .846.198 1.566.594 2.16s.909 1.053 1.539 1.377 1.296.486 1.998.486zm19.985 2.673v-4.347h-.621v-4.833c0-.846-.207-1.476-.621-1.89s-1.053-.621-1.917-.621c-.45 0-.99.009-1.62.027s-1.269.045-1.917.081c-.63.018-1.197.045-1.701.081v-3.186c.414-.036.882-.072 1.404-.108s1.053-.054 1.593-.054c.558-.018 1.08-.027 1.566-.027 1.512 0 2.763.198 3.753.594 1.008.396 1.764 1.017 2.268 1.863.522.846.783 1.953.783 3.321v9.099zm-4.725.378c-1.062 0-1.998-.189-2.808-.567-.792-.378-1.413-.918-1.863-1.62-.432-.702-.648-1.548-.648-2.538 0-1.08.261-1.962.783-2.646.54-.684 1.287-1.197 2.241-1.539.972-.342 2.106-.513 3.402-.513h3.402v2.241h-3.456c-.864 0-1.53.216-1.998.648-.45.414-.675.954-.675 1.62s.225 1.206.675 1.62c.468.414 1.134.621 1.998.621.522 0 .999-.09 1.431-.27.45-.198.819-.522 1.107-.972.306-.468.477-1.098.513-1.89l.918 1.053c-.09 1.026-.342 1.89-.756 2.592-.396.702-.954 1.242-1.674 1.62-.702.36-1.566.54-2.592.54zm18.087-.189c-1.35 0-2.466-.171-3.348-.513-.864-.36-1.512-.954-1.944-1.782-.432-.846-.648-1.98-.648-3.402l.027-13.284h3.51l-.027 13.527c0 .72.189 1.278.567 1.674.396.378.954.567 1.674.567h2.295v3.213zm-8.262-12.096v-2.754h10.368v2.754zm13.518 11.907v-19.71h3.753v11.502h-.648c0-1.476.189-2.727.567-3.753s.936-1.809 1.674-2.349c.756-.54 1.71-.81 2.862-.81h.162c1.674 0 2.943.576 3.807 1.728s1.296 2.826 1.296 5.022v8.37h-3.753v-8.721c0-.936-.27-1.674-.81-2.214-.522-.54-1.215-.81-2.079-.81-.918 0-1.665.306-2.241.918-.558.594-.837 1.377-.837 2.349v8.478zm18.21 0v-14.661h3.753v14.661zm-2.052-11.853v-2.808h5.805v2.808zm3.429-4.563c-.738 0-1.287-.189-1.647-.567-.342-.396-.513-.882-.513-1.458 0-.612.171-1.107.513-1.485.36-.378.909-.567 1.647-.567s1.278.189 1.62.567.513.873.513 1.485c0 .576-.171 1.062-.513 1.458-.342.378-.882.567-1.62.567zm5.757 16.416v-2.97l7.236-8.694v.432l-.567-.756.459.216h-7.155v-2.889h11.178v2.97l-7.236 8.694v-.405l.594.756-.459-.243h7.398v2.889zm20.768.513c-1.26 0-2.367-.216-3.321-.648-.936-.432-1.719-1.008-2.349-1.728-.612-.738-1.08-1.557-1.404-2.457-.306-.9-.459-1.818-.459-2.754v-.513c0-.972.153-1.908.459-2.808.324-.918.792-1.728 1.404-2.43.63-.72 1.404-1.287 2.322-1.701.918-.432 1.98-.648 3.186-.648 1.584 0 2.907.351 3.969 1.053 1.08.684 1.89 1.593 2.43 2.727.54 1.116.81 2.322.81 3.618v1.35h-12.987v-2.295h10.638l-1.161 1.134c0-.936-.135-1.737-.405-2.403s-.684-1.179-1.242-1.539c-.54-.36-1.224-.54-2.052-.54s-1.53.189-2.106.567-1.017.927-1.323 1.647c-.288.702-.432 1.548-.432 2.538 0 .918.144 1.737.432 2.457.288.702.729 1.26 1.323 1.674.594.396 1.35.594 2.268.594s1.665-.18 2.241-.54c.576-.378.945-.837 1.107-1.377h3.456c-.216 1.008-.63 1.89-1.242 2.646s-1.395 1.341-2.349 1.755c-.936.414-2.007.621-3.213.621z" fill="#fff"/><path d="m494.858 80-6.291-19.71h3.969l5.211 17.064-1.134-.54h2.916l-1.161.54 4.806-17.064h3.834l-5.832 19.71zm23.169 0v-4.347h-.621v-4.833c0-.846-.207-1.476-.621-1.89s-1.053-.621-1.917-.621c-.45 0-.99.009-1.62.027s-1.269.045-1.917.081c-.63.018-1.197.045-1.701.081v-3.186c.414-.036.882-.072 1.404-.108s1.053-.054 1.593-.054c.558-.018 1.08-.027 1.566-.027 1.512 0 2.763.198 3.753.594 1.008.396 1.764 1.017 2.268 1.863.522.846.783 1.953.783 3.321v9.099zm-4.725.378c-1.062 0-1.998-.189-2.808-.567-.792-.378-1.413-.918-1.863-1.62-.432-.702-.648-1.548-.648-2.538 0-1.08.261-1.962.783-2.646.54-.684 1.287-1.197 2.241-1.539.972-.342 2.106-.513 3.402-.513h3.402v2.241h-3.456c-.864 0-1.53.216-1.998.648-.45.414-.675.954-.675 1.62s.225 1.206.675 1.62c.468.414 1.134.621 1.998.621.522 0 .999-.09 1.431-.27.45-.198.819-.522 1.107-.972.306-.468.477-1.098.513-1.89l.918 1.053c-.09 1.026-.342 1.89-.756 2.592-.396.702-.954 1.242-1.674 1.62-.702.36-1.566.54-2.592.54zm11.904-.378v-19.71h3.753v19.71zm-1.836-16.902v-2.808h5.589v2.808zm10.575 16.902v-14.661h3.753v14.661zm-2.052-11.853v-2.808h5.805v2.808zm3.429-4.563c-.738 0-1.287-.189-1.647-.567-.342-.396-.513-.882-.513-1.458 0-.612.171-1.107.513-1.485.36-.378.909-.567 1.647-.567s1.278.189 1.62.567.513.873.513 1.485c0 .576-.171 1.062-.513 1.458-.342.378-.882.567-1.62.567zm12.777 16.902c-1.026 0-1.971-.189-2.835-.567s-1.611-.909-2.241-1.593-1.116-1.476-1.458-2.376c-.342-.918-.513-1.908-.513-2.97v-.567c0-1.044.162-2.025.486-2.943.342-.918.81-1.719 1.404-2.403.612-.684 1.341-1.215 2.187-1.593.864-.396 1.818-.594 2.862-.594 1.152 0 2.16.252 3.024.756.882.486 1.584 1.224 2.106 2.214s.81 2.232.864 3.726l-1.107-1.296v-9.99h3.753v19.71h-2.97v-6.237h.648c-.054 1.494-.36 2.745-.918 3.753-.558.99-1.296 1.737-2.214 2.241-.9.486-1.926.729-3.078.729zm.837-3.159c.738 0 1.413-.162 2.025-.486.612-.342 1.098-.828 1.458-1.458.378-.648.567-1.404.567-2.268v-1.08c0-.864-.189-1.584-.567-2.16-.378-.594-.873-1.044-1.485-1.35-.612-.324-1.278-.486-1.998-.486-.81 0-1.53.198-2.16.594-.612.378-1.098.918-1.458 1.62-.342.702-.513 1.521-.513 2.457s.18 1.755.54 2.457c.36.684.846 1.215 1.458 1.593.63.378 1.341.567 2.133.567zm20.85 2.673v-4.347h-.621v-4.833c0-.846-.207-1.476-.621-1.89s-1.053-.621-1.917-.621c-.45 0-.99.009-1.62.027s-1.269.045-1.917.081c-.63.018-1.197.045-1.701.081v-3.186c.414-.036.882-.072 1.404-.108s1.053-.054 1.593-.054c.558-.018 1.08-.027 1.566-.027 1.512 0 2.763.198 3.753.594 1.008.396 1.764 1.017 2.268 1.863.522.846.783 1.953.783 3.321v9.099zm-4.725.378c-1.062 0-1.998-.189-2.808-.567-.792-.378-1.413-.918-1.863-1.62-.432-.702-.648-1.548-.648-2.538 0-1.08.261-1.962.783-2.646.54-.684 1.287-1.197 2.241-1.539.972-.342 2.106-.513 3.402-.513h3.402v2.241h-3.456c-.864 0-1.53.216-1.998.648-.45.414-.675.954-.675 1.62s.225 1.206.675 1.62c.468.414 1.134.621 1.998.621.522 0 .999-.09 1.431-.27.45-.198.819-.522 1.107-.972.306-.468.477-1.098.513-1.89l.918 1.053c-.09 1.026-.342 1.89-.756 2.592-.396.702-.954 1.242-1.674 1.62-.702.36-1.566.54-2.592.54zm18.087-.189c-1.35 0-2.466-.171-3.348-.513-.864-.36-1.512-.954-1.944-1.782-.432-.846-.648-1.98-.648-3.402l.027-13.284h3.51l-.027 13.527c0 .72.189 1.278.567 1.674.396.378.954.567 1.674.567h2.295v3.213zm-8.262-12.096v-2.754h10.368v2.754zm19.999 12.42c-1.26 0-2.367-.216-3.321-.648-.936-.432-1.719-1.008-2.349-1.728-.612-.738-1.08-1.557-1.404-2.457-.306-.9-.459-1.818-.459-2.754v-.513c0-.972.153-1.908.459-2.808.324-.918.792-1.728 1.404-2.43.63-.72 1.404-1.287 2.322-1.701.918-.432 1.98-.648 3.186-.648 1.584 0 2.907.351 3.969 1.053 1.08.684 1.89 1.593 2.43 2.727.54 1.116.81 2.322.81 3.618v1.35h-12.987v-2.295h10.638l-1.161 1.134c0-.936-.135-1.737-.405-2.403s-.684-1.179-1.242-1.539c-.54-.36-1.224-.54-2.052-.54s-1.53.189-2.106.567-1.017.927-1.323 1.647c-.288.702-.432 1.548-.432 2.538 0 .918.144 1.737.432 2.457.288.702.729 1.26 1.323 1.674.594.396 1.35.594 2.268.594s1.665-.18 2.241-.54c.576-.378.945-.837 1.107-1.377h3.456c-.216 1.008-.63 1.89-1.242 2.646s-1.395 1.341-2.349 1.755c-.936.414-2.007.621-3.213.621z" fill="#fff"/><rect fill="#91a7ed" height="44.25" rx="22.125" width="44.25" x="10.875" y="11.875"/><rect height="44.25" rx="22.125" stroke="#27272b" stroke-width="2.25" width="44.25" x="10.875" y="11.875"/><path d="m32.3062 44.1286v-16.7055l1.221.9435h-4.995v-4.4955h8.9355v20.2575z" fill="#000"/><rect fill="#91a7ed" height="44.25" rx="22.125" width="44.25" x="239.875" y="101.875"/><rect height="44.25" rx="22.125" stroke="#27272b" stroke-width="2.25" width="44.25" x="239.875" y="101.875"/><path d="m254.73 134.434v-4.44c0-.888.148-1.665.444-2.331.314-.685.795-1.286 1.443-1.804.666-.518 1.526-.999 2.58-1.443l3.081-1.304c.795-.333 1.369-.731 1.72-1.193.37-.463.555-1.046.555-1.749 0-.647-.222-1.193-.666-1.637-.425-.462-1.054-.694-1.887-.694-.851 0-1.489.241-1.915.722-.425.462-.638 1.091-.638 1.887h-4.995c0-1.332.287-2.516.86-3.552.574-1.036 1.416-1.85 2.526-2.442 1.128-.592 2.516-.888 4.162-.888 1.628 0 2.997.287 4.107.86 1.129.555 1.98 1.323 2.553 2.303.592.962.888 2.054.888 3.275v.333c0 1.572-.425 2.867-1.276 3.885-.851 1.017-2.22 1.933-4.107 2.747l-3.081 1.304c-.444.185-.777.389-.999.611-.203.222-.305.518-.305.888v.999l-1.193-.777h10.906v4.44z" fill="#000"/><rect fill="#91a7ed" height="44.25" rx="22.125" width="44.25" x="446.875" y="11.875"/><rect height="44.25" rx="22.125" stroke="#27272b" stroke-width="2.25" width="44.25" x="446.875" y="11.875"/><path d="m469 44.4063c-1.591 0-2.978-.2868-4.162-.8603-1.184-.592-2.1-1.3875-2.748-2.3865-.629-1.0175-.943-2.1738-.943-3.4688h4.995c0 .7215.25 1.3135.749 1.776.5.444 1.203.6661 2.109.6661.611 0 1.129-.111 1.554-.3331.426-.2405.749-.5549.971-.9434.222-.407.333-.8603.333-1.3598 0-.7585-.249-1.3875-.749-1.887-.481-.4995-1.184-.7493-2.109-.7493-.536 0-1.017.0833-1.443.2498-.407.1665-.758.3792-1.054.6382l-2.304-3.8294 5.606-3.4411-.25-.444h-7.548v-4.4399h14.097v4.4122l-7.298 4.44-2.331-.8603c.388-.111.795-.1942 1.221-.2497.444-.0555.897-.0833 1.36-.0833 1.591 0 2.969.2498 4.134.7493 1.166.4995 2.063 1.221 2.692 2.1645.648.925.971 2.035.971 3.33v.333c0 1.2765-.323 2.4142-.971 3.4132-.629.9805-1.535 1.7576-2.719 2.3311-1.166.555-2.553.8325-4.163.8325z" fill="#000"/><rect fill="#91a7ed" height="44.25" rx="22.125" width="44.25" x="649.875" y="101.875"/><rect height="44.25" rx="22.125" stroke="#27272b" stroke-width="2.25" width="44.25" x="649.875" y="101.875"/><path d="m663.203 130.854v-5.245l7.437-12.043 4.079 2.581-6.132 9.99.416.61h11.794v4.107zm10.628 3.58v-14.68h4.773v14.68z" fill="#000"/><path clip-rule="evenodd" d="m131.778 111.036c-4.933 5.647-5.336 59.23 19.298 75.891 9.525 6.453 32.64 2.792 58.795-9.246 4.313-1.986 7.26-3.382 11.697-4.685.279-.093-1.179 1.551-3.289 3.661-4.995 4.995-6.732 8.16-5.802 10.611.466 1.179 1.024.962 2.576-.993 4.436-5.616 10.145-10.114 19.236-15.079 3.568-1.954 6.236-6.67-4.034-6.67-8.687 0-13.93-.683-21.966-2.948-5.213-1.458-7.943.745-4.716 3.785 1.117 1.055 6.608 2.7 12.503 3.755l3.01.527c-10.642 4.871-11.294 5.212-20.074 8.563-20.881 7.943-36.735 9.401-44.802 4.096-20.384-13.435-20.912-49.828-21.129-71.392 0-.589-.744-.527-1.303.124z" fill="#b3b3cd" fill-rule="evenodd"/><path clip-rule="evenodd" d="m547.778 111.036c-4.933 5.647-5.336 59.23 19.298 75.891 9.525 6.453 32.64 2.792 58.795-9.246 4.313-1.986 7.26-3.382 11.697-4.685.279-.093-1.179 1.551-3.289 3.661-4.995 4.995-6.732 8.16-5.802 10.611.466 1.179 1.024.962 2.576-.993 4.436-5.616 10.145-10.114 19.236-15.079 3.568-1.954 6.236-6.67-4.034-6.67-8.687 0-13.93-.683-21.966-2.948-5.213-1.458-7.943.745-4.716 3.785 1.117 1.055 6.608 2.7 12.503 3.755l3.01.527c-10.642 4.871-11.294 5.212-20.074 8.563-20.881 7.943-36.735 9.401-44.802 4.096-20.384-13.435-20.912-49.828-21.129-71.392 0-.589-.744-.527-1.303.124z" fill="#b3b3cd" fill-rule="evenodd"/><path clip-rule="evenodd" d="m339.778 117.544c-4.933-5.647-5.336-59.2295 19.298-75.8906 9.525-6.4535 32.64-2.7924 58.795 9.2458 4.313 1.9857 7.26 3.3818 11.697 4.6849.279.0931-1.179-1.5513-3.289-3.661-4.995-4.9953-6.732-8.16-5.802-10.611.466-1.1791 1.024-.9618 2.576.9928 4.436 5.6158 10.145 10.1146 19.236 15.0788 3.568 1.9546 6.236 6.6706-4.034 6.6706-8.687 0-13.93.6826-21.966 2.9475-5.213 1.4583-7.943-.7446-4.716-3.7852 1.117-1.0549 6.608-2.6993 12.503-3.7542l3.01-.5274c-10.642-4.8711-11.294-5.2124-20.074-8.5633-20.881-7.9427-36.735-9.4009-44.802-4.0954-20.384 13.4344-20.912 49.8282-21.129 71.3917 0 .589-.744.527-1.303-.124z" fill="#b3b3cd" fill-rule="evenodd"/><g fill="#0af22f"><g clip-path="url(#b)"><path clip-rule="evenodd" d="m505.917 114.768c2.802.261 5.007 13.476 2.292 13.717-2.031.208-2.441-.497-3.175-5.228-1.214-7.666-1.128-8.658.883-8.489zm3.783 19.667c1.162.575 2.135 9.663 1.376 13.071-.496 2.271-1.65 2.902-2.887 1.564-.956-1.041-1.865-8.933-1.518-13.391.104-1.225 1.741-1.883 3.029-1.244zm.788 21.768c1.722 1.484 1.005 11.756-.863 12.08-1.366.237-1.662-.143-2.063-2.46-1.113-6.418.498-11.7 2.926-9.62zm-64.639 16.698c3.028.74-7.075 6.229-13.542 7.35-2.035.353-1.154.631 2.494.804 4.424.181 11.605 1.351 12.139 1.948 1.289 1.473-1.402 1.853-7.003 1.013-6.104-.925-6.012-1.056-1.423 2.058 5.98 4.022 7.131 5.691 4.339 6.147-1.478.256-3.177-.599-9.199-4.528-2.462-1.615-5.446-3.426-6.678-4.074-5.62-2.935-5.63-2.991 1.536-4.722 5.869-1.42 9.201-2.573 12-4.151 2.118-1.2 4.526-2.049 5.337-1.845zm7.17 10.054c1.061.161 6.122 1.526 9.745 2.22 4.425.843 5.543 1.828 2.84 2.469-2.206.526-15.233-2.074-15.92-3.219-.527-.886 1.421-1.742 3.335-1.47zm55.323-8.327c3.113 1.559-2.262 12.955-6.471 13.684-.195.034-1.295.484-2.412.994-4.712 2.139-6.513.525-1.975-1.785 4.06-2.084 5.429-3.96 7.332-10.212.805-2.64 1.92-3.495 3.526-2.681zm-34.329 12.161c1.335.085 4.905 1.133 7.289 1.468 6.034.851 8.159 2.178 4.535 2.807-2.286.396-13.985-1.83-14.465-2.782-.514-.974.663-1.638 2.641-1.493z" fill-rule="evenodd"/><path d="m432.656 158v-13.14h2.556v13.14zm9.885.126c-.9 0-1.644-.114-2.232-.342-.576-.24-1.008-.636-1.296-1.188-.288-.564-.432-1.32-.432-2.268l.018-8.856h2.34l-.018 9.018c0 .48.126.852.378 1.116.264.252.636.378 1.116.378h1.53v2.142zm-5.508-8.064v-1.836h6.912v1.836zm13.333 8.28c-.84 0-1.578-.144-2.214-.432-.624-.288-1.146-.672-1.566-1.152-.408-.492-.72-1.038-.936-1.638-.204-.6-.306-1.212-.306-1.836v-.342c0-.648.102-1.272.306-1.872.216-.612.528-1.152.936-1.62.42-.48.936-.858 1.548-1.134.612-.288 1.32-.432 2.124-.432 1.056 0 1.938.234 2.646.702.72.456 1.26 1.062 1.62 1.818.36.744.54 1.548.54 2.412v.9h-8.658v-1.53h7.092l-.774.756c0-.624-.09-1.158-.27-1.602s-.456-.786-.828-1.026c-.36-.24-.816-.36-1.368-.36s-1.02.126-1.404.378-.678.618-.882 1.098c-.192.468-.288 1.032-.288 1.692 0 .612.096 1.158.288 1.638.192.468.486.84.882 1.116.396.264.9.396 1.512.396s1.11-.12 1.494-.36c.384-.252.63-.558.738-.918h2.304c-.144.672-.42 1.26-.828 1.764s-.93.894-1.566 1.17c-.624.276-1.338.414-2.142.414zm6.788-.342v-9.774h1.98v4.14h-.054c0-1.404.3-2.466.9-3.186s1.482-1.08 2.646-1.08h.36v2.178h-.684c-.84 0-1.494.228-1.962.684-.456.444-.684 1.092-.684 1.944v5.094zm13.376 0v-2.898h-.414v-3.222c0-.564-.138-.984-.414-1.26s-.702-.414-1.278-.414c-.3 0-.66.006-1.08.018s-.846.03-1.278.054c-.42.012-.798.03-1.134.054v-2.124c.276-.024.588-.048.936-.072s.702-.036 1.062-.036c.372-.012.72-.018 1.044-.018 1.008 0 1.842.132 2.502.396.672.264 1.176.678 1.512 1.242.348.564.522 1.302.522 2.214v6.066zm-3.15.252c-.708 0-1.332-.126-1.872-.378-.528-.252-.942-.612-1.242-1.08-.288-.468-.432-1.032-.432-1.692 0-.72.174-1.308.522-1.764.36-.456.858-.798 1.494-1.026.648-.228 1.404-.342 2.268-.342h2.268v1.494h-2.304c-.576 0-1.02.144-1.332.432-.3.276-.45.636-.45 1.08s.15.804.45 1.08c.312.276.756.414 1.332.414.348 0 .666-.06.954-.18.3-.132.546-.348.738-.648.204-.312.318-.732.342-1.26l.612.702c-.06.684-.228 1.26-.504 1.728-.264.468-.636.828-1.116 1.08-.468.24-1.044.36-1.728.36zm12.058-.126c-.9 0-1.644-.114-2.232-.342-.576-.24-1.008-.636-1.296-1.188-.288-.564-.432-1.32-.432-2.268l.018-8.856h2.34l-.018 9.018c0 .48.126.852.378 1.116.264.252.636.378 1.116.378h1.53v2.142zm-5.508-8.064v-1.836h6.912v1.836zm13.333 8.28c-.84 0-1.578-.144-2.214-.432-.624-.288-1.146-.672-1.566-1.152-.408-.492-.72-1.038-.936-1.638-.204-.6-.306-1.212-.306-1.836v-.342c0-.648.102-1.272.306-1.872.216-.612.528-1.152.936-1.62.42-.48.936-.858 1.548-1.134.612-.288 1.32-.432 2.124-.432 1.056 0 1.938.234 2.646.702.72.456 1.26 1.062 1.62 1.818.36.744.54 1.548.54 2.412v.9h-8.658v-1.53h7.092l-.774.756c0-.624-.09-1.158-.27-1.602s-.456-.786-.828-1.026c-.36-.24-.816-.36-1.368-.36s-1.02.126-1.404.378-.678.618-.882 1.098c-.192.468-.288 1.032-.288 1.692 0 .612.096 1.158.288 1.638.192.468.486.84.882 1.116.396.264.9.396 1.512.396s1.11-.12 1.494-.36c.384-.252.63-.558.738-.918h2.304c-.144.672-.42 1.26-.828 1.764s-.93.894-1.566 1.17c-.624.276-1.338.414-2.142.414z"/></g><path clip-rule="evenodd" d="m705.985 208.575c1.196.5 2.739 9.509 2.196 12.958-.352 2.298-1.464 3-2.783 1.743-1.019-.979-2.423-8.798-2.357-13.269.026-1.23 1.619-1.989 2.944-1.432zm1.174 20.199c3.205 1.359-1.442 13.071-5.597 14.064-.193.046-1.262.563-2.345 1.143-4.567 2.431-6.467.934-2.083-1.657 3.921-2.335 5.169-4.294 6.674-10.653.638-2.686 1.698-3.609 3.351-2.897zm-33.496 14.297c1.339 0 4.967.822 7.367 1.005 6.076.47 8.28 1.661 4.703 2.516-2.256.54-14.072-.946-14.612-1.865-.574-.94.559-1.677 2.542-1.656z" fill-rule="evenodd"/><path d="m660.43 241.23c-3.689-.015-8.914-.424-9.987-.386-1.931.085-3.688 1.284-3.007 2.058.886 1 14.169 1.155 16.241.231 2.538-1.128 1.257-1.89-3.247-1.903z"/><g clip-path="url(#c)"><path clip-rule="evenodd" d="m389.111 244.374c-.537 1.18-9.59 2.44-13.021 1.789-2.285-.424-2.952-1.557-1.654-2.836 1.01-.988 8.869-2.146 13.336-1.941 1.228.065 1.937 1.681 1.339 2.988zm-21.732 1.477c-1.429 1.767-11.718 1.375-12.101-.481-.28-1.358.091-1.665 2.393-2.14 6.381-1.315 11.71.128 9.708 2.621zm-23.474-21.159c-.644 3.05-6.449-6.874-7.775-13.303-.417-2.022-.667-1.133-.724 2.518-.041 4.429-.983 11.642-1.564 12.195-1.431 1.335-1.896-1.342-1.234-6.967.732-6.13.866-6.042-2.101-1.358-3.832 6.105-5.463 7.308-6.007 4.532-.303-1.469.499-3.194 4.235-9.337 1.535-2.512 3.251-5.552 3.861-6.804 2.755-5.71 2.811-5.722 4.768 1.385 1.605 5.822 2.862 9.116 4.528 11.863 1.267 2.079 2.192 4.459 2.013 5.276zm4.99 19.596c-1.459 3.161-13.019-1.851-13.882-6.035-.04-.194-.523-1.278-1.069-2.379-2.287-4.641-.731-6.493 1.722-2.03 2.211 3.992 4.129 5.301 10.438 7.005 2.665.721 3.554 1.809 2.791 3.439z" fill-rule="evenodd"/><path d="m344.431 254.204c-2.541 3.434-15.137 3.125-15.133-.356-.008-1.8.777-1.823 3.498-1.358 6.441 1.104 9.211.132 12.895-2.562 4.101-3.02 4.735-.686.709 2.565-.957.77-1.852 1.551-1.969 1.711z"/></g><path d="m416.138 243.197c3.431.651 12.483-.609 13.021-1.789.598-1.307-.111-2.923-1.339-2.988-4.467-.205-12.326.953-13.337 1.941-1.298 1.279-.631 2.412 1.655 2.836z"/><path d="m395.326 242.404c.382 1.857 10.672 2.248 12.1.481 2.002-2.493-3.327-3.936-9.707-2.621-2.303.475-2.673.782-2.393 2.14z"/><path d="m321.364 253.008c-3.479.303-12.359-1.858-12.776-3.086-.464-1.361.404-2.897 1.632-2.838 4.465.243 12.168 2.183 13.075 3.268 1.163 1.402.386 2.463-1.931 2.656z"/><path clip-rule="evenodd" d="m80.3266 143.276c.0929 3.116 7.5652-5.622 10.0086-11.714.7689-1.917.8577-.997.2668 2.606-.7439 4.366-1.095 11.632-.6221 12.279 1.1719 1.568 2.1041-.985 2.449-6.638.3663-6.163.219-6.1 2.3092-.964 2.6888 6.687 4.0815 8.16 5.1084 5.524.5585-1.392.0754-3.231-2.5134-9.939-1.0661-2.745-2.2159-6.041-2.5938-7.381-1.7005-6.108-1.7531-6.129-4.9383.519-2.6113 5.445-4.4325 8.464-6.5584 10.873-1.6155 1.821-2.9471 4-2.916 4.835zm8.3406 9.107c-.0637 1.072.2174 6.306.1418 9.994-.0972 4.503.6331 5.802 1.823 3.292.974-2.048 1.1443-15.331.1667-16.241-.7569-.7-1.9989 1.027-2.1315 2.955zm-.6217 21.332c-.1954 1.324.0866 5.034-.083 7.435-.4241 6.079.4318 8.434 1.801 5.02.8636-2.153 1.1226-14.059.2921-14.727-.8463-.706-1.7409.307-2.0101 2.272z" fill-rule="evenodd"/><path d="m127.666 236.806c3.287 1.179 12.425 1.35 13.141.269.795-1.198.347-2.905-.856-3.16-4.38-.902-12.323-.987-13.476-.169-1.482 1.06-1 2.284 1.191 3.06z"/><path d="m107.234 232.768c.088 1.893 10.189 3.889 11.877 2.367 2.367-2.149-2.671-4.408-9.179-4.107-2.348.109-2.762.355-2.698 1.74z"/><path d="m88.3316 222.569c.1977 4.268 10.8316 11.026 12.7674 8.132 1.008-1.491.3-2.704-2.219-3.834-5.9646-2.669-7.6546-4.262-9.2142-8.551-1.7247-4.792-3.551-3.206-2.0178 1.736.3662 1.173.6745 2.32.6836 2.517z"/><path d="m168.95 235.244c3.384-.862 12.497-.167 13.107.977.678 1.268.07 2.925-1.151 3.066-4.446.482-12.362-.186-13.432-1.109-1.375-1.196-.779-2.369 1.476-2.934z"/><path d="m148.227 237.328c.267-1.877 10.512-2.907 12.048-1.231 2.152 2.363-3.077 4.135-9.527 3.218-2.327-.331-2.716-.615-2.521-1.987z"/><path d="m291.699 244.017c.821-1.708 10.899.407 11.856 2.468 1.338 2.904-4.183 3.012-10.053.188-2.119-1.019-2.404-1.407-1.803-2.656z"/><path d="m724.62 233v-13.14h3.492l3.294 7.848h.324l3.276-7.848h3.546v13.14h-2.538v-11.214l.324.036-3.546 8.496h-2.61l-3.564-8.496.342-.036v11.214zm21.35.342c-.84 0-1.578-.144-2.214-.432-.624-.288-1.146-.672-1.566-1.152-.408-.492-.72-1.038-.936-1.638-.204-.6-.306-1.212-.306-1.836v-.342c0-.648.102-1.272.306-1.872.216-.612.528-1.152.936-1.62.42-.48.936-.858 1.548-1.134.612-.288 1.32-.432 2.124-.432 1.056 0 1.938.234 2.646.702.72.456 1.26 1.062 1.62 1.818.36.744.54 1.548.54 2.412v.9h-8.658v-1.53h7.092l-.774.756c0-.624-.09-1.158-.27-1.602s-.456-.786-.828-1.026c-.36-.24-.816-.36-1.368-.36s-1.02.126-1.404.378-.678.618-.882 1.098c-.192.468-.288 1.032-.288 1.692 0 .612.096 1.158.288 1.638.192.468.486.84.882 1.116.396.264.9.396 1.512.396s1.11-.12 1.494-.36c.384-.252.63-.558.738-.918h2.304c-.144.672-.42 1.26-.828 1.764s-.93.894-1.566 1.17c-.624.276-1.338.414-2.142.414zm12.71-.342v-2.898h-.414v-3.222c0-.564-.138-.984-.414-1.26s-.702-.414-1.278-.414c-.3 0-.66.006-1.08.018s-.846.03-1.278.054c-.42.012-.798.03-1.134.054v-2.124c.276-.024.588-.048.936-.072s.702-.036 1.062-.036c.372-.012.72-.018 1.044-.018 1.008 0 1.842.132 2.502.396.672.264 1.176.678 1.512 1.242.348.564.522 1.302.522 2.214v6.066zm-3.15.252c-.708 0-1.332-.126-1.872-.378-.528-.252-.942-.612-1.242-1.08-.288-.468-.432-1.032-.432-1.692 0-.72.174-1.308.522-1.764.36-.456.858-.798 1.494-1.026.648-.228 1.404-.342 2.268-.342h2.268v1.494h-2.304c-.576 0-1.02.144-1.332.432-.3.276-.45.636-.45 1.08s.15.804.45 1.08c.312.276.756.414 1.332.414.348 0 .666-.06.954-.18.3-.132.546-.348.738-.648.204-.312.318-.732.342-1.26l.612.702c-.06.684-.228 1.26-.504 1.728-.264.468-.636.828-1.116 1.08-.468.24-1.044.36-1.728.36zm11.356.054c-1.344 0-2.4-.282-3.168-.846-.756-.576-1.152-1.368-1.188-2.376h2.25c.036.336.222.642.558.918s.864.414 1.584.414c.6 0 1.074-.108 1.422-.324.36-.216.54-.51.54-.882 0-.324-.138-.582-.414-.774-.264-.192-.72-.318-1.368-.378l-.864-.09c-1.092-.12-1.932-.432-2.52-.936s-.882-1.176-.882-2.016c0-.672.168-1.236.504-1.692s.798-.798 1.386-1.026c.6-.24 1.284-.36 2.052-.36 1.2 0 2.172.264 2.916.792s1.134 1.302 1.17 2.322h-2.25c-.024-.336-.192-.624-.504-.864s-.762-.36-1.35-.36c-.528 0-.936.102-1.224.306s-.432.468-.432.792c0 .312.114.552.342.72.24.168.624.282 1.152.342l.864.09c1.152.12 2.052.438 2.7.954.66.516.99 1.212.99 2.088 0 .648-.18 1.212-.54 1.692-.348.468-.84.834-1.476 1.098s-1.386.396-2.25.396zm9.663 0c-1.128 0-2.004-.372-2.628-1.116-.612-.744-.918-1.848-.918-3.312v-5.67h2.502v5.886c0 .6.168 1.08.504 1.44.336.348.792.522 1.368.522s1.044-.186 1.404-.558c.372-.372.558-.876.558-1.512v-5.778h2.502v9.792h-1.98v-4.158h.198c0 .984-.126 1.806-.378 2.466s-.63 1.158-1.134 1.494-1.134.504-1.89.504zm8.166-.306v-9.774h1.98v4.14h-.054c0-1.404.3-2.466.9-3.186s1.482-1.08 2.646-1.08h.36v2.178h-.684c-.84 0-1.494.228-1.962.684-.456.444-.684 1.092-.684 1.944v5.094zm11.81.342c-.84 0-1.578-.144-2.214-.432-.624-.288-1.146-.672-1.566-1.152-.408-.492-.72-1.038-.936-1.638-.204-.6-.306-1.212-.306-1.836v-.342c0-.648.102-1.272.306-1.872.216-.612.528-1.152.936-1.62.42-.48.936-.858 1.548-1.134.612-.288 1.32-.432 2.124-.432 1.056 0 1.938.234 2.646.702.72.456 1.26 1.062 1.62 1.818.36.744.54 1.548.54 2.412v.9h-8.658v-1.53h7.092l-.774.756c0-.624-.09-1.158-.27-1.602s-.456-.786-.828-1.026c-.36-.24-.816-.36-1.368-.36s-1.02.126-1.404.378-.678.618-.882 1.098c-.192.468-.288 1.032-.288 1.692 0 .612.096 1.158.288 1.638.192.468.486.84.882 1.116.396.264.9.396 1.512.396s1.11-.12 1.494-.36c.384-.252.63-.558.738-.918h2.304c-.144.672-.42 1.26-.828 1.764s-.93.894-1.566 1.17c-.624.276-1.338.414-2.142.414z"/><path d="m570.517 241.041c10.142 3.131 20.49 1.112 11.608-2.267-1.484-.575-13.754-1.218-14.331-.767-.938.778.497 2.345 2.723 3.034z"/><path d="m543.473 239.328c4.754.794 16.079 1.265 16.766.727 3.601-2.817-10.296-5.918-19.19-4.299-3.043.559-1.437 2.947 2.424 3.572z"/><path d="m625.469 243.833c9.024.448 14.753-.042 14.641-1.299-.315-3.051-7.106-3.944-18.374-2.42-3.686.496-.65 3.503 3.733 3.719z"/><path d="m597.251 242.389c2.312.579 14.451 1.237 14.973.828 3.601-2.817-5.92-5.262-16.579-4.258-2.968.239-1.925 2.547 1.606 3.43z"/><path d="m502.96 235.746c-10.369-2.272-20.511.606-11.378 3.231 1.527.448 13.808.062 14.345-.436.87-.853-.692-2.295-2.967-2.795z"/><path d="m220.792 236.567c10.458-1.814 20.464 1.506 11.224 3.727-1.545.381-13.797-.544-14.312-1.065-.831-.89.792-2.262 3.088-2.662z"/><path d="m529.052 235.19c-4.804-.393-16.129.086-16.768.679-3.353 3.108 10.755 5.036 19.482 2.678 2.986-.812 1.185-3.057-2.714-3.357z"/><path d="m192.749 234.866c4.816-.182 16.109.794 16.722 1.414 3.213 3.253-10.966 4.559-19.581 1.82-2.948-.942-1.05-3.106 2.859-3.234z"/><path d="m90.7591 195.977c.2632 3.992-.3794 13.321-.9238 13.814-2.853 2.583-4.3185-9.189-2.0377-16.258.7842-2.419 2.7658-.796 2.9615 2.444z"/><path d="m448.967 236.562c-9.03.309-14.699 1.277-14.481 2.52.569 3.014 7.411 3.336 18.511.874 3.632-.803.356-3.545-4.03-3.394z"/><path d="m271.697 239.754c9.007.704 14.628 1.92 14.356 3.152-.701 2.987-7.55 3.008-18.532.061-3.593-.962-.199-3.557 4.176-3.213z"/><path d="m477.206 235.64c-2.352-.383-14.503-.023-14.99.428-3.352 3.108 6.34 4.749 16.878 2.856 2.938-.487 1.705-2.699-1.888-3.284z"/><path d="m245.525 237.592c2.366-.279 14.49.614 14.956 1.086 3.213 3.253-6.542 4.466-16.986 2.112-2.914-.615-1.585-2.772 2.03-3.198z"/></g></g></svg>