<?xml version="1.0" encoding="UTF-8"?>
<svg id="Layer_3" data-name="Layer 3" xmlns="http://www.w3.org/2000/svg" viewBox="0 0 1061.19 979.41">
  <defs>
    <style>
      .cls-1 {
        opacity: .09;
      }

      .cls-2 {
        opacity: .9;
      }

      .cls-3 {
        fill: #fff;
        stroke-width: 0px;
      }
    </style>
  </defs>
  <g class="cls-1">
    <g class="cls-2">
      <path class="cls-3" d="M687.59,586.33c-1.51.87-3.59,1.68-5.83,2.46-2.26.69-4.67,1.44-6.84,2.11-16.02,4.6-32.04,8.54-48.11,11.79-2.66.51-5.45,1.04-8.29,1.58-2.84.56-5.72,1.18-8.55,1.83-5.66,1.25-11.12,2.55-15.64,3.96-3.26.15-6.18.28-9.45.43-6.6,1.28-13.18,2.24-19.68,3.29-3.25.48-6.46.87-9.64,1.28-3.18.4-6.33.8-9.42,1.06-2.32.18-4.74.36-7.15.54-2.41.2-4.82.38-7.11.47-10.99-.12-21.17,1.04-26.73.28-3.59,0-6.41.55-9.8.89-10.3-.33-21.23-.03-28.24.22-4.2-.12-8.04-.37-12.24-.55-.03.06-.09.17-.14.29-17.89-.53-35.25-1.7-52.68-3.48-4.94-.77-8.56-1.34-11.34-1.78-2.78-.44-4.77-.64-6.48-.59-1.9-.24-4.09-.52-5.97-.76-4.05-.59-8.1-1.19-12.15-1.78-3.76-1.05-7.16-2.15-10.92-3.24,3.81-.07,7.57-.13,11.35-.2,4.03.59,8.06,1.18,12.09,1.78,1.86.27,4.05.52,5.93.77,3.47.37,7.27.78,10.75,1.09,5.97.69,11.86,1.51,17.89,2.04.17-.33.39-.74.56-1.07,4.16.31,8.32.58,12.55.72l-.71,1.36c1.16.31,2.66.59,4.14.87,1.78.47,3.83,1.02,5.56,1.48,4.83.23,9.34.45,13.86.66,2.21.16,4.12.3,6.35.47,2.11-.29,4.55-.62,6.65-.91,6.35.45,8.48.09,7.96-.2,1.94-.73-2.14-1.11-2.51-1.69,2.78-.43,5.6-.87,8.4-1.31,2.51.22,5.04.33,7.56.53,5.5-.03,8.3-1.24,13.26-1.61,2.24.06,4.48.12,6.75.18,1.14.03,2.29.06,3.45.08,1.17,0,2.35.01,3.55.02,2.57.03,5.1.07,7.65.16,3.81.15,4.83-.92,8.11-1.1,19.36-1.26,38.89-3.41,58.45-6.41,4.08-.41,7.04-.73,9.31-1.06,2.27-.37,3.87-.73,5.23-1.15l5.73-1.04c1.91-.34,3.82-.68,5.73-1.09,3.82-.77,7.65-1.55,11.48-2.33,7.66-1.72,15.37-3.38,23.15-5.4,1.97-.4,4.08-.87,6.26-1.39,2.18-.56,4.44-1.2,6.73-1.85,2.29-.66,4.61-1.32,6.92-1.98,2.31-.66,4.58-1.41,6.81-2.07,1.55.87,3.17.66,4.8.44-1.03.88-2.05,1.7-3.44,2.69-1.71,1.15,3.6-.38,1.51,1.17,2.15-.49,4.31-.98,6.41-1.46,2.11-.51,4.17-1.01,6.15-1.49Z"/>
      <path class="cls-3" d="M462.17,615.68c-2.09.29-4.54.62-6.65.91-2.23-.17-4.15-.31-6.35-.47-4.52-.22-9.03-.43-13.86-.66-1.74-.46-3.79-1.01-5.56-1.48-1.48-.28-2.98-.56-4.14-.87l.71-1.36c2.79.31,5.94.64,8.77.9,5.7.41,7.05-.3,9.55-.06,1.27.12,2.16.28,3.09.39,3.66-.04,7.34-.29,11-.46,2.12.4,3.87.88,5.98,1.26.96,0,1.95.02,2.91.02.38.58,4.45.96,2.51,1.69.52.28-1.61.65-7.96.2Z"/>
      <path class="cls-3" d="M393.09,616.36c-4.52.83-5.55.81-6.96.9-3.01-.65-6.18-1.14-9.42-1.54-3.21-.46-6.48-.85-9.71-1.26-1.61-.21-3.22-.4-4.8-.64-1.57-.25-3.11-.52-4.62-.81-3.01-.59-5.88-1.28-8.48-2.17-2.73-.31-5.54-.62-8.39-.95-2.85-.33-5.75-.65-8.62-1.05-3.12-.52-6.16-1.4-9.09-2.14-2.92-.75-5.7-1.4-8.37-1.34-3.81-1.03-7.65-2.09-11.4-3.21-5.71-1.34-11.43-2.71-16.98-4.24-3.7-1.25-7.36-2.54-10.93-3.9-2.26-.79-4.18-1.54-6.65-2.51-.95-.18-1.9-.37-3.07-.63-1.17-.26-2.53-.63-4.26-1.23,5.94,3.4,8.8,4.41,11.61,5.45.14.25.58.61.73.87-.32.42-.69.82-1.01,1.24-1.64-.47-3.25-.99-4.86-1.51-1.63-.5-3.21-1.07-4.83-1.61-1.82-.71-3.58-1.53-5.39-2.28-1.76-.82-3.55-1.6-5.27-2.47-1.58-.83-3.25-1.66-4.87-2.62-.81-.47-1.65-.92-2.46-1.42l-2.4-1.52c-.36-.24-.73-.49-1.13-.75-.38-.28-.79-.58-1.26-.92-.83-.78-1.61-1.5-2.36-2.29-.74-.8-1.5-1.62-2.36-2.55-.86-.39-1.6-1.01-2.35-1.65-.73-.66-1.45-1.35-2.04-2.13-1.18-1.55-2.21-3.04-2.82-4.16-.5-.68-.94-1.38-1.63-2.27-2.57-3.35-5.27-7.3-7.41-11.3,2.5,2.53,4.74,6.72,8.26,10.75.8-.51,1.07-.7,1.37-.88.64.73,1.23,1.41,1.91,2.19.68.78,1.54,1.59,2.6,2.69,2.41,1.64,4.9,3.16,7.28,4.37.86,0,1.64-.03,2.41-.1.78-.08,1.53-.19,2.27-.3.27-.21.47-.39.73-.61,1.07.39,2.4,1.12,3.92,1.9.75.4,1.51.85,2.28,1.3.79.43,1.58.89,2.34,1.34,3.04,1.82,5.74,3.55,6.06,4.38.96.56,1.62,1.04,2.3,1.51,1.22,1.09,2.65,2.36,3.87,3.44,3.14,1,6.58,2.04,9.85,2.86-.84-.71-1.38-1.35-1.91-1.98.88-.19,1.52-.51,2.38-.73,1.41-.37,10.67,2.02,4.28-1.33,1.27.12,2.33.13,3.37.15,2.84,1.22,6.1,2.4,9.08,3.45,7.6,1.86,5.32-.63,10.12-.64-2.31-.59-4.33-1.14-6.87-1.84-2.31-1.04-4.84-2.23-7.04-3.33-1.39-.42-2.73-.88-4.08-1.33-.81-.27-1.64-.54-2.43-.83-7.32-1.96-11.21-3.88-14.42-4.55-1.15-.68-2.17-1.39-3.21-2.07-1.05-.67-2.04-1.38-3.07-2.14-3.55-1.49-5.75-3.43-7.91-5.25-1.07-.93-2.09-1.87-3.29-2.72-1.12-.91-2.42-1.71-3.96-2.52-.05.04-.16.12-.26.21-2.35-1.57-4.66-3.23-7.02-5.23-.64-.76-1.29-1.44-1.96-2.3-.65-.87-1.45-1.83-2.39-3.15-.88-.93-1.76-1.85-2.61-2.75-.81-.95-1.61-1.87-2.36-2.75-.92-2.77-2.9-6.32-4.08-9.91-.16-.44-.32-.88-.47-1.3-.14-.43-.24-.87-.36-1.3-.22-.85-.42-1.66-.56-2.41-.25-1.52-.24-2.82.02-3.68.78-.24,1.56-.47,2.37-.71.28,1.19.46,2.43.77,3.35.94.64,1.6,1.75,2.32,2.98.73,1.23,1.26,2.71,1.95,4.07.31.69.62,1.38.92,2.03.32.64.66,1.22.97,1.75.62,1.06,1.2,1.87,1.82,2.14.77,1.06,1.31,2.26,1.74,3.21.4.97.52,1.8.22,2.26,2.5,3.82,5.48,7.35,8.74,10.61.85.4,1.64.77,2.43,1.15.8.35,1.64.66,2.5,1.03,3.73,3.12,8.37,5.97,12.66,8.49,4.31,2.52,8.23,4.82,10.57,7.1,2.46,1.11,5.8,2.04,7.1,3.37,1.64.07,3.04.02,4.72.05,2.65.95,9.54,1.64,11.63,3.88,1.14.31,1.97.54,2.82.78,4.34.58,7.24,1.31,10.15,2.02,2.21,1.24,6.29,2.74,7,3.7-2.26.82-7.13-1.12-10.63-1,2.2,1.23,4.69,2.61,7.26,3.86,1.82,2.33,7.01,3.36,11.75,4.43,1.69.6,3.62,1.3,5.23,1.95,3.82.97,6.56.99,10.49,1.76.85.77,2.06,1.55,3.26,2.38-9.96-1.52-10.44.19-14.5-.46-2.71-.6-5.34-1.18-7.96-1.76-2.6-.63-5.21-1.25-7.89-1.9-3.91-.86-7.51-1.69-11.36-2.65-6.96-1.47-13.58-2.93-20.31-4.71,9.92,3.6,15.44,5.2,19.57,5.73,3.88.97,7.48,1.8,11.39,2.67,2.7.61,5.34,1.2,7.97,1.79,2.66.55,5.32,1.09,8.07,1.66,2.71.56,5.75,1.2,8.82,1.74,3.15.97,6.3,1.95,9.48,2.93,3.52.4,7.33.85,10.89,1.2,2.53.47,5.11.87,7.7,1.28,2.59.41,5.2.82,7.82,1.23,5.27.76,10.6,1.48,15.96,2.16.34-.02,1.04-.07,1.41-.15-.11.22-.23.39-.3.56Z"/>
      <path class="cls-3" d="M235.07,548.81c-3.4-4.3-4.6-7.34-5.88-10.28-.05-1.32-.5-3.53-.02-3.72.83,1.58,1.45,3.03,2.18,4.24.68,1.23,1.22,2.34,1.81,3.29.56.96.97,1.84,1.39,2.62.43.77.77,1.48,1.05,2.15.04,1.38-.25,1.53-.53,1.71Z"/>
      <path class="cls-3" d="M261.92,426.14l3.25-2.91,3.35-2.78c2.2-1.89,4.54-3.62,6.83-5.4,1.1-.71,2.33-1.49,3.6-2.37,1.28-.87,2.59-1.84,3.95-2.81,2.74-1.89,5.52-3.97,8.15-5.66,5.51-3.7,10.86-6.91,16.57-10.12,1.49-.78,2.98-1.56,4.47-2.34l4.49-2.21c1.49-.75,3-1.44,4.51-2.14,1.51-.69,3-1.42,4.53-2.07,4.13-1.84,8.27-3.58,12.46-5.27,1.76-.69,3.52-1.38,5.28-2.08l5.31-1.99c4.19-1.54,8.4-3.02,12.58-4.43,1.95-.65,4.2-1.39,6.15-2.04,1.79-.43,3.94-.9,5.74-1.3l7.96-2.72c1.33-.45,2.65-.92,3.98-1.34l3.98-1.25c3.32-1.05,6.32-2.01,9.58-2.99,1.72-.53,3.44-.98,5.15-1.44,1.71-.46,3.41-.91,5.09-1.36,1.69-.45,3.36-.9,5.03-1.35,1.66-.46,3.31-.9,4.95-1.28,3.07.03,7.39-1.13,12.42-2.51,5.02-1.32,10.74-2.69,16.51-3.36,4.09-1.01,7.85-1.93,11.62-2.86,1.96-.21,3.94-.49,5.89-.69,1.94-.19,3.85-.38,5.67-.55,3.03-.6,5.38-1.11,8.14-1.73,2.73-.28,4.85-.36,7.33-.6,3.94-.63,6.67-.49,6.53.32,3.27-.87,5.85-1.43,8.86-2.22,2.84-.29,5.7-.58,8.53-.86,2.83-.29,5.59-.44,8.27-.64.56.03,1.06.11,1.31.15,1.51-.12,3.03-.24,4.55-.36,1.52-.12,3.05-.25,4.56-.31,3.04-.16,6.09-.32,9.13-.48l4.57-.24c1.51-.04,3.03-.07,4.54-.11,3.02-.08,6.03-.15,9.02-.23,1.88-.38,4.07-.92,5.72-1,.91.03,1.85.05,2.76.08,2.25.24,4.51.48,6.78.72,2.94.18,5.27.16,7.52.15,3.3.29,5.88.43,8,.47,2.13.03,3.77.08,5.23,0,2.92-.1,5.05-.38,8.4-.29,3.16.12,6.24.42,8.98.67,1.46.41,3.27.79,5.31,1.12,2.04.31,4.28.66,6.58,1.01,2.3.34,4.67.65,6.96.93,2.29.29,4.52.5,6.47.81.49.46.93.97,1.4,1.42,3.77.69,7.53,1.38,11.29,2.07,2.1.64,4.2,1.27,6.3,1.91,2.12.33,4.2.71,7.46,1.04.19-.14.38-.28.64-.47,2.47.42,4.93.84,7.4,1.27,1.06.32,2.35.77,3.69,1.16.98.12,2.06.24,3.13.37,1.07.14,2.14.28,3.14.42,5.23,1.32,10.26,2.4,15.45,3.88,8.09.83,18.1,5.45,25.75,6.66,3.29,1.22,5.68,2.95,9.12,3.56.74.29,1.5.58,2.26.88.75.32,1.51.65,2.27.97,1.52.65,3.03,1.3,4.48,1.92,2.27,1.07,4.42,1.91,6.47,2.63,2.02.78,3.94,1.46,5.8,2.14,1.86.68,3.65,1.38,5.39,2.22,1.75.81,3.41,1.85,5.03,3.16,2.7,1.73,4.78,1.73,7.1,2.63,1.14.59,2.28,1.15,3.39,1.74,1.1.61,2.19,1.21,3.28,1.82,2.18,1.21,4.37,2.41,6.62,3.65,1.72-.57,6.36,3.47,10.39,5,1.95,1.19,3.95,2.3,5.86,3.55l5.74,3.7c.81.67,1.38,1.19,2.02,1.68-.56.47-.95,1.12-1.26,1.75-2.49-1-4.96-1.98-7.43-2.98-.98-.48-1.91-.92-2.86-1.34-.96-.4-1.93-.8-2.97-1.23-3.13-1.64-6.5-3.45-9.94-5.19-6.77-3.16-7.83-2.66-11.12-4.41-.49-.27-.98-.54-1.24-.69-3.95-1.86-7.72-3.52-11.45-5.23-2-1.06-4.08-2-6.13-2.96-2.91-1.01-5.84-2.02-8.47-2.93-4.55-1.88-9.7-4.66-14.8-5.41-2.34-.71-4.66-1.41-7.05-2.08-2.66-1.27-5.33-2.62-8.38-3.84-5.34-1.42-8.23-1.98-11.53-2.82-3.48-.65-6.9-1.34-10.55-2.11-1.28-.48-2.51-.88-3.72-1.2-1.22-.3-2.42-.55-3.62-.8-2.39-.51-4.77-1.02-7.33-1.93-.94-.3-1.79-.58-2.63-.88-.85-.27-1.7-.54-2.62-.83-1.58.05-3.4-.02-5.24-.04-2.81-.67-5.3-1.37-8.15-1.97-3.69-.79-7.09-1.52-10.78-2.31-1.64-.36-3.3-.62-4.94-.9-1.64-.28-3.27-.55-4.89-.82-3.24-.54-6.43-1.12-9.68-1.53-3.24-.03-6.91-.34-10.81-.81-3.93-.38-8.11-.85-12.29-1.38-1.05-.13-2.1-.25-3.14-.38-1.06-.1-2.11-.19-3.15-.29-2.1-.17-4.16-.35-6.17-.51-2.02-.14-3.97-.29-5.86-.34-1.89-.03-3.71-.02-5.4.05-3.32-.08-6.62-.21-9.95-.25-3.34,0-6.69,0-10.04,0-1.68.01-3.35-.03-5.05.03-1.7.05-3.39.1-5.1.15-3.41.12-6.82.17-10.29.34-18.81.79-39.5,2.91-57.75,5.74-1.56.18-3.11.35-4.36.55-.21-.42-.47-.78-.31-1.31-.63-.25-2.61.15-4.49.42-1.75.76-4.05,1.54-4.3,2.19-4.64,1.07-8.55,1.94-11.94,2.62-3.39.69-6.27,1.23-8.86,1.93-2.83.56-5.98,1.19-8.81,1.76.87-1.17,1.73-2.31,2.6-3.49.59-.4,1.47-.85,2.04-1.25,5.12-1.15,10.6-2.08,15.38-2.99,4.56-.98,9.03-1.72,13.45-2.49,2.21-.39,4.41-.77,6.61-1.16,2.19-.36,4.37-.65,6.55-.99,1.9-.22,4.08-.47,5.97-.69,3.34-.32,6.99-.49,10.34-.73,3.1-.41,6.2-.81,9.28-1.22,3.07-.31,6.14-.61,9.2-.92,2.32-.13,4.57-.3,6.8-.38,2.23-.07,4.47-.13,6.78-.2,2.26-.18,4.56-.41,6.98-.71,2.41-.27,4.9-.53,7.57-.92-3.06-.27-6.43-.62-9.55-.77-3.49.22-7.01.44-10.47.6-2.25.15-4.2.39-6.48.62-.92.05-1.87.11-2.79.16-1.56.09-3.11.18-4.67.28-1.32,0-2.55,0-3.7.04-1.15.07-2.23.13-3.23.18-2.01.13-3.75.28-5.33.44-3.16.33-5.66.56-8.4.81-.32.04-.96.11-1.57.18-3.94.63-8.19,1.28-12.51,2.02-3.36.37-6.72.74-10.48,1.22-4.67.9-9.35,1.97-14.35,3.11-.3.05-.94.16-1.59.27-2.07-.14-3.79-.45-6.15-.54-.98.92-2.28,1.91-3.27,2.84-.03.06-.13.19-.23.33-2.24.45-4.15.83-6.38,1.27-5.14.66-9.62,1.71-13.68,2.71-4.07,1.01-7.73,2.05-11.26,3.25-3.54,1.15-6.94,2.29-10.51,3.36-3.57,1.1-7.3,2.27-11.5,3.26-2.63,1.03-4.72,1.7-6.52,2.33-1.79.64-3.28,1.16-4.69,1.76-1.33.06-2.63.12-3.98.17-2.27,1.16-4.55,2.29-7.13,3.55-2.07.64-4.04,1.25-6.01,1.86-1.96.62-3.91,1.23-5.95,1.88-.96.79-1.6,1.46-2.56,2.25-2.11.81-4.14,1.59-6.15,2.4-2.01.8-4.02,1.59-6.07,2.44-1.17-.1-2.4-.12-3.61-.2.03-.07.11-.21.19-.35,5.1-2.07,10.24-4.17,15.39-6.03.42-.71.82-1.41,1.19-2.04-8.26,3.31-12,2.42-16.91,6.36-3.36,1.18-5.4,2.11-6.9,2.87-1.5.78-2.47,1.38-3.7,1.89-1.61.72-3.12,1.46-4.64,2.21-1.51.76-3.04,1.46-4.6,2.27-3.45,2.04-4.19,3-5.18,4.1-.49.54-1.06,1.11-2.05,1.84-.99.75-2.44,1.6-4.64,2.9-.9.5-1.8,1-2.74,1.52-.47.26-.95.53-1.45.8-.49.29-.99.59-1.51.89.1-.29.22-.66.35-1.02,1.44-1.44,2.62-2.57,3.8-3.82-1.23.54-2.26.95-3.24,1.33-.97.39-1.87.77-2.85,1.21-.98.44-2.04.94-3.31,1.61-1.27.68-2.72,1.58-4.53,2.73-.57.39-1.14.78-1.71,1.16-.55.4-1.1.8-1.65,1.19-1.09.79-2.17,1.56-3.23,2.33-2.12,1.55-4.14,3.15-6.2,4.71-.74.61-1.65,1.64-2.8,2.77-1.14,1.14-2.54,2.35-4.12,3.51-2.04,1.71-4.06,3.31-5.96,5.06-.96.86-1.93,1.72-2.9,2.59-.98.87-1.9,1.81-2.87,2.74-.77.42-1.53.84-2.32,1.27-.81.43-1.64.9-2.51,1.46.61-.76,1.25-1.48,1.88-2.19.63-.71,1.25-1.42,1.88-2.13.63-.71,1.25-1.43,1.89-2.15.66-.7,1.34-1.42,2.03-2.15Z"/>
      <path class="cls-3" d="M468.68,352.42c.25-.66,2.55-1.44,4.3-2.19,1.88-.27,3.85-.67,4.49-.42-.16.53.1.89.31,1.31-3.14.45-6.28.9-9.09,1.3Z"/>
      <path class="cls-3" d="M764.71,374.56c1.95.41,3.71.72,5.45,1.06,4.36,1.11,6.55,1.45,7.65,1.48,1.1.03,1.11-.27,1.24-.49,3.14.35,5.98.66,9.17,1.02,3.31.73,7.02,1.55,10.47,2.36,1.53.36,2.89.71,4.11,1.06,1.23.38,2.31.74,3.29,1.1,1.93.68,3.59,1.41,5.06,2.06,2.96,1.32,5.43,2.38,9.91,3.49,3.87.86,7.13,2.72,10.42,4.86,3.3,2.15,6.66,4.55,10.9,6.81,4.11,3.28,7.01,6.43,9.42,9.25,2.41,2.84,4.36,5.31,6.49,7.62,1.01,1.48,1.84,2.67,2.76,4.26,1.5,2.48,2.83,5.16,3.98,7.93,1.18,1.79,1.83,3.13,2.47,4.61.6,1.51,1.21,3.16,1.97,5.86-.04.99-.16,2.01-.29,2.97-.14.96-.27,1.86-.48,2.69.42,3.16.6,6.31.54,9.58-.46,4.65-1.05,7.76-1.53,10.11-.42,2.35-.9,3.93-1.34,5.49-1.37,5.09-3.02,9.69-5.25,14.49-1.61,5.3-4.73,11.97-8.41,17.86-3.65,5.92-7.78,11.09-10.49,14.16-1.62,1.23-4.42,4.85-6.76,7.19-2.41,4.48-6.09,5.32-10.16,9.28-1.77,1.49-3.63,2.88-5.49,4.33-1.9,1.38-3.81,2.82-5.78,4.17-3.92,2.75-7.99,5.37-12.12,7.89-8.26,5.07-16.76,9.69-24.94,14.2-2.62,1.33-5.24,2.63-7.86,3.87-5.38,1.57-11.67,4.73-18.32,7.8-1.66.79-3.33,1.58-5.01,2.37-1.68.8-3.36,1.58-5.04,2.28-3.37,1.43-6.7,2.75-9.89,3.81-15.13,6.34-33.7,11.94-52.21,18.5-3.57.8-7.64,1.82-11.86,2.91-4.22,1.06-8.59,2.3-12.73,3.78-3.79,1.01-7.58,1.96-11.4,2.95-3.83,1.02-7.7,1.9-11.65,2.81-2.64.44-5.3.93-7.97,1.44-2.68.45-5.36.94-8.05,1.44-2.68.49-5.37,1.05-8.03,1.53-2.66.48-5.31.96-7.92,1.43-5.23,1.01-10.31,1.81-15.12,2.56-2.41.36-4.75.76-7.01,1.03-2.26.27-4.43.52-6.5.72-18.09,2.22-37.29,4.12-56.18,5.22-18.89,1.11-37.47,1.44-54.28.85-1.45-.54-5.25-.31-7.82-.5-2.98,1.29-4.2-.36-9.61-.32-15.28-.37-33.16-2.5-45.65-2.73-.98-.11-1.93-.21-2.9-.31-2.44-.51-4.93-.93-7.41-1.41-4.83-.51-10.1-1.48-15.5-1.7-3.14-.46-6.3-.92-9.17-1.34-6.51-1.16-9.11-2.03-12.24-1.98-18.39-3.34-31.35-6.49-44.5-8.94-.9-.21-1.82-.43-2.74-.65-3.03-.72-5.74-1.39-8.77-2.17-7.76-1.66-12.51-3.71-16.48-5.37-3.95-1.71-7.16-2.97-11.84-3.53-3.73-1.44-7.06-2.92-10.62-4.6-7.15-3.99-12.62-7.64-17.51-11.44-4.87-3.83-9.17-7.83-13.4-13-5.32-5.84-9.63-12.56-12.95-19.95-1.18-3.71-1.89-6.42-2.4-8.62-.59-2.16-.85-3.86-1.23-5.52.3-.71.54-1.4.85-1.81-.08-1.73-.21-3.52-.27-5.32.03-1.84,0-3.65.09-5.4-.31-1.07-.51-2.85-.52-5.02.1-2.21.17-4.75.64-7.4.19-1.31.38-2.63.57-3.92.24-1.29.53-2.55.75-3.72.23-1.18.42-2.27.57-3.25.21-.98.36-1.84.43-2.54.38-1.68.75-2.88,1.11-3.83.37-.94.81-1.64,1.18-2.33.38-.7.75-1.39,1.12-2.34.39-.95.67-2.16,1.2-3.87.43-1.25,1.04-2.93,1.49-4.37.22-.72.43-1.38.59-1.89.14-.51.2-.88.13-1.03.64-1.28,1.14-2.28,1.63-3.25.21-.58.4-1.18.64-1.8.25-.61.51-1.23.76-1.86.52-1.25,1.03-2.5,1.51-3.65,5-8.38,5.9-10.07,8.63-14.47,1.9-2.15,3.75-4.26,5.69-6.31.76-1.71,2.38-3.87,4.02-5.92,1.72-2.01,3.44-3.92,4.32-5.29.87-1.32,2.84-3.36,4.99-5.57,1.06-1.12,2.29-2.17,3.42-3.23,1.14-1.04,2.24-2.04,3.21-2.92l3.43-3.07c1.15-1.02,2.26-2.06,3.46-3.02,2.36-1.94,4.67-3.94,7.1-5.75,1.81-1.4,3.9-3.04,5.76-4.33,1.09-1.32,2.75-2.77,4.48-3.98,1.73-1.21,3.49-2.27,4.7-3,5.62-3.51,10.94-6.69,16.72-9.78,1.15-.68,2.08-1.27,2.87-1.76.8-.48,1.46-.9,2.04-1.27,1.16-.74,2.03-1.29,3.15-1.85,2.47-1.03,4.97-2.08,7.46-3.12,2.23-.96,3.87-2.3,8.01-3.96,1.47-.64,3.02-1.33,4.62-2.03,1.6-.67,3.24-1.35,4.87-2.03,1.99-.88,4.38-1.93,6.42-2.84,1.5-.63,3.09-1.25,4.72-1.91,1.63-.66,3.3-1.33,4.97-1.94.98-.35,1.97-.7,2.95-1.06,1.89-1.25,4.54-2.25,7.1-3.2,2.56-.92,5.02-1.73,6.58-2.55.81-.04,1.65-.13,2.48-.22,3.3-1.03,6.23-1.94,9.51-2.96,2.54-.68,5.1-1.44,7.63-2.01,2.66-.91,5.41-1.76,8.24-2.59,2.83-.84,5.73-1.67,8.69-2.38,2.95-.75,5.95-1.51,8.98-2.31,3.03-.81,6.08-1.63,9.14-2.45.25-.34.45-.61.68-.93,1.41-.44,3.11-.88,4.82-1.38,2.15-.5,4.31-1.07,6.42-1.55,2.12-.48,4.2-.95,6.19-1.4,1.1,0,1.92,0,2.75.01,2.67-.62,5.35-1.29,8.01-1.83.16-.2.31-.39.52-.66.66-.11.98-.17,1.62-.28,6.19-1.11,12.46-2.39,18.63-3.26,1.93-.1,3.85-.2,5.76-.29,1.91-.09,3.83-.21,5.73-.24.44-.16,1.14-.3,1.88-.5,4.43-.79,8.54-1.58,12.92-2.28,1.88-.45,8.47-1.26,8.71-1.85,2.33.03,4.59.1,6.83.2,4.41.08,6.91-.98,8.42-1.3,2.01-.08,4-.15,5.98-.23,1.98-.08,3.93-.05,5.89-.08,3.92-.02,7.85-.1,11.84-.07.92,0,1.85,0,2.79,0,2.94-1.05,7.31-.77,9.58-.54,2.19-.03,4.03.05,5.88.1,3.31-1.02,7.87-.48,10.2-.89,3.5.31,6.96.77,10.45,1.14l5.21.59c1.74.19,3.44.48,5.15.72,2.26.08,4.2.13,6.09.24,6.43-.38,8.79.02,10.9.54,2.89.3,5.8.6,8.75.91,2.92.38,5.89.76,8.93,1.15,2.64-.68,6.8.18,8.88.85,3.84.7,7.66,1.39,11.5,2.09,3-.59,6.98.67,9.1,1.3,3.06.8,6.22,1.47,9.24,2.39,5.5,1.2,11.46,2.46,17.03,4.01,2.81.72,5.56,1.43,8.16,2.11,2.59.7,5.02,1.4,7.26,1.98,2.33.12,4.86.71,7.31,1.46,2.43.79,4.74,1.78,6.71,2.57,2.47.22,5.4,1.08,8.18,2.03,2.75,1.01,5.38,2.05,7.36,2.49,11.45,3.89,22.03,6.88,33.64,13.11,3.39.67,10.77,5.56,10.85,3.48.82.43,1.61.85,2.39,1.26.77.42,1.52.82,2.24,1.21,1.46.78,2.87,1.49,4.24,2.16,2.73,1.35,5.35,2.47,7.9,3.69,2.54,1.24,5.08,2.49,7.77,3.91,1.35.71,2.73,1.47,4.17,2.3,1.41.87,2.86,1.82,4.39,2.86,5.29,2.99,7.63,3.51,12.99,7.15-1.37-.26,0,1.01.39,2.12,6.4,4.14,12.5,8.68,18.39,12.96-.57.68-1.2,1.4-2.02,1.9-.81.27-1.7.56-2.51.83-1.76-.91-2.5-.91-4.61-1.93-2.46-.17-4.68-.16-6.81-.17-.35.61-.99,1.08-1.33,1.7-1.57-.96-3.43-2.02-5.05-2.9-2.44-2.31-4.97-4.61-7.37-6.97.69.25,1.38.49,1.82.57.6-.97,1.12-1.92,1.49-3.06.91.17,1.88.31,2.55.31.96.66,1.66,1.15,2.37,1.64,2.1,1.48,4.5,3.07,6.81,4.77-1.02-1.41-1.89-2.56-2.95-3.93-.26-.64-.47-1.33-.73-1.97-.48-1.08-.96-2.17-1.43-3.24-1.36-.5-2.65-.98-3.97-1.47-1.31-.5-2.7-.97-4.24-1.5-.31-.13-.94-.38-1.26-.51-1.89-1.14-3.71-2.24-5.53-3.35-1.82-1.1-3.6-2.25-5.52-3.31-6.49-4.31-5.42-2.5-8-3.67-.99-.59-1.73-1.04-2.46-1.48-.95-.87-2.01-1.63-2.8-2.3-4.03-1.98-7.74-3.9-11.85-5.77-2.95-1.65-6.16-3.42-9.44-5.16-1.93-.6-4.3-1.2-6.29-1.71-.57-.47-1.15-.96-1.92-1.59-1.57-.73-3.41-1.6-4.98-2.33-2.01-1.04-4.01-2.01-6.09-2.97-6.24-3.35-5.22-.8-9.69-2.25-3.5-1.41-6.78-2.65-10.29-4.04-1.46-.59-2.95-1.26-4.48-1.86-1.54-.59-3.07-1.17-4.55-1.74-1.89-.57-3.71-1.11-5.53-1.66-1.82-.55-3.64-1.09-5.57-1.58-1.39.08-2.77.16-4.43.15-.41,0-1.05-.14-1.73-.22-2.86-.55-5.95-1.3-8.77-1.79-4.16-.72-8.22-1.48-12.3-2.25-2.77-.75-3.61-1.78-7.68-2.47-.68-.74-2.01-1.1-3.5-1.34-1.49-.25-3.14-.38-4.52-.59-2.4-.45-4.83-.85-7.29-1.25-2.01-.58-3.94-1.15-5.88-1.71-1.96-.51-3.93-1.02-5.97-1.54-.45.34-.84.64-1.24.94-2.9-.26-5.99-.71-8.87-.94-.79-.49-1.23-.98-1.73-1.41-3.31-.44-6.73-.83-10.4-1.25-3.27-.74-6.85-1.43-10.44-2.16-1.92-.12-4.15-.26-6.03-.38-2.01.3-4.04.6-6.06.9-1.51-.43-3-.86-4.88-1.26-1.31-.02-2.61-.06-3.92-.06-1.31.01-2.62.03-3.93.04-2.72.96-6.91.37-9.51.04-3.7-.13-7.86-.07-11.99-.08-1.18.54-3.65.44-6.38.42-2.73-.02-5.68-.09-7.75.27-2.21.12-4.31.18-6.32.22-2.02.08-3.97.16-5.85.23-3.77.15-7.31.25-10.86.67-4.17.33-8.27.66-12.37.99-2.05.14-4.11.38-6.18.61-2.07.22-4.15.45-6.25.68-2.53.24-5.06.39-7.62.73-3.44.68-.72,1.16-4.48,1.88-1.26.15-2.87.33-4.46.52-1.49.48-3.04.9-4.56,1.24-1.52.35-3,.7-4.34.93-2.69.49-4.83.7-5.61.62.42-1.52-1.59-1.12-3.51-.85-3.21.8-1.55,1.18-1.29,1.54-3.29.92-6.91,2.06-10.21,3.05-2.54.44-5.1.88-7.67,1.32-2.13-.22-5.8.57-9.96,1.56-2.08.49-4.28,1.02-6.48,1.54-2.2.55-4.4,1.05-6.46,1.39-2.39.6-4.93,1.24-7.48,1.89-2.56.64-5.14,1.46-7.64,2.2-2.5.77-4.9,1.54-7.1,2.33-1.1.39-2.15.78-3.13,1.17-.98.42-1.89.83-2.73,1.24-3.5.92-6.96,1.82-10.81,2.83.19-.28.31-.48.47-.69-2.11.49-3.59.91-4.65,1.29-1.07.37-1.72.66-2.21.91-.97.5-1.24.81-2.66,1.23-1.31.41-2.28.71-3.25,1.01-5.47.35-14.66,3.09-15.14,4.34-4.23,1.24-5.96,2.04-6.99,2.6-1.03.57-1.37.92-2.8,1.41-3.61,1.39-7.24,2.86-10.83,4.36-7.62,2.01-7.51,1.35-7.7.74-1.85.62-4.57,1.7-7.45,2.94-2.85,1.34-5.87,2.81-8.22,4.46-1.77,1.17-3.55,2.28-5.24,3.41-2.39,1.05-4.5,1.78-7.19,3.02-3.52,1.95-8.35,5.15-9.29,6.46-2.42,1.31-4.8,2.65-7.21,4.01-1.68,1.17-3.44,2.4-5.22,3.64-1.74,1.29-3.48,2.58-5.14,3.81-1.64.47-7.09,5.62-6.8,4.01-1.49,1.22-2.84,2.46-4.23,3.65-.69.6-1.38,1.2-2.08,1.8-.68.63-1.36,1.26-2.06,1.91-4.49,5.76-11.98,13.86-19.96,23.34-5.24,5.97-8.41,10.47-10.51,14.41-.9,1.17-1.53,2.17-2.06,2.99-.52.83-.92,1.49-1.22,2.02-.6,1.07-.82,1.65-.95,2.1-.27.88-.08,1.25-1.71,3.94-.71,1.17-1.48,2.35-2.15,3.55-.65,1.21-1.31,2.44-1.97,3.67-1.53,2.46-2.07,4.34-2.6,6.09-.25.87-.5,1.72-.76,2.61-.23.89-.48,1.82-.86,2.87-.48.82-1,1.71-1.51,2.59-.25.44-.52.89-.76,1.32-.22.44-.44.86-.65,1.27-.55,1.99-1.08,3.78-1.51,5.44-.34,1.65-.63,3.16-.88,4.6-.11.72-.26,1.42-.3,2.09-.04.68-.07,1.34-.08,2-.02,1.31.02,2.6.14,3.9-1,8.48-.29,16.86,1.43,24.61,1.61,6.57,4.04,12.42,7.08,17.85,2.14,4,4.85,7.95,7.41,11.3.69.89,1.13,1.59,1.63,2.27.61,1.12,1.64,2.61,2.82,4.16.59.77,1.32,1.46,2.04,2.13.75.64,1.49,1.26,2.35,1.65.86.93,1.62,1.75,2.36,2.55.75.79,1.53,1.51,2.36,2.29.46.34.87.64,1.26.92.4.26.76.51,1.13.75l2.4,1.52c.81.49,1.65.95,2.46,1.42,1.62.95,3.29,1.78,4.87,2.62,1.71.87,3.51,1.65,5.27,2.47,1.81.75,3.57,1.57,5.39,2.28,1.62.54,3.2,1.11,4.83,1.61,1.61.52,3.22,1.04,4.86,1.51.32-.42.69-.82,1.01-1.24-.15-.25-.59-.61-.73-.87-2.8-1.05-5.66-2.05-11.61-5.45-8.22-2.61-11.86-5.4-12.28-6.53,1.25.37,2.22.58,3.16.84,1.36.79,2.78,1.61,4.19,2.43,1.46.77,2.88,1.59,4.31,2.27,4.89,1.29,9.99,3.86,14.59,5.36,3.58,1.36,7.24,2.65,10.93,3.9.5.66,1.13,1.3,1.64,2.03.59.17,1.15.33,1.46.42,3.03.7,5.76,1.33,8.78,2.03,1.68.11,3.38.21,4.74.23,2.83.99,5.63,1.97,8.16,2.86-.22.32-.49.71-.71,1.03.58.19,1.1.43,1.33.61-.34.49-.73,1.03-1.1,1.57,3.4.66,7.11,1.37,10.53,2.03.3.06.92.19,1.23.25,3.01.68,6.01,1.42,8.7,2.1,1.18.3,2.01.61,2.92.84,2.58.29,5.18.59,7.76.89,4.88.51,9.01.92,12.46,1.46,3.45.53,6.19,1.25,8.43,2.07.94.2,1.79.44,2.99.74l9.24.9c3.1.24,6.2.49,9.29.73-2.99-1.88,7.39.18,9.4.81,3.21.02,6.13.15,8.82.36,2.7.2,5.2.4,7.54.66,2.35.26,4.56.54,6.7.81,2.15.26,4.25.45,6.36.6,4.3.16,8.55.39,12.83.5,5.37-.04,10.62.27,15.85.5,2.61.14,5.21.3,7.79.48,2.58.18,5.17.27,7.74.41,2.57.12,5.13.23,7.68.31,2.56.04,5.11.02,7.66-.04,2.54-.06,5.08-.17,7.6-.37,2.54-.24,5.06-.56,7.57-.96,4.01-.18,7.75.39,11.03-.44,6.42-.51,7.52-.8,8.27-1.01,2.68-1.05-6.27-.8-7.97.19-1.34.07-2.59.14-3.89.21-1.29.04-2.63.09-4.14.14.81-1.17-7.26.06-8.96-.56-3.12.36-6.61.4-10.21.45-1.8.01-3.62.02-5.44.04-1.81,0-3.6,0-5.34-.01,1.85-1.2-7.15-1.04-8.93-1.46.16-.35.34-.74.49-1.09,4.27.03,8.54.07,12.77.1,4.24-.01,8.45-.09,12.58-.13.93.11,1.99.18,3.12.19,1.13,0,2.31-.05,3.49-.13,2.36-.16,4.69-.43,6.45-.71,5.32-.24,10.69-.67,16.06-1.05,2.6.03,5.22-.04,7.85-.09,2.63-.05,5.25-.11,7.87-.16,2.01-.12,4.35-.38,6.38-.57,3.05-.29,6.37-.61,9.75-.93l13.61-1.59c4.54-.56,9.09-1.25,13.65-1.87,2.29-.06,4.44-.22,6.44-.39,2-.17,3.86-.35,5.6-.56,1.73-.21,3.35-.45,4.85-.72,1.5-.28,2.9-.63,4.21-.99,3.03-.56,6.4-1.18,9.46-1.75,3.36-.59,6.71-1.18,9.72-1.71,4.79-1.22,5.03-.77,6.29-.52-3.73,1.67-4.13,2.41-2.57,2.4.78-.01,2.04-.19,3.61-.58,1.57-.4,3.45-.97,5.44-1.69,2.03-.47,4.4-1.02,6.42-1.49.77-.16,1.56-.33,2.36-.5.8-.18,1.62-.37,2.44-.56,1.65-.37,3.33-.75,5.01-1.13,2.82-.28,5.31-1.04,7.88-1.94,2.57-.94,5.22-1.98,8.41-2.74,2.2-.54,4.3-1.05,6.4-1.56,2.1-.55,4.19-1.09,6.37-1.66,2.19-.67,4.38-1.35,6.53-2.01,2.15-.65,4.25-1.4,6.27-2.06,10.72-3.14,18.41-5.73,22.79-8.25,2.64-.93,5.3-2.04,7.94-3.04,2.02-.44,4.32-.95,6.35-1.39,1.83-.74,3.88-1.58,5.82-2.36,1.94-.8,3.75-1.6,5.05-2.41,5.95-2.36,11.74-5.01,17.52-7.53,2.89-1.24,5.73-2.62,8.58-3.95,2.85-1.34,5.69-2.67,8.52-4.01,1.88-1.23,3.42-2.58,6.01-3.85,2.61-1.1,5.2-2.16,7.81-3.27-1.13,1.61,1.73.37,5.37-1.72,3.63-2.08,8.01-5,10.02-6.39,1.49-1.3,2.88-2.9,4.37-4.01.33-.22.94-.62,1.24-.82,3.76-2.27,7.18-4.43,10.56-6.76,2.33-1.84,4.67-3.79,6.93-5.78,1.64-.87,1.88-.45,4.57-2.5,4-4.22,8.21-8.63,11.97-12.97,3.76-4.34,7.21-8.6,9.84-12.42.68-1.05,1.24-2.14,1.85-3.2.59-1.06,1.2-2.11,1.72-3.19.54-1.08,1.08-2.15,1.62-3.24.49-1.11.99-2.22,1.5-3.36,2.32-5.69,4.09-11.52,5.2-17.39.77-3.67,1.12-6.99,1.34-10.65.43-1.99.6-3.55.72-4.82.08-1.26.01-2.21-.06-3.02-.06-.82-.24-1.47-.36-2.16-.14-.68-.23-1.4-.36-2.27-.36-2.85-.92-5.6-1.64-8.29-2.03-6.63-4.74-12.94-8.47-18.64-3.73-5.67-8.46-10.7-14.31-14.57-4.02-3.17-7.87-5.85-12.14-8.28-4.26-2.43-8.95-4.6-14.78-6.39-1.76-.59-3.56-1.15-5.3-1.65-1.73-.47-3.46-.97-5.18-1.41-1.72-.43-3.44-.85-5.17-1.28-1.72-.4-3.45-.79-5.19-1.2.17-.33.4-.72.76-1.32-3.2-.96-6.36-1.91-9.55-2.87-8.57-1.31-15.36-2.92-21.93-5.05,1.87.04,4.05.08,5.91.11Z"/>
      <path class="cls-3" d="M794.65,534.35c-3.69,2.69-7.13,4.81-9.86,6.31-2.74,1.49-4.78,2.35-5.76,2.46,4.37-2.82,7.6-4.93,10.09-6.36,1.24-.73,2.3-1.27,3.21-1.66.9-.4,1.66-.65,2.32-.75Z"/>
      <path class="cls-3" d="M736.28,562.39c-4.62,2.59-8.88,4.67-12.15,6.01-3.29,1.26-5.58,1.82-6.23,1.5,1.3-.7,2.59-1.39,3.88-2.08,1.29-.67,2.58-1.36,3.86-2.08,3.54-1.14,7.08-2.28,10.63-3.36Z"/>
      <path class="cls-3" d="M695.77,577.58c-4.6,2.1-8.15,3.61-11.12,4.85-1.49.61-2.83,1.18-4.09,1.65-1.27.47-2.45.91-3.6,1.33-1.63.22-3.25.44-4.8-.44,2.35-1.06,4.36-2.07,6.66-3.12,2.12-.49,4.16-1.07,6.2-1.6,2.04-.54,4.09-1.09,6.22-1.65,1.61-.36,3.25-.73,4.55-1.03Z"/>
      <path class="cls-3" d="M526.35,610.74c-3.28.18-4.3,1.25-8.11,1.1-2.55-.09-5.08-.13-7.65-.16,1.98-1.02,5.8-.94,8.3-1.52,4.01-.48,5.01.24,7.47.58Z"/>
      <path class="cls-3" d="M476.02,612.48c-2.81.44-5.62.88-8.4,1.31-.96,0-1.95-.02-2.91-.02-2.11-.38-3.86-.85-5.98-1.26-3.66.17-7.35.41-11,.46-.93-.1-1.81-.26-3.09-.39.36-.74.73-1.48,1.09-2.22,4.77.27,9.3.35,13.8.49,2.98-.09,5.3-.17,7.98-.35,3.12.2,6.28.41,9.12.6,3.34.14,6.72.12,10.09.19,3.37.05,6.74.14,10.13.11-4.96.37-7.77,1.58-13.26,1.61-2.52-.21-5.05-.31-7.56-.53Z"/>
      <path class="cls-3" d="M335.66,598.86c-1.49-.31-3-.62-4.5-.93-1.24.3-2.5.67-3.8,1.02-4.75-1.07-9.94-2.1-11.75-4.43-2.57-1.26-5.06-2.63-7.26-3.86,3.5-.13,8.37,1.81,10.63,1,2.08.47,3.86.87,5.95,1.34,2.97.66,6.07,1.23,9.21,1.83,3.15.57,6.31,1.23,9.53,1.74,1.24.72,1.13.89.99,1.11l-4.51.63-4.49.56Z"/>
      <path class="cls-3" d="M303.88,599.29c-4.13-.54-9.64-2.13-19.57-5.73,6.73,1.79,13.35,3.25,20.31,4.71-.22.33-.46.65-.75,1.02Z"/>
      <path class="cls-3" d="M303.99,589.55c-4.8,0-2.52,2.51-10.12.64-2.98-1.06-6.24-2.23-9.08-3.45-.16-.25-.58-.59-1.01-.93-4.25-1.6-8.44-3.28-12.46-5.12-1.43-.75-3.11-1.62-4.51-2.41.85-.16,1.45-.46,2.33-.61,3.22.67,7.1,2.59,14.42,4.55.79.29,1.62.56,2.43.83,1.35.45,2.69.91,4.08,1.33,2.2,1.1,4.73,2.28,7.04,3.33,2.54.7,4.56,1.25,6.87,1.84Z"/>
      <path class="cls-3" d="M266.81,587.78c-1.22-1.08-2.65-2.35-3.87-3.44,3.46.65,7.93,2.96,11.81,4.32.54.63,1.07,1.27,1.91,1.98-3.27-.82-6.71-1.86-9.85-2.86Z"/>
      <path class="cls-3" d="M225.61,528.41c-.35-1.05-.53-2.02-.74-2.87-.2-.86-.41-1.6-.56-2.27-.24-1.37-.44-2.39-.58-3.25-.23-1.72-.07-2.81.44-4.58.58.21.87,1.83,1.16,3.75.2.95.38,1.98.55,2.95.15.99.48,1.87.71,2.59.42,2,.1-3.6.63-1.67.24,1.45.39,3.21.76,4.64-.8.24-1.58.47-2.37.71Z"/>
      <path class="cls-3" d="M216.27,490.12c.38-1.05.62-1.98.86-2.87.26-.89.5-1.74.76-2.61.53-1.74,1.07-3.63,2.6-6.09.66-1.23,1.32-2.46,1.97-3.67.67-1.21,1.44-2.38,2.15-3.55,1.63-2.69,1.44-3.06,1.71-3.94.13-.44.35-1.02.95-2.1.3-.54.69-1.2,1.22-2.02.52-.83,1.16-1.82,2.06-2.99,2.1-3.93,5.26-8.44,10.51-14.41,7.98-9.48,15.48-17.57,19.96-23.34.7-.65,1.39-1.28,2.06-1.91.7-.61,1.39-1.2,2.08-1.8,1.39-1.19,2.75-2.44,4.23-3.65-.29,1.61,5.17-3.54,6.8-4.01,1.66-1.23,3.4-2.52,5.14-3.81,1.77-1.23,3.54-2.47,5.22-3.64,2.41-1.37,4.79-2.7,7.21-4.01.95-1.32,5.77-4.52,9.29-6.46,2.69-1.24,4.8-1.98,7.19-3.02,1.7-1.14,3.48-2.25,5.24-3.41,2.34-1.65,5.36-3.12,8.22-4.46,2.88-1.24,5.6-2.32,7.45-2.94.18.62.08,1.27,7.7-.74,3.59-1.5,7.22-2.97,10.83-4.36,1.43-.48,1.77-.84,2.8-1.41,1.03-.56,2.76-1.36,6.99-2.6.48-1.26,9.68-3.99,15.14-4.34-2.32,1.17-4.92,2.4-7.21,3.59-1.95.65-4.2,1.39-6.15,2.04-4.18,1.41-8.39,2.89-12.58,4.43l-5.31,1.99c-1.76.69-3.52,1.39-5.28,2.08-4.19,1.68-8.33,3.43-12.46,5.27-1.52.65-3.02,1.38-4.53,2.07-1.51.7-3.02,1.39-4.51,2.14l-4.49,2.21c-1.49.78-2.98,1.56-4.47,2.34-5.71,3.22-11.06,6.42-16.57,10.12-2.63,1.69-5.41,3.77-8.15,5.66-1.36.96-2.67,1.94-3.95,2.81-1.27.87-2.5,1.65-3.6,2.37-2.29,1.78-4.63,3.51-6.83,5.4l-3.35,2.78-3.25,2.91c-.69.74-1.37,1.45-2.03,2.15-.64.73-1.26,1.44-1.89,2.15-.63.71-1.25,1.42-1.88,2.13-.64.71-1.27,1.43-1.88,2.19-1.13,1.32-2.32,2.69-3.54,4.07-1.2,1.39-2.36,2.87-3.56,4.3-1.28.9-4.7,5.09-3.48,2.2-1.16,1.41-2.31,2.81-3.23,3.94-1.72,2.09-3.25,4.16-4.87,6.19-1.55,2.06-3.01,4.16-4.59,6.32-.88,1.36-1.77,2.8-2.69,4.24-.45.72-.91,1.44-1.36,2.15-.41.72-.81,1.44-1.21,2.13.13.28.25.58.39.88l-1.39,2.37-.69,1.19-.62,1.2c-.84,1.61-1.67,3.21-2.51,4.82-1.47,3.25-3.07,6.52-4.23,9.84-2.91,7.52-4.93,15.19-5.93,22.71-.12-1.3-.16-2.59-.14-3.9.01-.66.04-1.32.08-2,.04-.68.19-1.38.3-2.09.24-1.43.54-2.95.88-4.6.43-1.65.96-3.45,1.51-5.44.21-.41.43-.83.65-1.27.24-.44.51-.88.76-1.32.51-.88,1.03-1.77,1.51-2.59Z"/>
      <path class="cls-3" d="M225.71,470.32c.39-.69.8-1.41,1.21-2.13.45-.71.9-1.43,1.36-2.15.91-1.44,1.8-2.89,2.69-4.24,1.58-2.16,3.04-4.26,4.59-6.32,1.62-2.03,3.15-4.1,4.87-6.19-.85,1.65-1.35,3.07-1.9,4.43-1.12,1.66-2.23,3.32-3.33,4.94-1.08,1.62-2.26,3.16-3.3,4.67-1.04,1.51-2.08,2.93-3.08,4.25-.25.33-.5.65-.75.97-.23.32-.46.63-.68.94-.44.61-.88,1.18-1.29,1.73-.13-.3-.26-.6-.39-.88Z"/>
      <path class="cls-3" d="M279.22,426.19c1.05-.76,2.08-1.51,3.11-2.25,1.03-.74,2.11-1.4,3.15-2.1.98-.61,1.89-1.26,2.73-1.91.86-.62,1.65-1.25,2.35-1.86,1.41-1.2,2.45-2.34,3.12-3.03-.3-.64-.31-1.46-.59-2.17,6.81-4.44,13.86-8.57,21.1-12.34-.44,1.09-.82,2.09-1.34,3.45.6-.31.87-.46,1.45-.75-1.07,1.59-1.84,3.02-2.85,4.52-1.19.66-2.33,1.39-3.49,2.07-1.15.7-2.32,1.35-3.44,2.04-6.05,3.48-11.69,7.24-16.98,11.03-1.31.97-2.63,1.89-3.89,2.86-1.26.98-2.5,1.94-3.73,2.9l-.92.71-.87.72c-.58.48-1.15.96-1.72,1.43-1.14.95-2.3,1.85-3.37,2.84-.23-.19.98-1.93-1.14-.91,1.19-1.3,2.41-2.46,3.6-3.66,1.19-1.2,2.38-2.4,3.74-3.6Z"/>
      <path class="cls-3" d="M284.93,418.68c.69-.5,1.34-1.02,2.02-1.49.68-.48,1.35-.95,2.02-1.42,1.35-.94,2.66-1.95,4.12-2.9.28.71.29,1.53.59,2.17-2.96,1.72-6.21,3.54-9.09,5.36.12-.58.23-1.15.35-1.72Z"/>
      <path class="cls-3" d="M318.42,401.16c5.9-3.97,9.9-5.69,13.55-7.28,1.26-.17,4.2-1.13,3.91-.56-2.43,1.19-4.54,2.29-6.42,3.22-1.88.92-3.49,1.73-4.9,2.39-1.4.66-2.61,1.15-3.62,1.52-1.01.38-1.84.61-2.53.71Z"/>
      <path class="cls-3" d="M368.19,374.07c2.58-1.26,4.85-2.4,7.13-3.55,1.35-.06,2.65-.12,3.98-.17,1.41-.6,2.9-1.12,4.69-1.76,1.79-.63,3.89-1.3,6.52-2.33,4.2-1,7.93-2.17,11.5-3.26,3.57-1.07,6.98-2.21,10.51-3.36,3.53-1.19,7.19-2.24,11.26-3.25,4.07-1,8.54-2.06,13.68-2.71-1.9,1.12-4.1,2.18-6.32,3.42-15.06,3.82-25.23,6.41-33.54,9.84-2.64.49-5.61,1.04-8.59,1.59-1.44.41-2.96.84-4.67,1.33-1.72.53-3.63,1.13-5.88,1.82-3.63,1.22-7.55,2.55-11.11,3.75.38-.63.62-.99.84-1.34Z"/>
      <path class="cls-3" d="M437.46,353.67c2.23-.44,4.14-.82,6.38-1.27.1-.13.2-.27.23-.33,1.51-.38,3.1-.78,4.7-1.19,1.59-.37,3.19-.75,4.72-1.11.65-.11,1.29-.22,1.59-.27,5.01-1.13,9.68-2.21,14.35-3.11,3.76-.48,7.12-.85,10.48-1.22,4.32-.73,8.57-1.39,12.51-2.02.62-.07,1.26-.14,1.57-.18.17.43.39.86.25,1.33,5.72-.66,9.24-1.01,12.14-1.44,2.89-.42,5.14-.86,8.27-1.36,1.55-.09,3.11-.18,4.67-.28.92-.05,1.87-.11,2.79-.16,2.28-.23,4.23-.46,6.48-.62,3.46-.16,6.97-.38,10.47-.6,3.12.15,6.49.5,9.55.77-2.17.35-4.72.76-6.9,1.11-3.62.2-7.04.49-10.49.7-1.73.11-3.46.18-5.24.25-1.79.1-3.61.16-5.51.15-3.06.31-6.13.61-9.2.92-3.09.41-6.18.81-9.28,1.22-3.35.24-7,.41-10.34.73-1.88.22-4.07.47-5.97.69-2.18.33-4.36.62-6.55.99-2.19.39-4.4.77-6.61,1.16-4.42.78-8.89,1.52-13.45,2.49-4.78.9-10.26,1.84-15.38,2.99-.58.4-1.45.85-2.04,1.25-3.36.57-7.12,1.21-10.52,1.85,2.22-1.24,4.42-2.3,6.32-3.42Z"/>
      <path class="cls-3" d="M447.34,349.24c2.36.08,4.08.4,6.15.54-1.53.36-3.13.74-4.72,1.11-1.59.4-3.18.8-4.7,1.19.99-.93,2.29-1.91,3.27-2.84Z"/>
      <path class="cls-3" d="M514.66,341.5c-3.13.5-5.38.94-8.27,1.36-2.89.43-6.41.78-12.14,1.44.14-.47-.08-.9-.25-1.33,2.75-.26,5.24-.49,8.4-.81,1.58-.15,3.32-.3,5.33-.44,1-.06,2.07-.12,3.23-.18,1.15-.04,2.37-.04,3.7-.04Z"/>
      <path class="cls-3" d="M491.64,353.56c2.68-.57,5.4-1.05,8.14-1.58,2.17-.19,4-.35,5.85-.51,3.98-.68,7.6-1.13,11.2-1.57,3.15-.58,5.49-.76,7.45-.74,1.96.04,3.53.36,5.17.64,1.86-.42,3.78-.85,5.64-1.26,2.07.02,4.5-.18,6.77-.16,2.27,0,4.42.03,5.96.29-.04.35.15.75.41,1.1,1.96,0,3.84,0,5.72,0,1.88,0,3.74.09,5.69.14-.67.63-1.35,1.31-1.99,1.93-2.73.24-5.54.66-8.29,1.02-.93-.87-2.21-1.68-3.22-2.49-6.36-.02-12.87.4-19.31.62-.65.71-1.26,1.36-1.91,2.02-4.67.36-9.89.75-14.85,1.13-1.5-.26-1.08-.72-2.98-1.13-.81-.04-1.67-.02-2.77-.04-1.56.48-3.47,1.04-5.34,1.54-1.53.13-2.99.26-4.44.38-1.46.14-2.93.33-4.47.5-.14-.15-.62-.27-1.08-.39,1.01-.51,1.93-.96,2.64-1.44Z"/>
      <path class="cls-3" d="M528.6,340.44c3.46-.16,6.97-.38,10.47-.6-3.49.22-7.01.44-10.47.6Z"/>
      <path class="cls-3" d="M556.27,340.31c2.62-.92,6.29-.95,9.86-.93,3.56.04,7.02.15,9.17-.18,6.52-.1,5.24,1.07,7.58,1.56-.11.11-.25.22-.3.28-3.19.29-6.67.56-10.17.82-5.44-.45-14.93.25-16.14-1.55Z"/>
      <path class="cls-3" d="M480.58,352.39c.48-.56,1.03-1.21,1.55-1.82,18.25-2.83,38.94-4.95,57.75-5.74,3.46-.18,6.88-.22,10.29-.34,1.7-.05,3.4-.1,5.1-.15,1.7-.06,3.37-.02,5.05-.03,3.36,0,6.7,0,10.04,0,3.33.04,6.63.17,9.95.25,1.7-.06,3.51-.08,5.4-.05,1.89.04,3.84.2,5.86.34,2.01.17,4.08.34,6.17.51,1.05.09,2.1.19,3.15.29,1.05.13,2.09.25,3.14.38,4.18.52,8.36.99,12.29,1.38,3.9.47,7.57.78,10.81.81,3.25.41,6.44.99,9.68,1.53,1.62.27,3.25.55,4.89.82,1.64.28,3.3.54,4.94.9,3.68.79,7.09,1.52,10.78,2.31,2.85.6,5.34,1.3,8.15,1.97,1.84.02,3.66.09,5.24.04.91.29,1.76.56,2.62.83.84.29,1.7.58,2.63.88-1.43.43-2.77.87-4.07,1.35-1.31.5-2.56.99-3.8,1.46-3.65-.75-7.37-1.51-11.11-2.28-3.78-.67-7.58-1.35-11.38-2.03-.87-.23-1.72-.46-2.56-.69-.85-.2-1.7-.4-2.54-.6-1.69-.4-3.38-.8-5.14-1.21-2.31-.67-4.38-.84-6.27-.8-1.91.08-3.65.39-5.3.63-1.44-.22-2.6-.39-4.03-.61-1.23-.39-2.39-.77-3.56-1.14-.58-.19-1.17-.37-1.76-.56-.6-.17-1.21-.35-1.83-.53-4.97-1.13-7.83.15-12.3-.26-8.61-.14-12.26-.32-15.27-.24-4.74-.28-9.48-.56-14.23-.84-2.61-.47-5.2-.93-7.53-1.35-3.07-.32-5.64-.22-8.1,0-2.48.29-4.83.68-7.45.88-1.54-.26-3.69-.3-5.96-.29-2.27-.02-4.7.18-6.77.16-1.86.42-3.78.84-5.64,1.26-1.64-.28-3.21-.61-5.17-.64-1.96-.03-4.3.15-7.45.74-3.6.45-7.22.9-11.2,1.57-1.85.16-3.68.32-5.85.51-2.5-.06-5.29-.15-8.2,0-3.72.43-7.74.89-11.78,1.35.44-.5.58-.69.79-.94Z"/>
      <path class="cls-3" d="M600.42,350.22c1.55.67,5.49,1.26,4.37,1.66-1.12.32-2.38.45-3.71.46-.67,0-1.36-.02-2.06-.06-.71-.02-1.43-.07-2.16-.12-2.92-.23-5.98-.66-8.73-.78-1.16-.4-2.32-.81-2.97-1.4,3.02-.08,6.66.09,15.27.24Z"/>
      <path class="cls-3" d="M634.58,344.79c4.25,1.16,8.44,2.29,12.64,3.5-3.18.05-6.15-.16-8.89-.56-2.74-.38-5.27-.93-7.62-1.29,1.61-.73,1.3-1.87,3.87-1.65Z"/>
      <path class="cls-3" d="M678.83,361.98c1.91.43,5.28,1.08,8.01,1.91,2.73.85,4.88,1.74,4.49,2.4-1.94.48-4.32,0-6.58-.62-2.29-.55-4.47-1.24-5.97-1.28-4.04-.94-6.03-1.98-8.13-3.17,2.72.22,5.44.5,8.18.75Z"/>
      <path class="cls-3" d="M711.54,369.72c2.16.72,4.25,1.59,6.36,2.4,4.99,1.22,9.68,3.32,13.63,4.48,1.07-.08,5.14,2,7.89,3.04.25.11.79.32,1.29.56.18.92.7,1.92,1.22,2.93-1.01.15-2.06-.12-3.06-.51-1.02-.36-1.98-.84-2.78-1.15-2.33-1-4.59-1.97-6.86-2.94-1.13-.48-2.27-.97-3.41-1.45-1.16-.45-2.33-.91-3.52-1.37-.79-.31-1.57-.62-2.63-1.03-3.51-.74-6.84-1.67-10.34-2.32-3.96-1.45-7.52-2.88-11.23-4.2,4.56.5,8.85,1,13.43,1.55Z"/>
      <path class="cls-3" d="M732.68,363.79c1.15.49,2.21.95,3.18,1.39.95.46,1.94.77,2.75,1.14,1.62.74,2.95,1.3,3.72,1.92,3.31,1.25,7.17,2.32,10.83,3.31,1.85.5,3.69,1.08,5.67,1.56.98.25,1.95.51,2.92.76,1,.24,1.98.47,2.95.7-1.85-.04-4.03-.08-5.91-.11-1.39-.32-2.76-.63-3.82-.93-4.75-1.32-8.99-2.8-13.2-4.57-3.48-1.54-6.34-3.31-9.11-5.16Z"/>
      <path class="cls-3" d="M789.65,372.06c6.89,2.31,16.67,2.33,22.87,5.65-.3.42-.59.84-.89,1.26,3.54,1.87,6.73,3.12,6.69,4.29,6.29,2.56,10.72,4.66,15,6.95,2.13,1.17,4.22,2.4,6.41,3.91,2.2,1.48,4.47,3.28,6.96,5.56,2.17,1.76,4.22,3.71,6.21,5.73,1.96,2.07,3.85,4.25,5.59,6.59.79,1,1.48,1.99,2.16,2.91.64.97,1.25,1.9,1.85,2.81,1.78,2.91,3.02,5.27,4.28,8.11-.2.17-.1.77.15,1.65.25.89.71,2.02,1.12,3.33.92,2.56,1.77,5.76,1.99,7.95.48,2.55.8,5.07,1.01,7.61.1,1.27.13,2.56.19,3.85,0,1.31-.03,2.64-.06,3.99,0,.57,0,1.15-.03,1.74-.04.59-.08,1.18-.12,1.77-.09,1.19-.15,2.4-.29,3.6-.34,2.4-.61,4.81-1.12,7.07-.16-.48-.51-.46-.93.36-.42.81-.83,2.42-1.41,5.09-.19.82-.4,1.59-.61,2.33-.23.74-.5,1.43-.76,2.11-.54,1.35-1.04,2.64-1.65,3.91-.6,1.28-1.19,2.58-1.75,4.02-.62,1.42-1.23,2.98-1.81,4.8.31-.06-.22,1.09-.98,2.59-.39.75-.82,1.58-1.24,2.4-.45.8-.89,1.58-1.23,2.24-.27-.21-.97.81-1.71,1.94-.76,1.11-1.6,2.3-2.04,2.46-1.19,1.96-2.17,3.59-3,5.15-.82,1.57-1.61,3-2.47,4.5-1.73,3-3.96,6.24-8.57,10.5-6.69,6.48-15.25,13.09-25.38,21.28-4.43,3.93-7.64,6.12-10.08,7.45-2.45,1.35-4.15,1.85-5.71,2.31-3.15.89-5.73,1.62-13.09,7.44-3.59,2.25-4.39,1.66-8.02,3.57-1.65.85-3.31,1.73-4.99,2.57-1.68.83-3.38,1.68-5.09,2.52-3.43,1.67-6.88,3.43-10.38,5.05-2.74-.01-15.01,6.91-17.77,6.73-4.36,2.2-10.38,5.27-14.46,6.22-4.57,1.56-8.54,3.06-12.44,4.39-3.91,1.31-7.73,2.57-11.96,3.87-4.79,2.03-10.17,2.07-13.31,4.49-.38.62-2.52,1.5-5.14,2.27-2.62.8-5.69,1.63-7.94,2.41-2.96-.16-16.88,4.93-19.79,4.36-7.55,1.77-15.1,3.64-22.98,5.17-2.81.92-5.63,1.88-8.44,2.78-20.35,4.22-38.31,6.93-56.56,9.08-18.26,2.12-36.83,3.69-58.35,4.74-1.46-.08-2.83-.1-4.13-.09-1.3,0-2.52.02-3.7.08-2.36.11-4.53.33-6.7.56-4.36.49-8.69.82-14.49.29-3.46-.09-6.82-.17-10.09-.25-3.28-.06-6.49-.08-9.64-.1-3.14-.08-6.22-.16-9.27-.28-3.05-.11-6.06-.28-9.03-.6-3.88-1.06-6.2.23-9.72-.18-15.01-.47-22.87-2.36-33.96-3.86,12.49.23,30.37,2.36,45.65,2.73,5.41-.05,6.64,1.6,9.61.32,2.58.18,6.37-.04,7.82.5,16.81.59,35.39.26,54.28-.85,18.89-1.1,38.09-3.01,56.18-5.22,2.07-.2,4.25-.45,6.5-.72,2.26-.27,4.6-.66,7.01-1.03,4.82-.75,9.9-1.56,15.12-2.56,2.61-.47,5.26-.95,7.92-1.43,2.66-.48,5.35-1.04,8.03-1.53,2.68-.5,5.37-.99,8.05-1.44,2.67-.51,5.34-1,7.97-1.44,3.95-.92,7.82-1.79,11.65-2.81,3.83-.99,7.61-1.93,11.4-2.95,4.14-1.48,8.51-2.72,12.73-3.78,4.22-1.09,8.29-2.11,11.86-2.91,18.51-6.56,37.07-12.15,52.21-18.5,3.19-1.06,6.52-2.38,9.89-3.81,1.69-.7,3.37-1.48,5.04-2.28,1.68-.79,3.35-1.59,5.01-2.37,6.65-3.07,12.93-6.23,18.32-7.8,2.62-1.24,5.24-2.54,7.86-3.87,8.18-4.52,16.68-9.13,24.94-14.2,4.13-2.52,8.2-5.14,12.12-7.89,1.97-1.34,3.88-2.78,5.78-4.17,1.86-1.45,3.73-2.84,5.49-4.33,4.08-3.96,7.75-4.8,10.16-9.28,2.34-2.34,5.14-5.96,6.76-7.19,2.71-3.08,6.84-8.24,10.49-14.16,3.68-5.9,6.8-12.56,8.41-17.86,2.23-4.8,3.88-9.4,5.25-14.49.44-1.56.92-3.14,1.34-5.49.48-2.35,1.08-5.46,1.53-10.11.05-3.27-.13-6.43-.54-9.58.21-.82.34-1.72.48-2.69.13-.96.25-1.98.29-2.97-.75-2.7-1.37-4.35-1.97-5.86-.65-1.48-1.29-2.81-2.47-4.61-1.15-2.77-2.47-5.45-3.98-7.93-.92-1.6-1.75-2.79-2.76-4.26-2.12-2.31-4.08-4.78-6.49-7.62-2.41-2.82-5.31-5.97-9.42-9.25-4.25-2.26-7.6-4.65-10.9-6.81-3.3-2.14-6.55-4.01-10.42-4.86-4.48-1.1-6.95-2.17-9.91-3.49-1.47-.65-3.13-1.38-5.06-2.06-.98-.35-2.07-.72-3.29-1.1-1.22-.35-2.57-.7-4.11-1.06-3.45-.81-7.15-1.63-10.47-2.36,1.04-.05,2.12-.15,3.51-.2.34-.54.62-1.04.95-1.58-3.18-1.05-6.6-2.17-9.76-3.21-1.65-.29-3.39-.55-4.9-.86-1.48-.31-2.73-.67-3.42-1.16.28-.77,2.81-.41,5.98.14,3.12.54,6.86,1.31,9.08,1.32Z"/>
      <path class="cls-3" d="M770.16,375.62c2.45-.39,6.15.57,8.89.99-.13.22-.14.52-1.24.49-1.11-.03-3.29-.37-7.65-1.48Z"/>
      <path class="cls-3" d="M840.14,501.01c-2.74,4.87-5.92,9.3-9.33,13.3-3.45,3.99-7.1,7.53-10.82,10.8-3.72,3.27-7.54,6.24-11.41,9.05-3.87,2.82-7.76,5.53-11.73,8.23-3.52,1.69-5.48,2.78-6.88,3.66-1.39.89-2.23,1.53-3.51,2.21-12.42,6.2-19.51,9.72-23.15,10.44-2.9,1.33-5.72,2.63-8.54,3.92-2.84,1.23-5.68,2.47-8.6,3.74-2.18,1.11-4.21,2.05-6.19,2.9-1.99.79-3.91,1.56-5.88,2.35-3.94,1.55-8.01,3.34-13.12,5.85-.99.38-1.99.78-2.97,1.16-2.33.57-4.3.93-6.62,1.49-2.65,1.26-4.97,2.37-7.96,3.74-4.31,1.19-7.46,2.17-9.97,2.95-2.51.81-4.35,1.54-6.04,2.3-1.99.6-4.07,1.27-6.2,1.89-2.13.62-4.31,1.25-6.49,1.88-1.59.49-3.18.98-4.77,1.47-1.59.5-3.2.99-4.81,1.43-3.23.91-6.51,1.84-9.87,2.78-2.03.59-4.05,1.12-6.42,1.71-7.98,1.32-11.96,2.08-14.39,3.05-3.57,1.84-2.59-.13-8.05,1.65-3.04.77-6.24,1.35-9.53,2.03-3.29.66-6.68,1.46-10.1,2.33-3.06.49-6.38,1.03-9.41,1.52-1.29-.04-2.22-.15-3.16-.26-3.08.65-6.06,1.27-9.04,1.9-2.98.61-5.97,1.29-9.05,1.83-4.55.62-9.11,1.31-13.65,1.87l-13.61,1.59c-3.37.32-6.7.64-9.75.93-2.02.19-4.37.45-6.38.57-2.62.05-5.24.11-7.87.16-2.62.06-5.25.12-7.85.09-5.37.37-10.74.81-16.06,1.05-1.76.28-4.09.56-6.45.71-1.18.08-2.37.13-3.49.13-1.12,0-2.18-.08-3.12-.19-4.12.04-8.34.12-12.58.13-4.23-.03-8.5-.07-12.77-.1-.26-.11-.86-.24-1.17-.31-9.32-1.25-8.92-.02-11.25-.03-3.17.09-6.29.01-9.49,0-3.18-.04-6.44,0-9.74-.1-3.52-.24-7.11-.48-10.66-.73-3.7-.59-7.35-1.28-11.03-1.91-3.68-.62-7.31-1.36-10.96-2.08-1.6-.09-3.25-.19-4.89-.29-.37.08-1.07.12-1.41.15-5.36-.69-10.7-1.4-15.96-2.16-2.62-.41-5.23-.82-7.82-1.23-2.59-.41-5.17-.81-7.7-1.28.07-.17.18-.33.29-.5-5.52-1.53-7.07-1.79-8.63-2.04-1.22-.74-2.4-1.58-3.14-2.58-2.95.31-5.89.62-8.89.99-3.08-.55-6.12-1.18-8.82-1.74.16-.28.36-.55.53-.82,4.06.65,4.54-1.06,14.5.46.85.22,1.7.5,2.86.84,1.89.23,4.09.5,5.99.73,3.75,1.1,7.15,2.2,10.92,3.24,4.05.59,8.11,1.19,12.15,1.78,1.89.24,4.07.52,5.97.76,1.72-.05,3.7.16,6.48.59,2.78.44,6.4,1,11.34,1.78,17.43,1.78,34.79,2.95,52.68,3.48,4.23.12,8.11.26,12.38.26,7.01-.24,17.94-.55,28.24-.22,3.39-.34,6.22-.89,9.8-.89,5.56.76,15.74-.4,26.73-.28,2.29-.09,4.7-.27,7.11-.47,2.41-.18,4.82-.37,7.15-.54,3.09-.25,6.23-.65,9.42-1.06,3.18-.41,6.4-.81,9.64-1.28,6.5-1.05,13.08-2.01,19.68-3.29,3.27-.15,6.19-.28,9.45-.43,4.52-1.41,9.98-2.71,15.64-3.96,2.83-.66,5.71-1.27,8.55-1.83,2.84-.54,5.63-1.07,8.29-1.58,16.07-3.25,32.09-7.19,48.11-11.79,2.17-.67,4.58-1.41,6.84-2.11,2.24-.78,4.33-1.59,5.83-2.46,1.68-.56,3.33-1.11,4.98-1.66,4.65-1.2,7.61-2.27,9.72-3,2.11-.75,3.35-1.29,4.51-1.76,1.32-.44,2.64-.88,3.96-1.32,1.31-.47,2.63-.95,3.94-1.42,5.25-2.07,10.52-4.03,15.73-6.28l7.82-3.27c2.6-1.08,5.17-2.29,7.76-3.43,1.01-.05,2.01-.15,3.34-.34,2.57-1.38,5.15-2.69,7.7-4.12,1.91-.91,4.17-2,6.08-2.91,1.76-.84,3.51-1.68,5.28-2.53,1.75-.88,3.51-1.74,5.26-2.65,1.92-.68,5.79-2.69,9.7-4.84,3.9-2.16,7.84-4.43,10.04-5.46,4.18-2.3,8.48-4.93,12.76-7.86,4.27-2.94,8.51-6.18,12.57-9.65,4.06-3.47,7.96-7.18,11.56-11.02,3.61-3.84,6.89-7.84,9.87-11.79Z"/>
      <path class="cls-3" d="M749.33,563.84c-1.33.2-2.33.29-3.34.34,1.27-.86,3.92-2.28,6.3-3.32,2.39-1.02,4.48-1.8,4.73-1.14-2.55,1.43-5.12,2.73-7.7,4.12Z"/>
      <path class="cls-3" d="M725.65,565.75c-1.28.72-2.57,1.41-3.86,2.08-1.29.69-2.59,1.38-3.88,2.08-1.87.67-3.72,1.34-5.55,2-.92.33-1.83.66-2.75.99l-2.75.93c-3.66,1.24-7.33,2.48-11.08,3.75-1.3.29-2.95.66-4.55,1.03-2.13.57-4.18,1.11-6.22,1.65-2.04.53-4.07,1.11-6.2,1.6,0-.06.02-.18.02-.29,2.97-.95,6.23-2.23,9.17-3.25,3.26-1.23,6.54-2.36,9.46-3.52,6.17-2.58,7.45-1.39,11.04-2.35,2.58-1.47.95-1.89,4.51-3.39,2.58-1.01,5.15-2.01,7.74-3.02,1.6-.55,3.22-1.1,4.82-1.66.01.05,0,.17.01.22,0,.4.03.74.05,1.13Z"/>
      <path class="cls-3" d="M692.57,584.66c.92-.46,2.19-1.02,3.6-1.59,1.4-.6,2.94-1.21,4.4-1.74,2.93-1.06,5.57-1.79,6.23-1.43-1.16.48-2.4,1.01-4.51,1.76-2.11.73-5.07,1.79-9.72,3Z"/>
      <path class="cls-3" d="M426.24,608.69c-3.61.02-7.54-.07-11.16-.08-.3-.03-.96-.09-1.59-.14-5.19-.76-10.58-1.83-15.72-2.72-2.37.06-4.34.05-6.67.04-3.19-.84-7.47-1.22-11.53-1.7-4.06-.5-7.95-.99-10.43-1.87-4.26-.78-8.43-1.64-12.98-2.44-3.36-.55-6.67-1.22-10.01-1.83-.61-.11-1.2-.22-1.5-.28.14-.22.25-.38-.99-1.11,2.71.01,5.4.02,8.11.04,3.22.76,8.01,1.15,10.13,2.06,3.29.66,6.57,1.31,9.91,1.89,3.16.36,5.95.68,9.07,1.03,2.74-.68,8.23.7,12.05,1.02,1.41.42,2.8.91,5.74,1.51,6.37-.16,9.18.18,12.3.47,1.41.42,3.78.92,2.4,1.63.32.03.95.08,1.26.11,2.42-.2,4.48-.38,6.89-.58,2.77.38,7.06.27,8.7.93-3.55.52-.57,1.72-4,2.02Z"/>
      <path class="cls-3" d="M393.95,626.75c-2.28-.05-4.28-.14-6.15-.26-1.87-.13-3.59-.34-5.33-.55-3.47-.46-7.03-.97-11.73-1.74-3.22-.39-6.42-.77-9.33-1.12-4.1-.64-8.09-1.5-12.15-2.21-14.9-2.79-29.64-5.93-44.12-9.49,13.15,2.45,26.11,5.61,44.5,8.94,3.13-.05,5.73.82,12.24,1.98,2.88.42,6.04.88,9.17,1.34,5.4.23,10.67,1.19,15.5,1.7,2.48.48,4.97.9,7.41,1.41Z"/>
      <path class="cls-3" d="M302.39,610.72c-3.86-.04-5.97-.56-9.32-1.43-1.78-.01-3.52-.08-5.01-.05-3.66-.7-4.9-1.36-6.01-2.01-1.11-.64-2.05-1.33-5.07-2.2-1.63-1.2-5.53-2.12-8.52-3.01-3-.89-5.08-1.71-3.16-2.37,4.68.56,7.89,1.82,11.84,3.53,3.97,1.66,8.72,3.71,16.48,5.37,3.03.78,5.74,1.45,8.77,2.17Z"/>
      <path class="cls-3" d="M245.17,590.69c-4.41-1.59-10.89-5.2-16.74-10.32-2.96-2.5-5.64-5.45-8.03-8.39-1.15-1.51-2.23-3.02-3.2-4.51-.91-1.54-1.82-2.98-2.52-4.42-.6-.36-1.17-.99-1.78-1.78-.29-.4-.61-.83-.94-1.28-.3-.48-.62-.98-.95-1.49-.42-1.14-.87-2.26-1.22-3.43l-1-3.54c.67-.28,1.39-.58,2.05-.86,3.32,7.39,7.62,14.11,12.95,19.95,4.23,5.17,8.52,9.17,13.4,13,4.89,3.8,10.36,7.45,17.51,11.44-3.13-1.32-6.49-2.85-9.52-4.36Z"/>
      <path class="cls-3" d="M206.36,535.15c-.14-1.06-.28-2.12-.42-3.2-.07-.54-.15-1.08-.2-1.63-.03-.56-.07-1.12-.1-1.68-.07-1.12-.13-2.26-.2-3.4,0-1.16.02-2.34.03-3.51l.02-1.77.13-1.81c.09-1.21.19-2.42.28-3.63.38-2.46.7-4.93,1.15-7.4,1.96-9.93,5.7-19.89,10.07-28.63.07.14.01.51-.13,1.03-.16.51-.36,1.17-.59,1.89-.46,1.44-1.06,3.12-1.49,4.37-.53,1.71-.81,2.92-1.2,3.87-.37.95-.73,1.65-1.12,2.34-.37.7-.81,1.39-1.18,2.33-.36.94-.74,2.14-1.11,3.83-.07.7-.22,1.56-.43,2.54-.14.98-.34,2.07-.57,3.25-.22,1.18-.51,2.44-.75,3.72-.19,1.28-.38,2.6-.57,3.92-.47,2.65-.54,5.2-.64,7.4,0,2.18.21,3.96.52,5.02-.08,1.76-.06,3.57-.09,5.4.06,1.8.19,3.59.27,5.32-.31.4-.55,1.1-.85,1.81-.31-.56-.64-1.11-.85-1.38Z"/>
      <path class="cls-3" d="M225.13,454.9c.56-.81,1.11-1.59,1.64-2.37.55-.77,1.13-1.51,1.69-2.26,1.13-1.49,2.26-2.98,3.44-4.55-.42,1.23,1.83-1.3,3.55-3.55,1.84-2.11,4.3-4.7,6.94-7.65,1.33-1.46,2.81-2.95,4.27-4.51.75-.77,1.47-1.58,2.25-2.35.78-.77,1.56-1.55,2.35-2.33.79-.78,1.57-1.57,2.36-2.36.78-.79,1.62-1.53,2.42-2.29,1.63-1.5,3.17-3.04,4.77-4.42,1.58-1.4,3.11-2.75,4.56-4.02,1.45-1.26,2.84-2.38,4.1-3.44,2.56-1.85,4.17-2.56,5.91-3.43.87-.43,1.78-.9,2.87-1.54,1.1-.63,2.4-1.38,4.04-2.46,8.32-5.91,18.12-11.19,27.81-16,6.58-3.95,13.04-7.06,18.96-9.61,5.93-2.49,11.32-4.5,15.91-6.17,1.32-.5,2.32-.87,3.31-1.24,5.7-3.1,13.68-5.51,19.68-7.55,4.28-1.33,8.23-2.56,12.48-3.88,1.35-.56,2.83-1.16,4.39-1.68,1.57-.52,3.23-1.04,4.95-1.56,3.44-1.04,7.12-2.07,10.79-3.09,3.67-.93,7.34-1.85,10.77-2.79,1.71-.47,3.36-.94,4.93-1.42,1.56-.46,3.03-.89,4.39-1.35-.64.87,4.5-.58,2.07.87-.23.33-.43.6-.68.93-3.06.82-6.12,1.64-9.14,2.45-3.03.81-6.03,1.57-8.98,2.31-2.95.71-5.86,1.55-8.69,2.38-2.83.83-5.59,1.69-8.24,2.59-2.53.58-5.1,1.34-7.63,2.01-3.28,1.02-6.21,1.93-9.51,2.96-.83.09-1.68.18-2.48.22-1.56.83-4.03,1.63-6.58,2.55-2.56.95-5.2,1.96-7.1,3.2-.98.35-1.98.71-2.95,1.06-1.67.62-3.34,1.29-4.97,1.94-1.63.66-3.22,1.27-4.72,1.91-2.04.9-4.43,1.96-6.42,2.84-1.64.68-3.28,1.36-4.87,2.03-1.59.7-3.15,1.38-4.62,2.03-4.14,1.65-5.77,2.99-8.01,3.96-2.49,1.04-5,2.09-7.46,3.12-1.12.55-1.98,1.11-3.15,1.85-.58.37-1.24.78-2.04,1.27-.8.49-1.73,1.09-2.87,1.76-5.78,3.1-11.1,6.27-16.72,9.78-1.21.73-2.96,1.79-4.7,3-1.74,1.2-3.39,2.66-4.48,3.98-1.86,1.3-3.95,2.94-5.76,4.33-2.43,1.81-4.74,3.81-7.1,5.75-1.19.96-2.31,2-3.46,3.02l-3.43,3.07c-.97.88-2.07,1.88-3.21,2.92-1.13,1.06-2.36,2.11-3.42,3.23-2.15,2.21-4.12,4.26-4.99,5.57-.89,1.37-2.6,3.28-4.32,5.29-1.64,2.05-3.26,4.21-4.02,5.92-1.94,2.05-3.8,4.16-5.69,6.31-2.73,4.4-3.63,6.09-8.63,14.47.08-.39.16-.79.24-1.18.11-.39.21-.79.32-1.2.23-.82.48-1.68.79-2.64-1.16,1.09-2.35,2.19-3.52,3.32.58-1.53.6-2.47,1.14-4,.27-.76.67-1.67,1.34-2.86.68-1.19,1.72-2.62,3.14-4.47Z"/>
      <path class="cls-3" d="M230.17,442.28c2.34-2.25,8.37-9.71,13.17-14.46,2.3-2.45,4.29-4.21,4.95-4.6.69-.37.04.62-2.48,3.95-1.39,1.45-2.78,2.9-4.14,4.32-1.36,1.41-2.58,2.87-3.79,4.21-.79.9-1.61,1.8-2.66,3.02-1.15,1.28-2.36,2.65-3.61,4.05-.62.71-1.27,1.41-1.89,2.15-.61.74-1.22,1.49-1.83,2.24-.66.38-.03-.73.73-1.99.74-1.28,1.74-2.64,1.56-2.88Z"/>
      <path class="cls-3" d="M264.96,437.25c-.25-.58-.08-1.28.79-2.47.88-1.18,2.53-2.77,5.15-5.22,2.37-2.44,4.76-4.93,6.95-6.67,1.07-.88,2.03-1.61,2.83-2.11.81-.49,1.45-.72,1.85-.68.8-.45,1.58-.89,2.4-1.41-.11.57-.23,1.14-.35,1.72-.84.79-1.77,1.63-2.67,2.51-.89.88-1.77,1.77-2.6,2.59-.65.45-1.28.89-1.91,1.32-.62.44-1.19.88-1.79,1.32-1.19.88-2.37,1.76-3.62,2.69-1.11.99-2.27,2.03-3.47,3.1-.59.54-1.22,1.06-1.8,1.62-.59.57-1.18,1.14-1.77,1.7Z"/>
      <path class="cls-3" d="M382.27,375.33c-.1-.64.56-1.27,2.28-2.13,1.73-.82,4.52-1.8,8.68-3.2,1.14-.54,2.34-1.16,3.49-1.77,3.69-.53,7.4-.93,11.06-1.3-.41.6-.87,1.27-1.34,1.96-2.2.56-4.11,1.02-6.32,1.62-1.72.26-3.49.6-5.58,1.02-2.1.64-4.11,1.25-6.13,1.86-2.01.6-4.03,1.21-6.14,1.94Z"/>
      <path class="cls-3" d="M407.78,366.93c1.37-.46,2.99-.93,4.67-1.47,1.2-.22,2.4-.44,3.58-.65,1.19-.21,2.36-.35,3.53-.51,2.74-.84,5.42-1.62,9.65-2.74.25-.34.49-.67.67-.94,2.85-.69,6-1.24,9.17-1.89,2.84-.56,5.98-1.19,8.81-1.76,2.59-.71,5.47-1.24,8.86-1.93,3.39-.68,7.3-1.55,11.94-2.62,2.82-.4,5.95-.85,9.09-1.3,1.25-.19,2.79-.37,4.36-.55-.52.61-1.07,1.26-1.55,1.82-.21.25-.35.44-.79.94-.61.4-1.62.95-2.54,1.42-1.56.22-2.78.4-4.35.62-1.78.17-3.89.36-5.67.53-4.15.65-8.27,1.5-12.43,2.3-1.44.28-2.96.58-4.53.89-.78.16-1.58.32-2.38.48-.8.19-1.61.38-2.42.56-2.67.53-5.42,1.08-8.17,1.62-2.75.54-5.49,1.07-8.17,1.71-4.22,1.1-8.62,2.44-12.59,3.48-3.98,1.15-7.54,1.99-10.12,1.95.47-.69.93-1.36,1.34-1.96Z"/>
      <path class="cls-3" d="M413.33,364.18c2.84-.73,5.58-1.29,8.31-1.85,2.73-.57,5.45-1.13,8.24-1.71-.18.27-.42.6-.67.94-4.23,1.13-6.92,1.9-9.65,2.74-1.16.16-2.34.3-3.53.51-1.19.22-2.38.43-3.58.65.28-.41.62-.88.89-1.28Z"/>
      <path class="cls-3" d="M377.85,364.94c1.43-.42,1.7-.74,2.66-1.23.48-.25,1.14-.54,2.21-.91,1.06-.38,2.54-.8,4.65-1.29,3.65-.75,6.98-1.42,10.34-2.14.83-.41,1.75-.82,2.73-1.24.98-.4,2.03-.78,3.13-1.17,2.2-.78,4.6-1.56,7.1-2.33,2.49-.75,5.08-1.56,7.64-2.2,2.56-.64,5.09-1.28,7.48-1.89,2.07-.34,4.26-.84,6.46-1.39,2.2-.52,4.4-1.04,6.48-1.54,4.16-.98,7.83-1.77,9.96-1.56,2.57-.44,5.13-.88,7.67-1.32,3.3-.99,6.92-2.13,10.21-3.05-.26-.36-1.92-.74,1.29-1.54,1.92-.27,3.93-.68,3.51.85.78.09,2.92-.12,5.61-.62,1.34-.24,2.83-.58,4.34-.93,1.51-.34,3.07-.76,4.56-1.24,1.59-.18,3.2-.37,4.46-.52,3.76-.72,1.03-1.19,4.48-1.88,2.56-.33,5.09-.49,7.62-.73,2.1-.23,4.18-.45,6.25-.68,2.07-.22,4.13-.47,6.18-.61,4.1-.33,8.2-.66,12.37-.99,3.55-.43,7.09-.52,10.86-.67,1.89-.08,3.83-.15,5.85-.23,2.01-.04,4.11-.1,6.32-.22,2.06-.35,5.02-.28,7.75-.27,2.73.02,5.2.12,6.38-.42,4.13.02,8.29-.05,11.99.08,2.6.33,6.78.92,9.51-.04,1.3-.01,2.61-.03,3.93-.04,1.31,0,2.61.04,3.92.06,1.88.4,3.37.83,4.88,1.26,2.02-.3,4.04-.6,6.06-.9,1.88.12,4.11.26,6.03.38,3.59.74,7.16,1.43,10.44,2.16,3.67.43,7.09.82,10.4,1.25.5.44.94.93,1.73,1.41-.32.26-.63.5-.89.72.78.17,1.51.34,2.19.49.68.16,1.31.3,1.9.41,1.18.23,2.18.38,3.02.46,1.68.17,2.71.08,3.15-.12.02-.3-.22-.65-.5-1.01.4-.3.79-.6,1.24-.94,2.04.53,4,1.04,5.97,1.54,1.94.56,3.88,1.13,5.88,1.71-2.11.05-3.79-.16-5.3-.38-1.52-.21-2.89-.39-4.35-.38,2.27,1.12,7.5,2.22,11.53,3.12,4.04.9,6.86,1.63,4.23,2.19-4.07-.56-4.39-.32-9.64-.82.76.54,1.14,1.05,1.63,1.53,2.83.93,6.02,1.83,8.82,2.78-.26.19-.45.33-.64.47-3.26-.33-5.34-.71-7.46-1.04-2.11-.64-4.2-1.27-6.3-1.91-3.77-.69-7.53-1.38-11.29-2.07-.47-.45-.91-.97-1.4-1.42-1.96-.31-4.18-.52-6.47-.81-2.29-.28-4.66-.59-6.96-.93-2.3-.35-4.54-.7-6.58-1.01-2.04-.34-3.86-.71-5.31-1.12-2.74-.25-5.82-.56-8.98-.67-3.04-.5-6.15-.96-9.28-1.41-.79.11-1.77.08-2.85.03-1.08-.04-2.24-.13-3.34-.2-2.21-.15-4.21-.24-4.94.28-2.12-.12-4.32-.25-6.52-.38-2.22-.06-4.43-.13-6.58-.19-.59.28-1.51.54-2.42.81-.91-.02-1.84-.05-2.76-.08-1.07-.18-2.14-.35-3.21-.53-1.08-.17-2.17-.29-3.26-.44-3.24,0-6.15.05-8.97.14-1.41.05-2.78.07-4.18.17-1.39.11-2.79.22-4.21.33-2.85.25-5.81.51-9.11.8-3.3.3-6.97.81-11.19,1.28-2.43-.08-4.51-.08-6.29,0-1.78.12-3.27.3-4.5.5-2.46.4-3.92.9-4.83,1.26-.18.19-.33.37-.48.55-3.02.79-5.6,1.36-8.86,2.22.13-.81-2.59-.94-6.53-.32-2.48.25-4.59.33-7.33.6-2.76.62-5.11,1.13-8.14,1.73-1.82.18-3.73.36-5.67.55-1.94.2-3.93.47-5.89.69-3.78.93-7.54,1.86-11.62,2.86-5.78.67-11.49,2.04-16.51,3.36-5.03,1.38-9.35,2.54-12.42,2.51-1.63.38-3.29.82-4.95,1.28-1.66.45-3.34.89-5.03,1.35-1.69.45-3.39.91-5.09,1.36-1.71.46-3.42.91-5.15,1.44-3.26.98-6.26,1.94-9.58,2.99-.61-.28-1.21-.55-2.15-.73-2.92.78-6.14,1.86-9.06,2.74Z"/>
      <path class="cls-3" d="M427.54,344.5c3.9-1.79,6.29-2.54,8.15-2.87,1.85-.35,3.17-.36,4.93-.69,1.13-.76,2.76-1.27,4.65-1.57,1.89-.3,4.03-.44,6.18-.31.66-.11.98-.17,1.62-.28-.87.38-1.34.63-2.15.93-2.66.55-5.34,1.21-8.01,1.83-.83,0-1.65,0-2.75-.01-1.99.45-4.07.92-6.19,1.4-2.12.48-4.28,1.05-6.42,1.55Z"/>
      <path class="cls-3" d="M479.79,353.33c4.04-.46,8.06-.93,11.78-1.35,2.91-.15,5.71-.06,8.2,0-2.74.53-5.46,1-8.14,1.58-.71.48-1.63.93-2.64,1.44.46.12.93.23,1.08.39-4.19,1.33-6.02,1.54-9.9.85.02-.06.14-.19.19-.25.38-.44.69-.82,1.05-1.25-1.39-.01-2.78-.03-4.16.02.92-.47,1.93-1.02,2.54-1.42Z"/>
      <path class="cls-3" d="M526.85,350.98c.67-.08,1.4-.22,1.76-.28,5.77-.16,11.85-.41,17.55-.34,1.01.81,2.29,1.62,3.22,2.49-4.18.44-7.35.54-9.94.55-2.61.07-4.64.06-6.51.17.5-.82-3.99-.75-7.98-.57.64-.65,1.25-1.31,1.91-2.02Z"/>
      <path class="cls-3" d="M547.83,348.68c2.62-.2,4.97-.6,7.45-.88,2.46-.22,5.04-.32,8.1,0,2.33.42,4.92.88,7.53,1.35-1.84.25-3.75.64-5.59.93.71.49,1.13.97,1.54,1.45-4.27,1.46-8.06.41-9.21.32.64-.62,1.32-1.31,1.99-1.93-1.95-.04-3.81-.14-5.69-.14-1.88,0-3.76,0-5.72,0-.26-.35-.46-.75-.41-1.1Z"/>
      <path class="cls-3" d="M600.42,350.22c4.47.42,7.33-.87,12.3.26.62.18,1.23.35,1.83.53.59.19,1.18.38,1.76.56,1.17.37,2.33.75,3.56,1.14-2.15-.11-3.94-.2-5.47-.28-1.54-.03-2.83-.06-3.96-.08-2.26-.06-3.87-.16-5.66-.46,1.13-.41-2.82-1-4.37-1.66Z"/>
      <path class="cls-3" d="M623.9,353.32c1.65-.24,3.39-.55,5.3-.63,1.89-.04,3.96.14,6.27.8,1.76.41,3.45.81,5.14,1.21.84.2,1.69.4,2.54.6.84.23,1.69.46,2.56.69-.93.02-1.77.04-2.61.06-.85.04-1.7.08-2.64.13-2.71-.49-5.49-1-8.26-1.51-1.39-.25-2.77-.52-4.16-.74-1.39-.21-2.78-.42-4.14-.62Z"/>
      <path class="cls-3" d="M756.47,387.72c.22.39.25.62.56.99-1.81-.42-3.41-.91-4.88-1.39-1.48-.45-2.81-.93-4.03-1.42-2.43-.97-4.39-1.96-6.2-2.77-.52-1.01-1.04-2.01-1.22-2.93,2.55,1.2,5.16,2.42,7.81,3.66,1.32.62,2.66,1.24,3.99,1.87,1.34.62,2.63,1.33,3.96,1.99Z"/>
      <path class="cls-3" d="M765.27,392.91c3.22,2.25,6.2,4.32,9.45,6.58,1.33.38,2.85.9,4.38,1.48,5.86,3.14,7.67,3.1,11.39,5.71,3.35,2.1,6.86,4.29,10.25,6.41,1.72,1.02,3.32,2.15,4.91,3.16,1.58,1.02,3.11,1.98,4.56,2.84,1.25.51,2.57,1.37,3.91,2.31,1.31.98,2.63,2.05,3.93,2.94-.15.05-.21.08-.36.13-4.64-3.19-7.67-4.42-10.13-5.6-2.5-1.13-4.49-2.13-7.53-4.24-1.82-.49-6.13-3.65-10.43-6.34-1.77-.71-3.82-1.54-5.61-2.26-1.56-1.04-3.01-1.84-4.59-2.63-1.58-.8-3.27-1.61-5.42-2.58-3.05-1.32-6.08-2.64-9.11-3.95-1.4-2.33,1.65-1.81-.6-4.46.25.13.75.38,1,.51Z"/>
      <path class="cls-3" d="M809.98,404.79c2.4,2.36,4.93,4.65,7.37,6.97-.65.24-1.17.43-1.75.64,1.39.98,3.05,2.07,4.4,3.09,1.58.95,3.39,2.04,4.96,2.98,3.96,3.34,3.66,3.44,2.94,3.69-.35.61-.77,1.25-1.35,1.69-.04,1.24-.08,2.47-.35,3.54-2.09-1.23-4.04-2.29-6.41-3.66-1.45-1.7-3.09-3.62-4.58-5.27-3.14-2.05-6.23-4.06-9.37-6.11.14-.29.03-.75-.07-1.21,2.02.47,4.11.92,6.21,1.37-.34-.62-.67-1.23-1.32-1.99.3-.11.51-.19.74-.26-1.1-.96-2.21-1.91-3.31-2.87-1.1-.96-2.28-1.83-3.43-2.75.32-.62.7-1.28,1.26-1.75,1.42.7,2.61,1.19,4.06,1.89Z"/>
      <path class="cls-3" d="M817.36,411.76c1.62.88,3.49,1.94,5.05,2.9.78,1.22,1.79,2.61,2.56,3.81-1.56-.94-3.38-2.03-4.96-2.98-1.35-1.02-3.01-2.11-4.4-3.09.58-.21,1.1-.4,1.75-.64Z"/>
      <path class="cls-3" d="M861.71,445.4c.13.87.22,1.58.36,2.27.12.69.3,1.34.36,2.16.07.82.14,1.76.06,3.02-.12,1.27-.29,2.83-.72,4.82.1-1,.11-2.02.17-3.06.04-1.04.11-2.09.07-3.12,0-2.08-.12-4.13-.3-6.09Z"/>
      <path class="cls-3" d="M860.42,468.32c-1.11,5.86-2.88,11.7-5.2,17.39-.51,1.14-1.01,2.26-1.5,3.36-.55,1.09-1.08,2.16-1.62,3.24-.52,1.08-1.13,2.13-1.72,3.19-.6,1.06-1.17,2.14-1.85,3.2-2.63,3.81-6.07,8.07-9.84,12.42-3.77,4.34-7.97,8.76-11.97,12.97-2.69,2.05-2.93,1.63-4.57,2.5-2.26,2-4.59,3.94-6.93,5.78-6.29,5.77-7.22,5.52-11.79,7.58-1.48,1.12-2.87,2.72-4.37,4.01-2.01,1.39-6.39,4.31-10.02,6.39-3.64,2.08-6.49,3.33-5.37,1.72-2.61,1.12-5.2,2.17-7.81,3.27-2.58,1.27-4.13,2.61-6.01,3.85-2.84,1.33-5.68,2.67-8.52,4.01-2.85,1.33-5.69,2.71-8.58,3.95-5.78,2.53-11.57,5.17-17.52,7.53-1.31.81-3.12,1.61-5.05,2.41-1.94.79-3.99,1.62-5.82,2.36-2.03.44-4.34.95-6.35,1.39-2.64,1.01-5.3,2.11-7.94,3.04-4.38,2.52-12.07,5.11-22.79,8.25-2.02.66-4.12,1.41-6.27,2.06-2.15.66-4.34,1.34-6.53,2.01-2.18.57-4.27,1.11-6.37,1.66-2.1.51-4.21,1.02-6.4,1.56-3.19.76-5.85,1.8-8.41,2.74-2.57.9-5.06,1.66-7.88,1.94-1.68.38-3.36.76-5.01,1.13-.82.19-1.64.38-2.44.56-.8.17-1.59.33-2.36.5-2.02.47-4.39,1.02-6.42,1.49-2,.72-3.87,1.29-5.44,1.69-1.57.39-2.83.57-3.61.58-1.56.02-1.16-.72,2.57-2.4-1.27-.24-1.5-.7-6.29.52-3.01.53-6.36,1.12-9.72,1.71-3.06.57-6.43,1.19-9.46,1.75-1.31.36-2.7.71-4.21.99-1.5.27-3.11.5-4.85.72-1.74.21-3.59.4-5.6.56-2,.17-4.14.32-6.44.39,3.08-.54,6.07-1.22,9.05-1.83,2.98-.63,5.96-1.25,9.04-1.9.93.11,1.87.21,3.16.26,3.03-.49,6.35-1.02,9.41-1.52,3.42-.86,6.81-1.66,10.1-2.33,3.29-.68,6.49-1.26,9.53-2.03,5.46-1.77,4.48.19,8.05-1.65,2.43-.98,6.41-1.73,14.39-3.05,2.37-.6,4.39-1.12,6.42-1.71,3.36-.95,6.64-1.87,9.87-2.78,1.62-.44,3.22-.93,4.81-1.43,1.6-.49,3.18-.98,4.77-1.47,2.18-.63,4.36-1.26,6.49-1.88,2.13-.62,4.2-1.29,6.2-1.89,1.69-.76,3.53-1.49,6.04-2.3,2.51-.78,5.66-1.76,9.97-2.95,2.99-1.37,5.3-2.48,7.96-3.74,2.32-.56,4.29-.92,6.62-1.49,2.96-1.4,6.27-2.92,9.2-4.43,3.92-1.76,8.5-3.5,9.52-3.41,3.33-.66,6.2-2.9,9.44-4.42,2.93-1.27,5.77-2.51,8.6-3.74,2.82-1.3,5.64-2.59,8.54-3.92,3.64-.72,10.73-4.24,23.15-10.44,1.28-.69,2.12-1.33,3.51-2.21,1.4-.87,3.36-1.97,6.88-3.66,3.97-2.7,7.86-5.41,11.73-8.23,3.86-2.82,7.68-5.78,11.41-9.05,3.72-3.27,7.37-6.8,10.82-10.8,3.41-4,6.59-8.43,9.33-13.3,3.4-5.12,6.49-10.84,8.83-16.37.75-1.41,1.29-2.69,1.87-3.93.6-1.24,1.07-2.46,1.59-3.77.76-1.97,1.24-3.89,1.81-5.77.25-.94.44-1.87.67-2.8.22-.93.45-1.85.59-2.78.96-1.56,2.41-4.25,3.44-3.08.51,1.85,1.17,3.8,1.49,5.8Z"/>
      <path class="cls-3" d="M763.99,550.18c-2.67,1.51-5.12,2.86-7.34,4.04-2.22,1.17-4.18,2.19-5.91,2.92-3.43,1.51-5.76,2.27-6.75,2.13,1.54-1.3,4.3-2.77,7.81-4.28,3.48-1.58,7.69-3.25,12.18-4.81Z"/>
      <path class="cls-3" d="M599.35,602.13c-1.37.42-2.96.77-5.23,1.15-2.27.33-5.23.65-9.31,1.06,2.07-.64,5.03-1.35,7.81-1.8,2.78-.45,5.38-.76,6.73-.4Z"/>
      <path class="cls-3" d="M528.04,623.4c.55-1.53,5.9-1.85,11.76-1.84,1.43.62-.56.96-3.39,1.21-2.83.29-6.47.33-8.38.63Z"/>
      <path class="cls-3" d="M508.68,624.34c-3.28.83-7.03.26-11.03.44-2.51.41-5.04.72-7.57.96-2.53.2-5.06.31-7.6.37-2.54.06-5.1.07-7.66.04-2.55-.08-5.11-.19-7.68-.31-2.57-.13-5.16-.23-7.74-.41-2.58-.18-5.18-.34-7.79-.48-5.24-.23-10.48-.54-15.85-.5-4.28-.11-8.53-.35-12.83-.5-2.11-.15-4.21-.33-6.36-.6-2.15-.27-4.35-.55-6.7-.81-2.35-.27-4.85-.47-7.54-.66-2.69-.21-5.6-.34-8.82-.36-2.01-.63-12.39-2.68-9.4-.81-3.1-.24-6.19-.49-9.29-.73l-9.24-.9c-1.2-.3-2.06-.54-2.99-.74-2.23-.82-4.98-1.54-8.43-2.07-3.45-.54-7.58-.96-12.46-1.46-2.59-.3-5.18-.59-7.76-.89-.91-.22-1.74-.53-2.92-.84-2.7-.68-5.69-1.41-8.7-2.1-.32-.06-.93-.19-1.23-.25-3.42-.66-7.13-1.38-10.53-2.03.37-.53.76-1.08,1.1-1.57-.23-.18-.75-.42-1.33-.61.22-.32.49-.71.71-1.03-2.53-.89-5.33-1.87-8.16-2.86-1.36-.02-3.06-.12-4.74-.23-3.02-.7-5.75-1.33-8.78-2.03-.31-.09-.87-.25-1.46-.42-.51-.73-1.14-1.36-1.64-2.03,5.55,1.53,11.28,2.9,16.98,4.24,3.75,1.12,7.59,2.18,11.4,3.21,2.67-.07,5.45.59,8.37,1.34,2.93.73,5.98,1.62,9.09,2.14,2.87.39,5.77.72,8.62,1.05,2.85.32,5.66.64,8.39.95,2.6.89,5.47,1.58,8.48,2.17,1.51.29,3.05.56,4.62.81,1.57.24,3.18.43,4.8.64,3.23.4,6.5.8,9.71,1.26,3.23.41,6.41.89,9.42,1.54,1.41-.08,2.44-.07,6.96-.9-.26-.15-.87-.27-1.11-.42.34-.02,1.04-.07,1.41-.15,1.64.1,3.29.19,4.89.29,3.65.72,7.28,1.46,10.96,2.08,3.67.63,7.33,1.32,11.03,1.91,3.55.24,7.13.49,10.66.73,3.3.09,6.55.06,9.74.1,3.19,0,6.32.08,9.49,0,2.33,0,1.92-1.22,11.25.03.31.07.91.19,1.17.31-.16.35-.33.74-.49,1.09,1.78.42,10.78.26,8.93,1.46,1.74,0,3.53,0,5.34.01,1.81-.01,3.64-.02,5.44-.04,3.6-.05,7.09-.09,10.21-.45,1.69.63,9.77-.61,8.96.56,1.51-.05,2.85-.1,4.14-.14,1.3-.07,2.55-.14,3.89-.21,1.7-1,10.65-1.25,7.97-.19-.75.21-1.86.49-8.27,1.01Z"/>
      <path class="cls-3" d="M467.11,618.51c-4.27,0-8.15-.14-12.38-.26.05-.12.1-.23.14-.29,4.2.17,8.04.43,12.24.55Z"/>
      <path class="cls-3" d="M444.63,612.58c-2.5-.24-3.85.47-9.55.06-2.83-.25-5.98-.59-8.77-.9-4.22-.14-8.39-.41-12.55-.72-.18.34-.39.74-.56,1.07-6.03-.54-11.92-1.36-17.89-2.04-3.48-.3-7.28-.72-10.75-1.09-1.87-.25-4.07-.5-5.93-.77-.66-.58-1.34-1.16-2.29-1.79-2.75-.47-5.04-.62-9.14-1.04-.22.33-.47.72-.66,1.05-3.78.07-7.54.13-11.35.2-1.89-.23-4.09-.5-5.99-.73-1.17-.34-2.01-.62-2.86-.84-1.2-.83-2.4-1.61-3.26-2.38-3.93-.77-6.68-.79-10.49-1.76-1.61-.64-3.54-1.35-5.23-1.95,1.3-.35,2.56-.72,3.8-1.02,1.5.31,3.01.62,4.5.93l4.49-.56,4.51-.63c.3.05.89.16,1.5.28,3.34.6,6.65,1.27,10.01,1.83,4.55.8,8.72,1.66,12.98,2.44,2.75.44,5.5.89,8.21,1.33,1.36.22,2.7.44,4.03.65,1.34.19,2.67.38,3.98.56,4.73,1.6,7.19.25,12.41.99,5.14.89,10.52,1.96,15.72,2.72.63.06,1.28.12,1.59.14,3.62.01,7.55.1,11.16.08,2.79.36,5.84.74,8.93,1.14,2.8-.34,7.12.19,10.54.54-.36.74-.72,1.47-1.09,2.22Z"/>
      <path class="cls-3" d="M331.31,605.4c-2.74-.56-5.41-1.11-8.07-1.66-2.64-.59-5.27-1.19-7.97-1.79-3.91-.87-7.51-1.7-11.39-2.67.28-.37.53-.69.75-1.02,3.85.96,7.45,1.79,11.36,2.65,2.68.65,5.29,1.27,7.89,1.9,2.63.58,5.26,1.16,7.96,1.76-.18.27-.37.55-.53.82Z"/>
      <path class="cls-3" d="M266.8,578.28c-6.14-2.99-12.08-6.52-17.42-10.62.24-.36-.66-1.48-1.41-2.51-.78-1-1.31-2.01-.55-1.97.1-.09.21-.17.26-.21,1.54.81,2.84,1.61,3.96,2.52,1.21.85,2.22,1.79,3.29,2.72,2.17,1.82,4.36,3.76,7.91,5.25,1.03.76,2.03,1.47,3.07,2.14,1.04.68,2.06,1.38,3.21,2.07-.88.15-1.48.45-2.33.61Z"/>
      <path class="cls-3" d="M279.31,425.49c.82-.82,1.71-1.7,2.6-2.59.9-.87,1.83-1.71,2.67-2.51,2.88-1.82,6.13-3.64,9.09-5.36.25-.04.77-.25,1.31-.52-4.31,4.1-10.88,7.85-15.76,11.68-1.36,1.19-2.54,2.4-3.74,3.6-1.19,1.2-2.41,2.35-3.6,3.66-1.66,1.41-3.46,2.8-5.12,4.36-1.68,1.53-3.44,3-4.99,4.54-.52-.31.29-2.23,3.19-5.09.59-.54,1.18-1.09,1.76-1.62.58-.54,1.2-1.03,1.79-1.54,1.19-1.01,2.37-2.02,3.55-3.02,1.2-.94,2.4-1.88,3.6-2.82.6-.47,1.18-.94,1.79-1.4l1.86-1.35Z"/>
      <path class="cls-3" d="M356.23,377.82c2.04-.64,3.99-1.26,5.95-1.88,1.96-.61,3.93-1.22,6.01-1.86-.22.35-.46.71-.84,1.34-4.47,1.46-9.26,3.07-13.67,4.66.96-.79,1.6-1.46,2.56-2.25Z"/>
      <path class="cls-3" d="M351,386.94c5.13-2.49,9.48-4.24,13.28-5.57,1.9-.66,3.66-1.24,5.32-1.73,1.66-.47,3.21-.91,4.69-1.33,2.66-.99,5.32-1.98,7.98-2.97,2.11-.73,4.13-1.34,6.14-1.94,2.01-.61,4.02-1.22,6.13-1.86,2.09-.42,3.87-.75,5.58-1.02-.27.41-.61.9-.86,1.3-.99.33-2.04.74-3.07,1.15-3.75,1-7.5,2-11.25,3.01-3.76,1.12-7.52,2.25-11.3,3.38-10,3.66-18.83,7.46-22.63,7.6Z"/>
      <path class="cls-3" d="M655.24,339.87c2.46.4,4.9.8,7.29,1.25,1.38.21,3.03.34,4.52.59,1.49.24,2.82.6,3.5,1.34,4.07.69,4.91,1.72,7.68,2.47,4.08.77,8.14,1.53,12.3,2.25.64.64,1.67,1.27,2.64,1.99,2.43.58,4.85,1.15,7.27,1.72,2.98.77,5.73,1.36,8.71,2.2,2.88,1.15,5.75,2.3,8.71,3.4,2.8.76,6.18,1.87,9.35,2.96,3.15,1.13,6.06,2.28,7.65,3.63,1.53.44,2.79.8,4.34,1.25.69-.38,1.39-.76,2.02-1.1,1.47.49,2.94.99,4.34,1.52,2.75,1.33,5.36,2.83,7.96,4.32,1.97.78,3.68,1.45,5.32,2.14,2.6,1.21,5.01,2.57,7.43,3.84,2.4,1.29,4.76,2.56,7.13,3.83.88.08,1.47.08,2.34.19,3.58,1.91,7.5,3.93,11.18,5.82.65-.28,1.37-.59,2.01-.87.73.44,1.48.89,2.46,1.48,2.59,1.18,1.52-.64,8,3.67,1.92,1.07,3.7,2.22,5.52,3.31,1.82,1.1,3.64,2.2,5.53,3.35.32.13.95.39,1.26.51.41.34.75.71.92.89,2.86,1.66,5.88,3.59,8.72,5.31.27.64.47,1.33.73,1.97-1.29-.28-2.6-.56-3.87-.83-.71-.49-1.41-.98-2.37-1.64-.67,0-1.64-.14-2.55-.31-.36,1.14-.89,2.09-1.49,3.06-.44-.08-1.13-.32-1.82-.57-1.45-.7-2.64-1.19-4.06-1.89-.64-.49-1.22-1.01-2.02-1.68-1.49-2.17-2.97-4.33-4.44-6.48-1.85-1.02-3.5-1.81-5.28-2.81l-1.56-1.59c-2.68-1.35-5.07-2.66-7.8-3.94-4.17-2.14-8.22-4.37-12.42-6.46-3.37-1.17-6.74-2.34-10.4-3.61,2.42,1.87,4.52,3.65,6.62,5.43-2.33-.9-4.4-.9-7.1-2.63-1.62-1.31-3.27-2.35-5.03-3.16-1.74-.84-3.53-1.53-5.39-2.22-1.86-.68-3.78-1.36-5.8-2.14-2.05-.72-4.2-1.56-6.47-2.63-1.45-.62-2.96-1.27-4.48-1.92-.76-.33-1.52-.65-2.27-.97-.76-.3-1.52-.59-2.26-.88-3.44-.61-5.82-2.34-9.12-3.56-7.64-1.21-17.66-5.82-25.75-6.66-5.19-1.47-10.22-2.56-15.45-3.88-.99-.13-2.07-.27-3.14-.42-1.08-.13-2.15-.25-3.13-.37-1.33-.39-2.63-.84-3.69-1.16-2.47-.42-4.93-.84-7.4-1.27-2.79-.94-5.98-1.85-8.82-2.78-.48-.48-.87-.99-1.63-1.53,5.25.5,5.57.26,9.64.82,2.63-.56-.19-1.28-4.23-2.19-4.03-.91-9.26-2-11.53-3.12,1.46,0,2.83.18,4.35.38,1.51.22,3.19.43,5.3.38Z"/>
      <path class="cls-3" d="M662.53,341.12c1.38.21,3.03.34,4.52.59,1.49.24,2.82.6,3.5,1.34-.68-.74-2.01-1.1-3.5-1.34-1.49-.25-3.14-.38-4.52-.59Z"/>
      <path class="cls-3" d="M668.2,360.3c1.24-.48,2.49-.96,3.8-1.46,1.3-.48,2.64-.91,4.07-1.35,2.57.92,4.94,1.43,7.33,1.93,1.19.25,2.39.5,3.62.8,1.21.32,2.44.72,3.72,1.2,3.66.77,7.07,1.46,10.55,2.11,5.65,1.73,9.09,1.96,11.53,2.82,3.05,1.22,5.72,2.57,8.38,3.84-1.98-.14-3.23-.31-4.65-.54-.71-.12-1.46-.25-2.36-.4-.92-.12-1.99-.26-3.32-.43.34.31.68.63.67.89-4.58-.55-8.87-1.05-13.43-1.55-2.25-.62-4.53-1.26-6.78-1.88.4-.65-1.76-1.55-4.49-2.4-2.73-.83-6.1-1.48-8.01-1.91-2.73-.25-5.45-.54-8.18-.75-.99-.37-1.76-.62-2.45-.92Z"/>
      <path class="cls-3" d="M690.53,347.76c2.82.49,5.91,1.24,8.77,1.79.68.09,1.31.22,1.73.22,1.66,0,3.04-.07,4.43-.15,2.73.62,5.67,1.54,8.63,2.37.82.29,1.66.59,2.47.87,1.48.57,3.02,1.15,4.55,1.74,1.53.6,3.02,1.26,4.48,1.86,3.52,1.38,6.79,2.62,10.29,4.04,4.47,1.44,3.45-1.11,9.69,2.25,2.07.96,4.08,1.93,6.09,2.97,1.56.73,3.41,1.6,4.98,2.33.77.64,1.35,1.12,1.92,1.59,1.98.51,4.35,1.11,6.29,1.71,3.28,1.74,6.48,3.52,9.44,5.16,4.12,1.87,7.83,3.79,11.85,5.77.79.67,1.85,1.42,2.8,2.3-.64.28-1.37.59-2.01.87-3.68-1.89-7.59-3.9-11.18-5.82-.87-.1-1.45-.1-2.34-.19-2.36-1.27-4.73-2.54-7.13-3.83-2.41-1.27-4.82-2.63-7.43-3.84-1.63-.69-3.35-1.36-5.32-2.14-2.6-1.48-5.21-2.99-7.96-4.32-1.4-.53-2.87-1.02-4.34-1.52-.64.35-1.34.73-2.02,1.1-1.54-.44-2.8-.81-4.34-1.25-1.59-1.35-4.5-2.5-7.65-3.63-3.17-1.09-6.55-2.19-9.35-2.96-2.96-1.11-5.83-2.25-8.71-3.4-2.99-.84-5.74-1.43-8.71-2.2-2.42-.57-4.84-1.14-7.27-1.72-.97-.72-2-1.35-2.64-1.99Z"/>
      <path class="cls-3" d="M719.68,374.69c1.06.42,1.85.72,2.63,1.03,1.19.46,2.36.92,3.52,1.37,1.14.49,2.27.97,3.41,1.45,2.26.97,4.53,1.94,6.86,2.94-2.32-.24-4.47-.7-6.72-1.42-1.13-.36-2.28-.78-3.49-1.28-1.21-.49-2.52-.99-3.91-1.59-5.6-1.56-10.62-3.27-12.63-4.82,3.5.65,6.82,1.58,10.34,2.32Z"/>
      <path class="cls-3" d="M728.25,372.28c5.1.75,10.25,3.53,14.8,5.41,2.63.91,5.56,1.92,8.47,2.93-.55.29-1.11.58-1.68.88-3.04-.97-6.02-1.92-8.74-2.78-2.37-1.12-4.81-2.26-7.25-3.41-1.22-.57-2.44-1.15-3.64-1.72-.6-.28-1.21-.57-1.81-.85-.61-.26-1.22-.52-1.82-.78.67.13,1.27.29,1.67.32Z"/>
      <path class="cls-3" d="M772.24,394.66c2.07,1.29,4.39,2.71,6.52,3.96.25.89.34,1.6.35,2.35-1.54-.58-3.06-1.1-4.38-1.48-3.24-2.26-6.22-4.33-9.45-6.58,2.64.51,3.45-.12,6.96,1.75Z"/>
      <path class="cls-3" d="M521.96,329.27c.91-1.6,5.86-1.15,7.4-1.81,6.92-.17,15.06-.59,23.01-.53,7.99-.15,15.79.11,22.29.12,4.08.1,8.12.32,12.13.49,4.03.13,7.95.46,11.78.77,1.36-.6,4.69,0,5.46-.65,20.32,1.77,36.81,5.17,54.02,7.42,1.73.35,3.51.71,5.32,1.07.91.18,1.82.36,2.74.53.91.2,1.83.41,2.76.61,3.7.82,7.51,1.64,11.34,2.44,7.58,1.82,15.32,3.48,22.42,5.32,6.05,3.27,16.28,3.82,19.74,6.98,5.66-.12,17,7.79,18.16,4.62,5.65,2.03,11.17,4.07,16.59,6.36,2.73,1.11,5.49,2.2,8.3,3.26,2.76,1.14,5.58,2.24,8.5,3.29-.2-.81,1.09-.2,2.7.63.8.42,1.69.89,2.5,1.28.8.41,1.54.74,2.07.81,2.24,1.16,4.15,1.9,6.26,2.75,1.05.42,2.15.87,3.36,1.42.6.27,1.23.57,1.9.9.65.35,1.34.73,2.06,1.16,3.95,1.78,7.56,3.82,11.33,6.08,3.7,2.36,7.58,4.89,12.2,7.53.88-1.09,7.19,3.22,8.61,2.96,4.09,2.46,5.06,3.42,5.55,4.32.5.88.58,1.61,2.9,3.62,1.94,1.36,3.96,2.71,5.98,4.06-.6.19-1.19.38-2.95-.29.83,1.49,1.33,2.81,1.92,4.11,2,1.61-.27,1.07-.62,1.44-5.89-4.28-11.99-8.83-18.39-12.96-.39-1.12-1.76-2.38-.39-2.12-5.36-3.64-7.7-4.16-12.99-7.15-1.53-1.04-2.98-1.99-4.39-2.86-1.44-.83-2.82-1.59-4.17-2.3-2.69-1.43-5.23-2.67-7.77-3.91-2.55-1.22-5.17-2.34-7.9-3.69-1.37-.67-2.77-1.38-4.24-2.16-.73-.39-1.48-.8-2.24-1.21-.77-.41-1.57-.83-2.39-1.26-.08,2.08-7.45-2.81-10.85-3.48-11.61-6.23-22.19-9.23-33.64-13.11-1.97-.44-4.61-1.48-7.36-2.49-2.78-.95-5.71-1.81-8.18-2.03-1.96-.79-4.28-1.77-6.71-2.57-2.45-.74-4.99-1.34-7.31-1.46-2.24-.57-4.67-1.27-7.26-1.98-2.61-.67-5.35-1.38-8.16-2.11-5.57-1.55-11.53-2.81-17.03-4.01-3.02-.92-6.17-1.59-9.24-2.39-2.12-.63-6.1-1.89-9.1-1.3-3.84-.7-7.66-1.39-11.5-2.09-2.07-.68-6.23-1.54-8.88-.85-3.04-.39-6.01-.77-8.93-1.15-2.95-.31-5.85-.61-8.75-.91-2.11-.52-4.47-.91-10.9-.54-1.89-.11-3.83-.16-6.09-.24-1.71-.24-3.42-.53-5.15-.72l-5.21-.59c-3.48-.37-6.95-.83-10.45-1.14-2.34.41-6.89-.13-10.2.89-1.85-.04-3.69-.13-5.88-.1-2.27-.23-6.64-.51-9.58.54-.93,0-1.86,0-2.79,0-3.99-.03-7.92.05-11.84.07-1.96.03-3.91,0-5.89.08-1.98.08-3.97.15-5.98.23Z"/>
      <path class="cls-3" d="M791.39,386.06c2.59,1.18,1.52-.64,8,3.67-6.49-4.31-5.42-2.5-8-3.67Z"/>
      <path class="cls-3" d="M819.91,399.87c.46.32.94.65,1.18.82.23.93.27,1.65.26,2.42-2.84-1.72-5.86-3.65-8.72-5.31-.73-.47-1.45-.93-2.19-1.41.32.13.95.39,1.26.51,1.54.52,2.92,1,4.24,1.5,1.32.49,2.61.97,3.97,1.47Z"/>
      <path class="cls-3" d="M822.08,405.08c1.06,1.37,1.92,2.52,2.95,3.93-2.32-1.69-4.71-3.29-6.81-4.77,1.27.27,2.57.55,3.87.83Z"/>
      <path class="cls-3" d="M710.87,368.83c1.33.17,2.4.31,3.32.43.9.15,1.65.28,2.36.4,1.42.23,2.67.41,4.65.54,1.72.54,3.72,1.18,5.38,1.76.67.13,1.27.29,1.67.32,1.89.99,3.77,2.02,5.57,3.06,2.53,1.16,7.06,2.75,7.28,3.39-.63.34-1.13.62-1.67.92-2.75-1.04-6.82-3.12-7.89-3.04-3.96-1.16-8.65-3.26-13.63-4.48-2.11-.81-4.2-1.68-6.36-2.4.01-.26-.33-.58-.67-.89Z"/>
      <path class="cls-3" d="M772.39,379.93c4.2,2.08,8.25,4.32,12.42,6.46,2.73,1.28,5.12,2.58,7.8,3.94l1.56,1.59c1.78,1.01,3.43,1.8,5.28,2.81,1.47,2.15,2.96,4.31,4.44,6.48l-5.74-3.7c-1.9-1.25-3.9-2.36-5.86-3.55-4.03-1.53-8.68-5.58-10.39-5-2.25-1.24-4.43-2.45-6.62-3.65-1.09-.6-2.18-1.21-3.28-1.82-1.11-.6-2.25-1.15-3.39-1.74-2.11-1.78-4.2-3.55-6.62-5.43,3.66,1.27,7.03,2.44,10.4,3.61Z"/>
      <path class="cls-3" d="M741.1,378.72c2.72.86,5.71,1.81,8.74,2.78.57-.3,1.13-.59,1.68-.88,2.06.96,4.13,1.9,6.13,2.96,3.73,1.7,7.5,3.36,11.45,5.23.26.15.75.42,1.24.69,2.44,1.64,4.8,3.3,7.17,4.97,1.55.29,2.88.41,4.17.6-.12-.44,0-.75-.22-1.16,3.44,1.74,6.81,3.55,9.94,5.19-.42.18-.92.4-1.36.59-.79.34-1.66.71-2.44,1.05.12.44.32.85.21,1.15,3.81,2.16,7.27,4.45,10.35,6.29,3.06,1.86,5.76,3.27,7.69,4.16,3.14,2.05,6.23,4.06,9.37,6.11,1.49,1.65,3.13,3.58,4.58,5.27-.57.2-1.16.4-1.74.6-1.3-.89-2.62-1.96-3.93-2.94-1.34-.94-2.66-1.79-3.91-2.31-1.45-.87-2.97-1.83-4.56-2.84-1.59-1-3.19-2.14-4.91-3.16-3.39-2.12-6.9-4.31-10.25-6.41-3.72-2.61-5.54-2.57-11.39-5.71-.01-.75-.09-1.46-.35-2.35-2.13-1.26-4.46-2.68-6.52-3.96-3.51-1.87-4.32-1.25-6.96-1.75-.25-.13-.75-.38-1-.51-2.51-1.28-5.01-2.55-7.25-3.69-.31-.37-.34-.6-.56-.99-1.32-.66-2.62-1.37-3.96-1.99-1.34-.63-2.67-1.25-3.99-1.87-2.65-1.24-5.26-2.47-7.81-3.66-.5-.24-1.03-.45-1.29-.56.54-.3,1.05-.58,1.67-.92Z"/>
      <path class="cls-3" d="M770.34,389.5c3.29,1.75,4.35,1.25,11.12,4.41.22.41.1.72.22,1.16-1.29-.18-2.62-.3-4.17-.6-2.37-1.67-4.73-3.33-7.17-4.97Z"/>
      <path class="cls-3" d="M790.04,399.69c.44-.19.94-.41,1.36-.59,1.04.43,2,.83,2.97,1.23.95.42,1.88.86,2.86,1.34,1.69,1.55,3.57,3.27,5.27,4.83,1.64.83,2.85,1.33,4.06,1.88,1.2.57,2.42,1.17,4.1,2.15.65.76.98,1.37,1.32,1.99-2.1-.45-4.19-.9-6.21-1.37.1.46.21.92.07,1.21-1.93-.9-4.62-2.3-7.69-4.16-3.08-1.84-6.54-4.13-10.35-6.29.11-.3-.08-.71-.21-1.15.78-.34,1.65-.71,2.44-1.05Z"/>
      <path class="cls-3" d="M384.57,608.96c3.47.37,7.27.78,10.75,1.09-3.48-.3-7.28-.72-10.75-1.09Z"/>
      <path class="cls-3" d="M366.55,606.42c.19-.33.44-.72.66-1.05,4.11.42,6.39.58,9.14,1.04.95.62,1.63,1.21,2.29,1.79-4.03-.59-8.06-1.18-12.09-1.78Z"/>
      <path class="cls-3" d="M374.61,365.95c.96-.3,1.93-.6,3.25-1.01,2.92-.89,6.14-1.96,9.06-2.74.94.18,1.55.45,2.15.73l-3.98,1.25c-1.33.42-2.65.9-3.98,1.34l-7.96,2.72c-1.8.4-3.95.87-5.74,1.3,2.28-1.19,4.89-2.42,7.21-3.59Z"/>
      <path class="cls-3" d="M502.32,339.75c.9-.36,2.36-.86,4.83-1.26,1.23-.2,2.71-.38,4.5-.5,1.78-.09,3.86-.08,6.29,0,4.22-.47,7.89-.98,11.19-1.28,3.3-.29,6.26-.55,9.11-.8,1.42-.11,2.82-.22,4.21-.33,1.39-.1,2.77-.12,4.18-.17,2.81-.08,5.73-.13,8.97-.14,1.09.15,2.18.27,3.26.44,1.07.18,2.15.35,3.21.53-1.65.08-3.83.62-5.72,1-2.99.08-6,.15-9.02.23-1.51.04-3.02.07-4.54.11l-4.57.24c-3.05.16-6.1.32-9.13.48-1.52.06-3.04.18-4.56.31-1.52.12-3.04.24-4.55.36-.25-.04-.75-.13-1.31-.15-2.68.2-5.45.35-8.27.64-2.83.29-5.69.57-8.53.86.15-.18.31-.37.48-.55Z"/>
      <path class="cls-3" d="M567.23,335.5c2.15.06,4.36.12,6.58.19,2.2.13,4.4.25,6.52.38.73-.52,2.73-.43,4.94-.28,1.11.07,2.26.17,3.34.2,1.07.06,2.06.08,2.85-.03,3.12.45,6.24.9,9.28,1.41-3.36-.09-5.49.19-8.4.29-1.46.07-3.1.02-5.23,0-2.13-.04-4.71-.18-8-.47-2.25.01-4.57.04-7.52-.15-2.26-.24-4.53-.48-6.78-.72.91-.27,1.83-.53,2.42-.81Z"/>
      <path class="cls-3" d="M633.29,336.61c2.88.24,5.96.69,8.87.94.28.36.52.71.5,1.01-.44.2-1.47.29-3.15.12-.84-.08-1.84-.23-3.02-.46-.59-.12-1.22-.25-1.9-.41-.68-.15-1.41-.31-2.19-.49.27-.21.57-.46.89-.72Z"/>
      <path class="cls-3" d="M797.23,401.67c2.48.99,4.94,1.98,7.43,2.98,1.16.91,2.33,1.78,3.43,2.75,1.1.96,2.21,1.91,3.31,2.87-.23.07-.44.16-.74.26-1.69-.98-2.91-1.58-4.1-2.15-1.22-.55-2.43-1.05-4.06-1.88-1.7-1.56-3.58-3.28-5.27-4.83Z"/>
      <path class="cls-3" d="M228.27,569.35c-.5-.68-.94-1.38-1.63-2.27.69.89,1.13,1.59,1.63,2.27Z"/>
      <path class="cls-3" d="M338.03,384.35c-.2-.09-.7-.06-1.24,0,.54-.06,1.04-.09,1.24,0Z"/>
      <path class="cls-3" d="M453.07,338.78c3.51-1.95,9.43-2.36,11.9-3.34.63-.46,9.35-2.04,7.25-.55,3.19-.76,5.67-1.35,8.5-2.02,3.32-.55,7.18-.62,9.61-1.42.16-.53,4.35-.68,6.36-1.02-.66,1.03,7.02-.29,10.03-.05-.24.59-6.84,1.4-8.71,1.85-4.38.7-8.5,1.49-12.92,2.28-.74.2-1.44.34-1.88.5-1.91.03-3.82.15-5.73.24-1.92.1-3.83.19-5.76.29-6.17.87-12.44,2.15-18.63,3.26Z"/>
      <path class="cls-3" d="M349.02,606.16c.73,1,1.91,1.83,3.14,2.58,1.56.26,3.11.51,8.63,2.04-.11.16-.22.33-.29.5-3.55-.35-7.37-.8-10.89-1.2-3.17-.98-6.32-1.95-9.48-2.93,3-.37,5.94-.68,8.89-.99Z"/>
      <path class="cls-3" d="M349.21,605.88c-.05.05-.12.16-.19.27.07-.11.13-.22.19-.27Z"/>
      <path class="cls-3" d="M809.98,404.79c.69.25,1.38.49,1.82.57-.44-.08-1.13-.32-1.82-.57Z"/>
      <path class="cls-3" d="M623.9,353.32c1.36.2,2.75.41,4.14.62,1.39.22,2.77.5,4.16.74,2.78.51,5.55,1.01,8.26,1.51-2.87.58-5.27.27-8.05-.3-5.37-.46-5.77-2.02-8.51-2.57Z"/>
      <path class="cls-3" d="M506.71,330.37c6.57-1.78,11.82-1.58,15.25-1.1-1.51.32-4,1.38-8.42,1.3-2.24-.11-4.5-.18-6.83-.2Z"/>
    </g>
  </g>
</svg>